G04 #@! TF.FileFunction,Soldermask,Top*
%FSLAX46Y46*%
G04 Gerber Fmt 4.6, Leading zero omitted, Abs format (unit mm)*
G04 Created by KiCad (PCBNEW 4.0.5) date 01/24/17 10:53:33*
%MOMM*%
%LPD*%
G01*
G04 APERTURE LIST*
%ADD10C,0.100000*%
%ADD11C,4.400000*%
%ADD12R,1.150000X1.600000*%
%ADD13R,2.000000X2.000000*%
%ADD14O,2.000000X2.000000*%
%ADD15C,2.000000*%
%ADD16C,1.924000*%
%ADD17R,2.250000X2.250000*%
%ADD18C,2.250000*%
G04 APERTURE END LIST*
D10*
D11*
X145667600Y-58724800D03*
X155167600Y-58724800D03*
X164667600Y-58724800D03*
X174167600Y-58724800D03*
X183667600Y-58724800D03*
X193167600Y-58724800D03*
X202667600Y-58724800D03*
X212167600Y-58724800D03*
X65708400Y-58775600D03*
X75208400Y-58775600D03*
X84708400Y-58775600D03*
X94208400Y-58775600D03*
X103708400Y-58775600D03*
X113208400Y-58775600D03*
X122708400Y-58775600D03*
X132208400Y-58775600D03*
X65606800Y-39014400D03*
X75106800Y-39014400D03*
X84606800Y-39014400D03*
X94106800Y-39014400D03*
X103606800Y-39014400D03*
X113106800Y-39014400D03*
X122606800Y-39014400D03*
X132106800Y-39014400D03*
X214630000Y-93320000D03*
X214630000Y-83820000D03*
X214630000Y-74320000D03*
D12*
X201930000Y-89850000D03*
X201930000Y-87950000D03*
X201930000Y-78420000D03*
X201930000Y-76520000D03*
D13*
X100330000Y-81280000D03*
D14*
X92710000Y-88900000D03*
X97790000Y-81280000D03*
X95250000Y-88900000D03*
X95250000Y-81280000D03*
X97790000Y-88900000D03*
X92710000Y-81280000D03*
X100330000Y-88900000D03*
D13*
X128270000Y-81280000D03*
D14*
X120650000Y-88900000D03*
X125730000Y-81280000D03*
X123190000Y-88900000D03*
X123190000Y-81280000D03*
X125730000Y-88900000D03*
X120650000Y-81280000D03*
X128270000Y-88900000D03*
D13*
X157480000Y-81280000D03*
D14*
X149860000Y-88900000D03*
X154940000Y-81280000D03*
X152400000Y-88900000D03*
X152400000Y-81280000D03*
X154940000Y-88900000D03*
X149860000Y-81280000D03*
X157480000Y-88900000D03*
D13*
X185420000Y-81280000D03*
D14*
X177800000Y-88900000D03*
X182880000Y-81280000D03*
X180340000Y-88900000D03*
X180340000Y-81280000D03*
X182880000Y-88900000D03*
X177800000Y-81280000D03*
X185420000Y-88900000D03*
D11*
X92780000Y-104340000D03*
X102280000Y-104340000D03*
X111780000Y-104340000D03*
X121280000Y-104340000D03*
X130780000Y-104340000D03*
X140280000Y-104340000D03*
X149780000Y-104340000D03*
X159280000Y-104340000D03*
X168780000Y-104340000D03*
X178280000Y-104340000D03*
X187780000Y-104340000D03*
X197280000Y-104340000D03*
X49530000Y-69620000D03*
X49530000Y-79120000D03*
X49530000Y-88620000D03*
X49530000Y-98120000D03*
D15*
X105410000Y-90170000D03*
X110410000Y-90170000D03*
X87630000Y-76200000D03*
X92630000Y-76200000D03*
X133350000Y-90170000D03*
X138350000Y-90170000D03*
X115570000Y-76200000D03*
X120570000Y-76200000D03*
X161290000Y-90170000D03*
X166290000Y-90170000D03*
X144780000Y-76200000D03*
X149780000Y-76200000D03*
X189230000Y-90170000D03*
X194230000Y-90170000D03*
X172720000Y-76200000D03*
X177720000Y-76200000D03*
D16*
X109220000Y-78740000D03*
X109220000Y-81280000D03*
X109220000Y-76200000D03*
X138430000Y-78740000D03*
X138430000Y-81280000D03*
X138430000Y-76200000D03*
X166370000Y-78740000D03*
X166370000Y-81280000D03*
X166370000Y-76200000D03*
X195580000Y-78740000D03*
X195580000Y-81280000D03*
X195580000Y-76200000D03*
X81280000Y-95250000D03*
X81280000Y-97790000D03*
X81280000Y-92710000D03*
X74930000Y-87630000D03*
X74930000Y-90170000D03*
X74930000Y-85090000D03*
X68580000Y-80010000D03*
X68580000Y-82550000D03*
X68580000Y-77470000D03*
X62230000Y-72390000D03*
X62230000Y-74930000D03*
X62230000Y-69850000D03*
D17*
X102870000Y-76200000D03*
D18*
X100370000Y-76200000D03*
D17*
X132080000Y-76200000D03*
D18*
X129580000Y-76200000D03*
D17*
X160020000Y-76200000D03*
D18*
X157520000Y-76200000D03*
D17*
X189230000Y-76200000D03*
D18*
X186730000Y-76200000D03*
D11*
X145820000Y-39014400D03*
X155320000Y-39014400D03*
X164820000Y-39014400D03*
X174320000Y-39014400D03*
X183820000Y-39014400D03*
X193320000Y-39014400D03*
X202820000Y-39014400D03*
X212320000Y-39014400D03*
D17*
X87630000Y-91389200D03*
D18*
X87630000Y-88889200D03*
X87630000Y-86389200D03*
D17*
X115570000Y-91389200D03*
D18*
X115570000Y-88889200D03*
X115570000Y-86389200D03*
D17*
X144830800Y-91389200D03*
D18*
X144830800Y-88889200D03*
X144830800Y-86389200D03*
D17*
X172770800Y-91389200D03*
D18*
X172770800Y-88889200D03*
X172770800Y-86389200D03*
M02*
