%FSLAX45Y45*%
G04 Gerber Fmt 4.5, Leading zero omitted, Abs format (unit mm)*
G04 Created by KiCad (PCBNEW 4.0.5) date 01/24/17 09:23:29*
%MOMM*%
%LPD*%
G01*
G04 APERTURE LIST*
%ADD10C,0.127000*%
%ADD11C,0.150000*%
%ADD12C,0.200000*%
%ADD13C,0.300000*%
G04 APERTURE END LIST*
D10*
D11*
X22352000Y-3048000D02*
X22352000Y-4826000D01*
X22225000Y-2921000D02*
X22352000Y-3048000D01*
X4191000Y-2921000D02*
X22225000Y-2921000D01*
X4064000Y-3048000D02*
X4191000Y-2921000D01*
X4064000Y-11176000D02*
X4064000Y-3048000D01*
X4191000Y-11303000D02*
X4064000Y-11176000D01*
X22225000Y-11303000D02*
X4191000Y-11303000D01*
X22352000Y-11176000D02*
X22225000Y-11303000D01*
X22352000Y-4826000D02*
X22352000Y-11176000D01*
D12*
X20154900Y-7327900D02*
X20231100Y-7404100D01*
X20231100Y-7327900D02*
X20154900Y-7404100D01*
X20154900Y-8470900D02*
X20231100Y-8547100D01*
X20231100Y-8470900D02*
X20154900Y-8547100D01*
X20154900Y-9359900D02*
X20231100Y-9436100D01*
X20231100Y-9359900D02*
X20154900Y-9436100D01*
X8803000Y-7620000D02*
G75*
G03X8803000Y-7620000I-40000J0D01*
G01*
X9303000Y-7620000D02*
G75*
G03X9303000Y-7620000I-40000J0D01*
G01*
X9311000Y-8128000D02*
G75*
G03X9311000Y-8128000I-40000J0D01*
G01*
X9311000Y-8890000D02*
G75*
G03X9311000Y-8890000I-40000J0D01*
G01*
X9565000Y-8128000D02*
G75*
G03X9565000Y-8128000I-40000J0D01*
G01*
X9565000Y-8890000D02*
G75*
G03X9565000Y-8890000I-40000J0D01*
G01*
X9819000Y-8128000D02*
G75*
G03X9819000Y-8128000I-40000J0D01*
G01*
X9819000Y-8890000D02*
G75*
G03X9819000Y-8890000I-40000J0D01*
G01*
X10073000Y-8128000D02*
G75*
G03X10073000Y-8128000I-40000J0D01*
G01*
X10073000Y-8890000D02*
G75*
G03X10073000Y-8890000I-40000J0D01*
G01*
X10581000Y-9017000D02*
G75*
G03X10581000Y-9017000I-40000J0D01*
G01*
X11081000Y-9017000D02*
G75*
G03X11081000Y-9017000I-40000J0D01*
G01*
X11597000Y-7620000D02*
G75*
G03X11597000Y-7620000I-40000J0D01*
G01*
X12097000Y-7620000D02*
G75*
G03X12097000Y-7620000I-40000J0D01*
G01*
X12105000Y-8128000D02*
G75*
G03X12105000Y-8128000I-40000J0D01*
G01*
X12105000Y-8890000D02*
G75*
G03X12105000Y-8890000I-40000J0D01*
G01*
X12359000Y-8128000D02*
G75*
G03X12359000Y-8128000I-40000J0D01*
G01*
X12359000Y-8890000D02*
G75*
G03X12359000Y-8890000I-40000J0D01*
G01*
X12613000Y-8128000D02*
G75*
G03X12613000Y-8128000I-40000J0D01*
G01*
X12613000Y-8890000D02*
G75*
G03X12613000Y-8890000I-40000J0D01*
G01*
X12867000Y-8128000D02*
G75*
G03X12867000Y-8128000I-40000J0D01*
G01*
X12867000Y-8890000D02*
G75*
G03X12867000Y-8890000I-40000J0D01*
G01*
X13375000Y-9017000D02*
G75*
G03X13375000Y-9017000I-40000J0D01*
G01*
X13875000Y-9017000D02*
G75*
G03X13875000Y-9017000I-40000J0D01*
G01*
X14518000Y-7620000D02*
G75*
G03X14518000Y-7620000I-40000J0D01*
G01*
X15018000Y-7620000D02*
G75*
G03X15018000Y-7620000I-40000J0D01*
G01*
X15026000Y-8128000D02*
G75*
G03X15026000Y-8128000I-40000J0D01*
G01*
X15026000Y-8890000D02*
G75*
G03X15026000Y-8890000I-40000J0D01*
G01*
X15280000Y-8128000D02*
G75*
G03X15280000Y-8128000I-40000J0D01*
G01*
X15280000Y-8890000D02*
G75*
G03X15280000Y-8890000I-40000J0D01*
G01*
X15534000Y-8128000D02*
G75*
G03X15534000Y-8128000I-40000J0D01*
G01*
X15534000Y-8890000D02*
G75*
G03X15534000Y-8890000I-40000J0D01*
G01*
X15788000Y-8128000D02*
G75*
G03X15788000Y-8128000I-40000J0D01*
G01*
X15788000Y-8890000D02*
G75*
G03X15788000Y-8890000I-40000J0D01*
G01*
X16169000Y-9017000D02*
G75*
G03X16169000Y-9017000I-40000J0D01*
G01*
X16669000Y-9017000D02*
G75*
G03X16669000Y-9017000I-40000J0D01*
G01*
X17312000Y-7620000D02*
G75*
G03X17312000Y-7620000I-40000J0D01*
G01*
X17812000Y-7620000D02*
G75*
G03X17812000Y-7620000I-40000J0D01*
G01*
X17820000Y-8128000D02*
G75*
G03X17820000Y-8128000I-40000J0D01*
G01*
X17820000Y-8890000D02*
G75*
G03X17820000Y-8890000I-40000J0D01*
G01*
X18074000Y-8128000D02*
G75*
G03X18074000Y-8128000I-40000J0D01*
G01*
X18074000Y-8890000D02*
G75*
G03X18074000Y-8890000I-40000J0D01*
G01*
X18328000Y-8128000D02*
G75*
G03X18328000Y-8128000I-40000J0D01*
G01*
X18328000Y-8890000D02*
G75*
G03X18328000Y-8890000I-40000J0D01*
G01*
X18582000Y-8128000D02*
G75*
G03X18582000Y-8128000I-40000J0D01*
G01*
X18582000Y-8890000D02*
G75*
G03X18582000Y-8890000I-40000J0D01*
G01*
X18963000Y-9017000D02*
G75*
G03X18963000Y-9017000I-40000J0D01*
G01*
X19463000Y-9017000D02*
G75*
G03X19463000Y-9017000I-40000J0D01*
G01*
X6223000Y-6944360D02*
X6223000Y-7025640D01*
X6182360Y-6985000D02*
X6263640Y-6985000D01*
X6223000Y-7198360D02*
X6223000Y-7279640D01*
X6182360Y-7239000D02*
X6263640Y-7239000D01*
X6223000Y-7452360D02*
X6223000Y-7533640D01*
X6182360Y-7493000D02*
X6263640Y-7493000D01*
X6858000Y-7706360D02*
X6858000Y-7787640D01*
X6817360Y-7747000D02*
X6898640Y-7747000D01*
X6858000Y-7960360D02*
X6858000Y-8041640D01*
X6817360Y-8001000D02*
X6898640Y-8001000D01*
X6858000Y-8214360D02*
X6858000Y-8295640D01*
X6817360Y-8255000D02*
X6898640Y-8255000D01*
X7493000Y-8468360D02*
X7493000Y-8549640D01*
X7452360Y-8509000D02*
X7533640Y-8509000D01*
X7493000Y-8722360D02*
X7493000Y-8803640D01*
X7452360Y-8763000D02*
X7533640Y-8763000D01*
X7493000Y-8976360D02*
X7493000Y-9057640D01*
X7452360Y-9017000D02*
X7533640Y-9017000D01*
X8128000Y-9230360D02*
X8128000Y-9311640D01*
X8087360Y-9271000D02*
X8168640Y-9271000D01*
X8128000Y-9484360D02*
X8128000Y-9565640D01*
X8087360Y-9525000D02*
X8168640Y-9525000D01*
X8128000Y-9738360D02*
X8128000Y-9819640D01*
X8087360Y-9779000D02*
X8168640Y-9779000D01*
X10922000Y-7579360D02*
X10922000Y-7660640D01*
X10881360Y-7620000D02*
X10962640Y-7620000D01*
X10922000Y-7833360D02*
X10922000Y-7914640D01*
X10881360Y-7874000D02*
X10962640Y-7874000D01*
X10922000Y-8087360D02*
X10922000Y-8168640D01*
X10881360Y-8128000D02*
X10962640Y-8128000D01*
X13843000Y-7579360D02*
X13843000Y-7660640D01*
X13802360Y-7620000D02*
X13883640Y-7620000D01*
X13843000Y-7833360D02*
X13843000Y-7914640D01*
X13802360Y-7874000D02*
X13883640Y-7874000D01*
X13843000Y-8087360D02*
X13843000Y-8168640D01*
X13802360Y-8128000D02*
X13883640Y-8128000D01*
X16637000Y-7579360D02*
X16637000Y-7660640D01*
X16596360Y-7620000D02*
X16677640Y-7620000D01*
X16637000Y-7833360D02*
X16637000Y-7914640D01*
X16596360Y-7874000D02*
X16677640Y-7874000D01*
X16637000Y-8087360D02*
X16637000Y-8168640D01*
X16596360Y-8128000D02*
X16677640Y-8128000D01*
X19558000Y-7579360D02*
X19558000Y-7660640D01*
X19517360Y-7620000D02*
X19598640Y-7620000D01*
X19558000Y-7833360D02*
X19558000Y-7914640D01*
X19517360Y-7874000D02*
X19598640Y-7874000D01*
X19558000Y-8087360D02*
X19558000Y-8168640D01*
X19517360Y-8128000D02*
X19598640Y-8128000D01*
X8794820Y-8670740D02*
X8794820Y-8607100D01*
X8731180Y-8607100D01*
X8731180Y-8670740D01*
X8794820Y-8670740D01*
X8794820Y-8920740D02*
X8794820Y-8857100D01*
X8731180Y-8857100D01*
X8731180Y-8920740D01*
X8794820Y-8920740D01*
X8794820Y-9170740D02*
X8794820Y-9107100D01*
X8731180Y-9107100D01*
X8731180Y-9170740D01*
X8794820Y-9170740D01*
X10068820Y-7651820D02*
X10068820Y-7588180D01*
X10005180Y-7588180D01*
X10005180Y-7651820D01*
X10068820Y-7651820D01*
X10318820Y-7651820D02*
X10318820Y-7588180D01*
X10255180Y-7588180D01*
X10255180Y-7651820D01*
X10318820Y-7651820D01*
X11588820Y-8670740D02*
X11588820Y-8607100D01*
X11525180Y-8607100D01*
X11525180Y-8670740D01*
X11588820Y-8670740D01*
X11588820Y-8920740D02*
X11588820Y-8857100D01*
X11525180Y-8857100D01*
X11525180Y-8920740D01*
X11588820Y-8920740D01*
X11588820Y-9170740D02*
X11588820Y-9107100D01*
X11525180Y-9107100D01*
X11525180Y-9170740D01*
X11588820Y-9170740D01*
X12989820Y-7651820D02*
X12989820Y-7588180D01*
X12926180Y-7588180D01*
X12926180Y-7651820D01*
X12989820Y-7651820D01*
X13239820Y-7651820D02*
X13239820Y-7588180D01*
X13176180Y-7588180D01*
X13176180Y-7651820D01*
X13239820Y-7651820D01*
X14514900Y-8670740D02*
X14514900Y-8607100D01*
X14451260Y-8607100D01*
X14451260Y-8670740D01*
X14514900Y-8670740D01*
X14514900Y-8920740D02*
X14514900Y-8857100D01*
X14451260Y-8857100D01*
X14451260Y-8920740D01*
X14514900Y-8920740D01*
X14514900Y-9170740D02*
X14514900Y-9107100D01*
X14451260Y-9107100D01*
X14451260Y-9170740D01*
X14514900Y-9170740D01*
X15783820Y-7651820D02*
X15783820Y-7588180D01*
X15720180Y-7588180D01*
X15720180Y-7651820D01*
X15783820Y-7651820D01*
X16033820Y-7651820D02*
X16033820Y-7588180D01*
X15970180Y-7588180D01*
X15970180Y-7651820D01*
X16033820Y-7651820D01*
X17308900Y-8670740D02*
X17308900Y-8607100D01*
X17245260Y-8607100D01*
X17245260Y-8670740D01*
X17308900Y-8670740D01*
X17308900Y-8920740D02*
X17308900Y-8857100D01*
X17245260Y-8857100D01*
X17245260Y-8920740D01*
X17308900Y-8920740D01*
X17308900Y-9170740D02*
X17308900Y-9107100D01*
X17245260Y-9107100D01*
X17245260Y-9170740D01*
X17308900Y-9170740D01*
X18704820Y-7651820D02*
X18704820Y-7588180D01*
X18641180Y-7588180D01*
X18641180Y-7651820D01*
X18704820Y-7651820D01*
X18954820Y-7651820D02*
X18954820Y-7588180D01*
X18891180Y-7588180D01*
X18891180Y-7651820D01*
X18954820Y-7651820D01*
X4953000Y-7067000D02*
X5058000Y-6962000D01*
X4953000Y-6857000D01*
X4848000Y-6962000D01*
X4953000Y-7067000D01*
X4953000Y-8017000D02*
X5058000Y-7912000D01*
X4953000Y-7807000D01*
X4848000Y-7912000D01*
X4953000Y-8017000D01*
X4953000Y-8967000D02*
X5058000Y-8862000D01*
X4953000Y-8757000D01*
X4848000Y-8862000D01*
X4953000Y-8967000D01*
X4953000Y-9917000D02*
X5058000Y-9812000D01*
X4953000Y-9707000D01*
X4848000Y-9812000D01*
X4953000Y-9917000D01*
X6560680Y-4006440D02*
X6665680Y-3901440D01*
X6560680Y-3796440D01*
X6455680Y-3901440D01*
X6560680Y-4006440D01*
X6570840Y-5982560D02*
X6675840Y-5877560D01*
X6570840Y-5772560D01*
X6465840Y-5877560D01*
X6570840Y-5982560D01*
X7510680Y-4006440D02*
X7615680Y-3901440D01*
X7510680Y-3796440D01*
X7405680Y-3901440D01*
X7510680Y-4006440D01*
X7520840Y-5982560D02*
X7625840Y-5877560D01*
X7520840Y-5772560D01*
X7415840Y-5877560D01*
X7520840Y-5982560D01*
X8460680Y-4006440D02*
X8565680Y-3901440D01*
X8460680Y-3796440D01*
X8355680Y-3901440D01*
X8460680Y-4006440D01*
X8470840Y-5982560D02*
X8575840Y-5877560D01*
X8470840Y-5772560D01*
X8365840Y-5877560D01*
X8470840Y-5982560D01*
X9278000Y-10539000D02*
X9383000Y-10434000D01*
X9278000Y-10329000D01*
X9173000Y-10434000D01*
X9278000Y-10539000D01*
X9410680Y-4006440D02*
X9515680Y-3901440D01*
X9410680Y-3796440D01*
X9305680Y-3901440D01*
X9410680Y-4006440D01*
X9420840Y-5982560D02*
X9525840Y-5877560D01*
X9420840Y-5772560D01*
X9315840Y-5877560D01*
X9420840Y-5982560D01*
X10228000Y-10539000D02*
X10333000Y-10434000D01*
X10228000Y-10329000D01*
X10123000Y-10434000D01*
X10228000Y-10539000D01*
X10360680Y-4006440D02*
X10465680Y-3901440D01*
X10360680Y-3796440D01*
X10255680Y-3901440D01*
X10360680Y-4006440D01*
X10370840Y-5982560D02*
X10475840Y-5877560D01*
X10370840Y-5772560D01*
X10265840Y-5877560D01*
X10370840Y-5982560D01*
X11178000Y-10539000D02*
X11283000Y-10434000D01*
X11178000Y-10329000D01*
X11073000Y-10434000D01*
X11178000Y-10539000D01*
X11310680Y-4006440D02*
X11415680Y-3901440D01*
X11310680Y-3796440D01*
X11205680Y-3901440D01*
X11310680Y-4006440D01*
X11320840Y-5982560D02*
X11425840Y-5877560D01*
X11320840Y-5772560D01*
X11215840Y-5877560D01*
X11320840Y-5982560D01*
X12128000Y-10539000D02*
X12233000Y-10434000D01*
X12128000Y-10329000D01*
X12023000Y-10434000D01*
X12128000Y-10539000D01*
X12260680Y-4006440D02*
X12365680Y-3901440D01*
X12260680Y-3796440D01*
X12155680Y-3901440D01*
X12260680Y-4006440D01*
X12270840Y-5982560D02*
X12375840Y-5877560D01*
X12270840Y-5772560D01*
X12165840Y-5877560D01*
X12270840Y-5982560D01*
X13078000Y-10539000D02*
X13183000Y-10434000D01*
X13078000Y-10329000D01*
X12973000Y-10434000D01*
X13078000Y-10539000D01*
X13210680Y-4006440D02*
X13315680Y-3901440D01*
X13210680Y-3796440D01*
X13105680Y-3901440D01*
X13210680Y-4006440D01*
X13220840Y-5982560D02*
X13325840Y-5877560D01*
X13220840Y-5772560D01*
X13115840Y-5877560D01*
X13220840Y-5982560D01*
X14028000Y-10539000D02*
X14133000Y-10434000D01*
X14028000Y-10329000D01*
X13923000Y-10434000D01*
X14028000Y-10539000D01*
X14566760Y-5977480D02*
X14671760Y-5872480D01*
X14566760Y-5767480D01*
X14461760Y-5872480D01*
X14566760Y-5977480D01*
X14582000Y-4006440D02*
X14687000Y-3901440D01*
X14582000Y-3796440D01*
X14477000Y-3901440D01*
X14582000Y-4006440D01*
X14978000Y-10539000D02*
X15083000Y-10434000D01*
X14978000Y-10329000D01*
X14873000Y-10434000D01*
X14978000Y-10539000D01*
X15516760Y-5977480D02*
X15621760Y-5872480D01*
X15516760Y-5767480D01*
X15411760Y-5872480D01*
X15516760Y-5977480D01*
X15532000Y-4006440D02*
X15637000Y-3901440D01*
X15532000Y-3796440D01*
X15427000Y-3901440D01*
X15532000Y-4006440D01*
X15928000Y-10539000D02*
X16033000Y-10434000D01*
X15928000Y-10329000D01*
X15823000Y-10434000D01*
X15928000Y-10539000D01*
X16466760Y-5977480D02*
X16571760Y-5872480D01*
X16466760Y-5767480D01*
X16361760Y-5872480D01*
X16466760Y-5977480D01*
X16482000Y-4006440D02*
X16587000Y-3901440D01*
X16482000Y-3796440D01*
X16377000Y-3901440D01*
X16482000Y-4006440D01*
X16878000Y-10539000D02*
X16983000Y-10434000D01*
X16878000Y-10329000D01*
X16773000Y-10434000D01*
X16878000Y-10539000D01*
X17416760Y-5977480D02*
X17521760Y-5872480D01*
X17416760Y-5767480D01*
X17311760Y-5872480D01*
X17416760Y-5977480D01*
X17432000Y-4006440D02*
X17537000Y-3901440D01*
X17432000Y-3796440D01*
X17327000Y-3901440D01*
X17432000Y-4006440D01*
X17828000Y-10539000D02*
X17933000Y-10434000D01*
X17828000Y-10329000D01*
X17723000Y-10434000D01*
X17828000Y-10539000D01*
X18366760Y-5977480D02*
X18471760Y-5872480D01*
X18366760Y-5767480D01*
X18261760Y-5872480D01*
X18366760Y-5977480D01*
X18382000Y-4006440D02*
X18487000Y-3901440D01*
X18382000Y-3796440D01*
X18277000Y-3901440D01*
X18382000Y-4006440D01*
X18778000Y-10539000D02*
X18883000Y-10434000D01*
X18778000Y-10329000D01*
X18673000Y-10434000D01*
X18778000Y-10539000D01*
X19316760Y-5977480D02*
X19421760Y-5872480D01*
X19316760Y-5767480D01*
X19211760Y-5872480D01*
X19316760Y-5977480D01*
X19332000Y-4006440D02*
X19437000Y-3901440D01*
X19332000Y-3796440D01*
X19227000Y-3901440D01*
X19332000Y-4006440D01*
X19728000Y-10539000D02*
X19833000Y-10434000D01*
X19728000Y-10329000D01*
X19623000Y-10434000D01*
X19728000Y-10539000D01*
X20266760Y-5977480D02*
X20371760Y-5872480D01*
X20266760Y-5767480D01*
X20161760Y-5872480D01*
X20266760Y-5977480D01*
X20282000Y-4006440D02*
X20387000Y-3901440D01*
X20282000Y-3796440D01*
X20177000Y-3901440D01*
X20282000Y-4006440D01*
X21216760Y-5977480D02*
X21321760Y-5872480D01*
X21216760Y-5767480D01*
X21111760Y-5872480D01*
X21216760Y-5977480D01*
X21232000Y-4006440D02*
X21337000Y-3901440D01*
X21232000Y-3796440D01*
X21127000Y-3901440D01*
X21232000Y-4006440D01*
X21463000Y-7537000D02*
X21568000Y-7432000D01*
X21463000Y-7327000D01*
X21358000Y-7432000D01*
X21463000Y-7537000D01*
X21463000Y-8487000D02*
X21568000Y-8382000D01*
X21463000Y-8277000D01*
X21358000Y-8382000D01*
X21463000Y-8487000D01*
X21463000Y-9437000D02*
X21568000Y-9332000D01*
X21463000Y-9227000D01*
X21358000Y-9332000D01*
X21463000Y-9437000D01*
D13*
X4327929Y-11776214D02*
X4327929Y-11476214D01*
X4399357Y-11476214D01*
X4442214Y-11490500D01*
X4470786Y-11519071D01*
X4485071Y-11547643D01*
X4499357Y-11604786D01*
X4499357Y-11647643D01*
X4485071Y-11704786D01*
X4470786Y-11733357D01*
X4442214Y-11761929D01*
X4399357Y-11776214D01*
X4327929Y-11776214D01*
X4627929Y-11776214D02*
X4627929Y-11576214D01*
X4627929Y-11633357D02*
X4642214Y-11604786D01*
X4656500Y-11590500D01*
X4685071Y-11576214D01*
X4713643Y-11576214D01*
X4813643Y-11776214D02*
X4813643Y-11576214D01*
X4813643Y-11476214D02*
X4799357Y-11490500D01*
X4813643Y-11504786D01*
X4827929Y-11490500D01*
X4813643Y-11476214D01*
X4813643Y-11504786D01*
X4999357Y-11776214D02*
X4970786Y-11761929D01*
X4956500Y-11733357D01*
X4956500Y-11476214D01*
X5156500Y-11776214D02*
X5127929Y-11761929D01*
X5113643Y-11733357D01*
X5113643Y-11476214D01*
X5499357Y-11776214D02*
X5499357Y-11476214D01*
X5599357Y-11690500D01*
X5699357Y-11476214D01*
X5699357Y-11776214D01*
X5970786Y-11776214D02*
X5970786Y-11619071D01*
X5956500Y-11590500D01*
X5927928Y-11576214D01*
X5870786Y-11576214D01*
X5842214Y-11590500D01*
X5970786Y-11761929D02*
X5942214Y-11776214D01*
X5870786Y-11776214D01*
X5842214Y-11761929D01*
X5827928Y-11733357D01*
X5827928Y-11704786D01*
X5842214Y-11676214D01*
X5870786Y-11661929D01*
X5942214Y-11661929D01*
X5970786Y-11647643D01*
X6113643Y-11576214D02*
X6113643Y-11876214D01*
X6113643Y-11590500D02*
X6142214Y-11576214D01*
X6199357Y-11576214D01*
X6227928Y-11590500D01*
X6242214Y-11604786D01*
X6256500Y-11633357D01*
X6256500Y-11719071D01*
X6242214Y-11747643D01*
X6227928Y-11761929D01*
X6199357Y-11776214D01*
X6142214Y-11776214D01*
X6113643Y-11761929D01*
X6385071Y-11747643D02*
X6399357Y-11761929D01*
X6385071Y-11776214D01*
X6370786Y-11761929D01*
X6385071Y-11747643D01*
X6385071Y-11776214D01*
X6385071Y-11590500D02*
X6399357Y-11604786D01*
X6385071Y-11619071D01*
X6370786Y-11604786D01*
X6385071Y-11590500D01*
X6385071Y-11619071D01*
X3980300Y-12232400D02*
X4056500Y-12308600D01*
X4056500Y-12232400D02*
X3980300Y-12308600D01*
X4385071Y-12106214D02*
X4413643Y-12106214D01*
X4442214Y-12120500D01*
X4456500Y-12134786D01*
X4470786Y-12163357D01*
X4485071Y-12220500D01*
X4485071Y-12291929D01*
X4470786Y-12349071D01*
X4456500Y-12377643D01*
X4442214Y-12391929D01*
X4413643Y-12406214D01*
X4385071Y-12406214D01*
X4356500Y-12391929D01*
X4342214Y-12377643D01*
X4327929Y-12349071D01*
X4313643Y-12291929D01*
X4313643Y-12220500D01*
X4327929Y-12163357D01*
X4342214Y-12134786D01*
X4356500Y-12120500D01*
X4385071Y-12106214D01*
X4613643Y-12377643D02*
X4627929Y-12391929D01*
X4613643Y-12406214D01*
X4599357Y-12391929D01*
X4613643Y-12377643D01*
X4613643Y-12406214D01*
X4727928Y-12106214D02*
X4927928Y-12106214D01*
X4799357Y-12406214D01*
X5170786Y-12106214D02*
X5113643Y-12106214D01*
X5085071Y-12120500D01*
X5070786Y-12134786D01*
X5042214Y-12177643D01*
X5027929Y-12234786D01*
X5027929Y-12349071D01*
X5042214Y-12377643D01*
X5056500Y-12391929D01*
X5085071Y-12406214D01*
X5142214Y-12406214D01*
X5170786Y-12391929D01*
X5185071Y-12377643D01*
X5199357Y-12349071D01*
X5199357Y-12277643D01*
X5185071Y-12249071D01*
X5170786Y-12234786D01*
X5142214Y-12220500D01*
X5085071Y-12220500D01*
X5056500Y-12234786D01*
X5042214Y-12249071D01*
X5027929Y-12277643D01*
X5327929Y-12406214D02*
X5327929Y-12206214D01*
X5327929Y-12234786D02*
X5342214Y-12220500D01*
X5370786Y-12206214D01*
X5413643Y-12206214D01*
X5442214Y-12220500D01*
X5456500Y-12249071D01*
X5456500Y-12406214D01*
X5456500Y-12249071D02*
X5470786Y-12220500D01*
X5499357Y-12206214D01*
X5542214Y-12206214D01*
X5570786Y-12220500D01*
X5585071Y-12249071D01*
X5585071Y-12406214D01*
X5727928Y-12406214D02*
X5727928Y-12206214D01*
X5727928Y-12234786D02*
X5742214Y-12220500D01*
X5770786Y-12206214D01*
X5813643Y-12206214D01*
X5842214Y-12220500D01*
X5856500Y-12249071D01*
X5856500Y-12406214D01*
X5856500Y-12249071D02*
X5870786Y-12220500D01*
X5899357Y-12206214D01*
X5942214Y-12206214D01*
X5970786Y-12220500D01*
X5985071Y-12249071D01*
X5985071Y-12406214D01*
X6570786Y-12091929D02*
X6313643Y-12477643D01*
X6956500Y-12106214D02*
X6985071Y-12106214D01*
X7013643Y-12120500D01*
X7027928Y-12134786D01*
X7042214Y-12163357D01*
X7056500Y-12220500D01*
X7056500Y-12291929D01*
X7042214Y-12349071D01*
X7027928Y-12377643D01*
X7013643Y-12391929D01*
X6985071Y-12406214D01*
X6956500Y-12406214D01*
X6927928Y-12391929D01*
X6913643Y-12377643D01*
X6899357Y-12349071D01*
X6885071Y-12291929D01*
X6885071Y-12220500D01*
X6899357Y-12163357D01*
X6913643Y-12134786D01*
X6927928Y-12120500D01*
X6956500Y-12106214D01*
X7185071Y-12377643D02*
X7199357Y-12391929D01*
X7185071Y-12406214D01*
X7170786Y-12391929D01*
X7185071Y-12377643D01*
X7185071Y-12406214D01*
X7385071Y-12106214D02*
X7413643Y-12106214D01*
X7442214Y-12120500D01*
X7456500Y-12134786D01*
X7470785Y-12163357D01*
X7485071Y-12220500D01*
X7485071Y-12291929D01*
X7470785Y-12349071D01*
X7456500Y-12377643D01*
X7442214Y-12391929D01*
X7413643Y-12406214D01*
X7385071Y-12406214D01*
X7356500Y-12391929D01*
X7342214Y-12377643D01*
X7327928Y-12349071D01*
X7313643Y-12291929D01*
X7313643Y-12220500D01*
X7327928Y-12163357D01*
X7342214Y-12134786D01*
X7356500Y-12120500D01*
X7385071Y-12106214D01*
X7585071Y-12106214D02*
X7770785Y-12106214D01*
X7670785Y-12220500D01*
X7713643Y-12220500D01*
X7742214Y-12234786D01*
X7756500Y-12249071D01*
X7770785Y-12277643D01*
X7770785Y-12349071D01*
X7756500Y-12377643D01*
X7742214Y-12391929D01*
X7713643Y-12406214D01*
X7627928Y-12406214D01*
X7599357Y-12391929D01*
X7585071Y-12377643D01*
X7956500Y-12106214D02*
X7985071Y-12106214D01*
X8013643Y-12120500D01*
X8027928Y-12134786D01*
X8042214Y-12163357D01*
X8056500Y-12220500D01*
X8056500Y-12291929D01*
X8042214Y-12349071D01*
X8027928Y-12377643D01*
X8013643Y-12391929D01*
X7985071Y-12406214D01*
X7956500Y-12406214D01*
X7927928Y-12391929D01*
X7913643Y-12377643D01*
X7899357Y-12349071D01*
X7885071Y-12291929D01*
X7885071Y-12220500D01*
X7899357Y-12163357D01*
X7913643Y-12134786D01*
X7927928Y-12120500D01*
X7956500Y-12106214D01*
X8170786Y-12106214D02*
X8170786Y-12163357D01*
X8285071Y-12106214D02*
X8285071Y-12163357D01*
X8727928Y-12520500D02*
X8713643Y-12506214D01*
X8685071Y-12463357D01*
X8670786Y-12434786D01*
X8656500Y-12391929D01*
X8642214Y-12320500D01*
X8642214Y-12263357D01*
X8656500Y-12191929D01*
X8670786Y-12149071D01*
X8685071Y-12120500D01*
X8713643Y-12077643D01*
X8727928Y-12063357D01*
X8813643Y-12106214D02*
X8999357Y-12106214D01*
X8899357Y-12220500D01*
X8942214Y-12220500D01*
X8970786Y-12234786D01*
X8985071Y-12249071D01*
X8999357Y-12277643D01*
X8999357Y-12349071D01*
X8985071Y-12377643D01*
X8970786Y-12391929D01*
X8942214Y-12406214D01*
X8856500Y-12406214D01*
X8827928Y-12391929D01*
X8813643Y-12377643D01*
X9356500Y-12406214D02*
X9356500Y-12106214D01*
X9485071Y-12406214D02*
X9485071Y-12249071D01*
X9470786Y-12220500D01*
X9442214Y-12206214D01*
X9399357Y-12206214D01*
X9370786Y-12220500D01*
X9356500Y-12234786D01*
X9670786Y-12406214D02*
X9642214Y-12391929D01*
X9627928Y-12377643D01*
X9613643Y-12349071D01*
X9613643Y-12263357D01*
X9627928Y-12234786D01*
X9642214Y-12220500D01*
X9670786Y-12206214D01*
X9713643Y-12206214D01*
X9742214Y-12220500D01*
X9756500Y-12234786D01*
X9770786Y-12263357D01*
X9770786Y-12349071D01*
X9756500Y-12377643D01*
X9742214Y-12391929D01*
X9713643Y-12406214D01*
X9670786Y-12406214D01*
X9942214Y-12406214D02*
X9913643Y-12391929D01*
X9899357Y-12363357D01*
X9899357Y-12106214D01*
X10170786Y-12391929D02*
X10142214Y-12406214D01*
X10085071Y-12406214D01*
X10056500Y-12391929D01*
X10042214Y-12363357D01*
X10042214Y-12249071D01*
X10056500Y-12220500D01*
X10085071Y-12206214D01*
X10142214Y-12206214D01*
X10170786Y-12220500D01*
X10185071Y-12249071D01*
X10185071Y-12277643D01*
X10042214Y-12306214D01*
X10299357Y-12391929D02*
X10327929Y-12406214D01*
X10385071Y-12406214D01*
X10413643Y-12391929D01*
X10427929Y-12363357D01*
X10427929Y-12349071D01*
X10413643Y-12320500D01*
X10385071Y-12306214D01*
X10342214Y-12306214D01*
X10313643Y-12291929D01*
X10299357Y-12263357D01*
X10299357Y-12249071D01*
X10313643Y-12220500D01*
X10342214Y-12206214D01*
X10385071Y-12206214D01*
X10413643Y-12220500D01*
X10527928Y-12520500D02*
X10542214Y-12506214D01*
X10570786Y-12463357D01*
X10585071Y-12434786D01*
X10599357Y-12391929D01*
X10613643Y-12320500D01*
X10613643Y-12263357D01*
X10599357Y-12191929D01*
X10585071Y-12149071D01*
X10570786Y-12120500D01*
X10542214Y-12077643D01*
X10527928Y-12063357D01*
X4056500Y-12666500D02*
G75*
G03X4056500Y-12666500I-40000J0D01*
G01*
X4385071Y-12502214D02*
X4413643Y-12502214D01*
X4442214Y-12516500D01*
X4456500Y-12530786D01*
X4470786Y-12559357D01*
X4485071Y-12616500D01*
X4485071Y-12687929D01*
X4470786Y-12745071D01*
X4456500Y-12773643D01*
X4442214Y-12787929D01*
X4413643Y-12802214D01*
X4385071Y-12802214D01*
X4356500Y-12787929D01*
X4342214Y-12773643D01*
X4327929Y-12745071D01*
X4313643Y-12687929D01*
X4313643Y-12616500D01*
X4327929Y-12559357D01*
X4342214Y-12530786D01*
X4356500Y-12516500D01*
X4385071Y-12502214D01*
X4613643Y-12773643D02*
X4627929Y-12787929D01*
X4613643Y-12802214D01*
X4599357Y-12787929D01*
X4613643Y-12773643D01*
X4613643Y-12802214D01*
X4799357Y-12630786D02*
X4770786Y-12616500D01*
X4756500Y-12602214D01*
X4742214Y-12573643D01*
X4742214Y-12559357D01*
X4756500Y-12530786D01*
X4770786Y-12516500D01*
X4799357Y-12502214D01*
X4856500Y-12502214D01*
X4885071Y-12516500D01*
X4899357Y-12530786D01*
X4913643Y-12559357D01*
X4913643Y-12573643D01*
X4899357Y-12602214D01*
X4885071Y-12616500D01*
X4856500Y-12630786D01*
X4799357Y-12630786D01*
X4770786Y-12645071D01*
X4756500Y-12659357D01*
X4742214Y-12687929D01*
X4742214Y-12745071D01*
X4756500Y-12773643D01*
X4770786Y-12787929D01*
X4799357Y-12802214D01*
X4856500Y-12802214D01*
X4885071Y-12787929D01*
X4899357Y-12773643D01*
X4913643Y-12745071D01*
X4913643Y-12687929D01*
X4899357Y-12659357D01*
X4885071Y-12645071D01*
X4856500Y-12630786D01*
X5099357Y-12502214D02*
X5127929Y-12502214D01*
X5156500Y-12516500D01*
X5170786Y-12530786D01*
X5185071Y-12559357D01*
X5199357Y-12616500D01*
X5199357Y-12687929D01*
X5185071Y-12745071D01*
X5170786Y-12773643D01*
X5156500Y-12787929D01*
X5127929Y-12802214D01*
X5099357Y-12802214D01*
X5070786Y-12787929D01*
X5056500Y-12773643D01*
X5042214Y-12745071D01*
X5027929Y-12687929D01*
X5027929Y-12616500D01*
X5042214Y-12559357D01*
X5056500Y-12530786D01*
X5070786Y-12516500D01*
X5099357Y-12502214D01*
X5327929Y-12802214D02*
X5327929Y-12602214D01*
X5327929Y-12630786D02*
X5342214Y-12616500D01*
X5370786Y-12602214D01*
X5413643Y-12602214D01*
X5442214Y-12616500D01*
X5456500Y-12645071D01*
X5456500Y-12802214D01*
X5456500Y-12645071D02*
X5470786Y-12616500D01*
X5499357Y-12602214D01*
X5542214Y-12602214D01*
X5570786Y-12616500D01*
X5585071Y-12645071D01*
X5585071Y-12802214D01*
X5727928Y-12802214D02*
X5727928Y-12602214D01*
X5727928Y-12630786D02*
X5742214Y-12616500D01*
X5770786Y-12602214D01*
X5813643Y-12602214D01*
X5842214Y-12616500D01*
X5856500Y-12645071D01*
X5856500Y-12802214D01*
X5856500Y-12645071D02*
X5870786Y-12616500D01*
X5899357Y-12602214D01*
X5942214Y-12602214D01*
X5970786Y-12616500D01*
X5985071Y-12645071D01*
X5985071Y-12802214D01*
X6570786Y-12487929D02*
X6313643Y-12873643D01*
X6956500Y-12502214D02*
X6985071Y-12502214D01*
X7013643Y-12516500D01*
X7027928Y-12530786D01*
X7042214Y-12559357D01*
X7056500Y-12616500D01*
X7056500Y-12687929D01*
X7042214Y-12745071D01*
X7027928Y-12773643D01*
X7013643Y-12787929D01*
X6985071Y-12802214D01*
X6956500Y-12802214D01*
X6927928Y-12787929D01*
X6913643Y-12773643D01*
X6899357Y-12745071D01*
X6885071Y-12687929D01*
X6885071Y-12616500D01*
X6899357Y-12559357D01*
X6913643Y-12530786D01*
X6927928Y-12516500D01*
X6956500Y-12502214D01*
X7185071Y-12773643D02*
X7199357Y-12787929D01*
X7185071Y-12802214D01*
X7170786Y-12787929D01*
X7185071Y-12773643D01*
X7185071Y-12802214D01*
X7385071Y-12502214D02*
X7413643Y-12502214D01*
X7442214Y-12516500D01*
X7456500Y-12530786D01*
X7470785Y-12559357D01*
X7485071Y-12616500D01*
X7485071Y-12687929D01*
X7470785Y-12745071D01*
X7456500Y-12773643D01*
X7442214Y-12787929D01*
X7413643Y-12802214D01*
X7385071Y-12802214D01*
X7356500Y-12787929D01*
X7342214Y-12773643D01*
X7327928Y-12745071D01*
X7313643Y-12687929D01*
X7313643Y-12616500D01*
X7327928Y-12559357D01*
X7342214Y-12530786D01*
X7356500Y-12516500D01*
X7385071Y-12502214D01*
X7585071Y-12502214D02*
X7770785Y-12502214D01*
X7670785Y-12616500D01*
X7713643Y-12616500D01*
X7742214Y-12630786D01*
X7756500Y-12645071D01*
X7770785Y-12673643D01*
X7770785Y-12745071D01*
X7756500Y-12773643D01*
X7742214Y-12787929D01*
X7713643Y-12802214D01*
X7627928Y-12802214D01*
X7599357Y-12787929D01*
X7585071Y-12773643D01*
X8056500Y-12802214D02*
X7885071Y-12802214D01*
X7970785Y-12802214D02*
X7970785Y-12502214D01*
X7942214Y-12545071D01*
X7913643Y-12573643D01*
X7885071Y-12587929D01*
X8170786Y-12502214D02*
X8170786Y-12559357D01*
X8285071Y-12502214D02*
X8285071Y-12559357D01*
X8727928Y-12916500D02*
X8713643Y-12902214D01*
X8685071Y-12859357D01*
X8670786Y-12830786D01*
X8656500Y-12787929D01*
X8642214Y-12716500D01*
X8642214Y-12659357D01*
X8656500Y-12587929D01*
X8670786Y-12545071D01*
X8685071Y-12516500D01*
X8713643Y-12473643D01*
X8727928Y-12459357D01*
X8970786Y-12602214D02*
X8970786Y-12802214D01*
X8899357Y-12487929D02*
X8827928Y-12702214D01*
X9013643Y-12702214D01*
X9170786Y-12630786D02*
X9142214Y-12616500D01*
X9127928Y-12602214D01*
X9113643Y-12573643D01*
X9113643Y-12559357D01*
X9127928Y-12530786D01*
X9142214Y-12516500D01*
X9170786Y-12502214D01*
X9227928Y-12502214D01*
X9256500Y-12516500D01*
X9270786Y-12530786D01*
X9285071Y-12559357D01*
X9285071Y-12573643D01*
X9270786Y-12602214D01*
X9256500Y-12616500D01*
X9227928Y-12630786D01*
X9170786Y-12630786D01*
X9142214Y-12645071D01*
X9127928Y-12659357D01*
X9113643Y-12687929D01*
X9113643Y-12745071D01*
X9127928Y-12773643D01*
X9142214Y-12787929D01*
X9170786Y-12802214D01*
X9227928Y-12802214D01*
X9256500Y-12787929D01*
X9270786Y-12773643D01*
X9285071Y-12745071D01*
X9285071Y-12687929D01*
X9270786Y-12659357D01*
X9256500Y-12645071D01*
X9227928Y-12630786D01*
X9642214Y-12802214D02*
X9642214Y-12502214D01*
X9770786Y-12802214D02*
X9770786Y-12645071D01*
X9756500Y-12616500D01*
X9727928Y-12602214D01*
X9685071Y-12602214D01*
X9656500Y-12616500D01*
X9642214Y-12630786D01*
X9956500Y-12802214D02*
X9927928Y-12787929D01*
X9913643Y-12773643D01*
X9899357Y-12745071D01*
X9899357Y-12659357D01*
X9913643Y-12630786D01*
X9927928Y-12616500D01*
X9956500Y-12602214D01*
X9999357Y-12602214D01*
X10027928Y-12616500D01*
X10042214Y-12630786D01*
X10056500Y-12659357D01*
X10056500Y-12745071D01*
X10042214Y-12773643D01*
X10027928Y-12787929D01*
X9999357Y-12802214D01*
X9956500Y-12802214D01*
X10227928Y-12802214D02*
X10199357Y-12787929D01*
X10185071Y-12759357D01*
X10185071Y-12502214D01*
X10456500Y-12787929D02*
X10427929Y-12802214D01*
X10370786Y-12802214D01*
X10342214Y-12787929D01*
X10327929Y-12759357D01*
X10327929Y-12645071D01*
X10342214Y-12616500D01*
X10370786Y-12602214D01*
X10427929Y-12602214D01*
X10456500Y-12616500D01*
X10470786Y-12645071D01*
X10470786Y-12673643D01*
X10327929Y-12702214D01*
X10585071Y-12787929D02*
X10613643Y-12802214D01*
X10670786Y-12802214D01*
X10699357Y-12787929D01*
X10713643Y-12759357D01*
X10713643Y-12745071D01*
X10699357Y-12716500D01*
X10670786Y-12702214D01*
X10627929Y-12702214D01*
X10599357Y-12687929D01*
X10585071Y-12659357D01*
X10585071Y-12645071D01*
X10599357Y-12616500D01*
X10627929Y-12602214D01*
X10670786Y-12602214D01*
X10699357Y-12616500D01*
X10813643Y-12916500D02*
X10827929Y-12902214D01*
X10856500Y-12859357D01*
X10870786Y-12830786D01*
X10885071Y-12787929D01*
X10899357Y-12716500D01*
X10899357Y-12659357D01*
X10885071Y-12587929D01*
X10870786Y-12545071D01*
X10856500Y-12516500D01*
X10827929Y-12473643D01*
X10813643Y-12459357D01*
X4015860Y-13021860D02*
X4015860Y-13103140D01*
X3975220Y-13062500D02*
X4056500Y-13062500D01*
X4385071Y-12898214D02*
X4413643Y-12898214D01*
X4442214Y-12912500D01*
X4456500Y-12926786D01*
X4470786Y-12955357D01*
X4485071Y-13012500D01*
X4485071Y-13083929D01*
X4470786Y-13141071D01*
X4456500Y-13169643D01*
X4442214Y-13183929D01*
X4413643Y-13198214D01*
X4385071Y-13198214D01*
X4356500Y-13183929D01*
X4342214Y-13169643D01*
X4327929Y-13141071D01*
X4313643Y-13083929D01*
X4313643Y-13012500D01*
X4327929Y-12955357D01*
X4342214Y-12926786D01*
X4356500Y-12912500D01*
X4385071Y-12898214D01*
X4613643Y-13169643D02*
X4627929Y-13183929D01*
X4613643Y-13198214D01*
X4599357Y-13183929D01*
X4613643Y-13169643D01*
X4613643Y-13198214D01*
X4799357Y-13026786D02*
X4770786Y-13012500D01*
X4756500Y-12998214D01*
X4742214Y-12969643D01*
X4742214Y-12955357D01*
X4756500Y-12926786D01*
X4770786Y-12912500D01*
X4799357Y-12898214D01*
X4856500Y-12898214D01*
X4885071Y-12912500D01*
X4899357Y-12926786D01*
X4913643Y-12955357D01*
X4913643Y-12969643D01*
X4899357Y-12998214D01*
X4885071Y-13012500D01*
X4856500Y-13026786D01*
X4799357Y-13026786D01*
X4770786Y-13041071D01*
X4756500Y-13055357D01*
X4742214Y-13083929D01*
X4742214Y-13141071D01*
X4756500Y-13169643D01*
X4770786Y-13183929D01*
X4799357Y-13198214D01*
X4856500Y-13198214D01*
X4885071Y-13183929D01*
X4899357Y-13169643D01*
X4913643Y-13141071D01*
X4913643Y-13083929D01*
X4899357Y-13055357D01*
X4885071Y-13041071D01*
X4856500Y-13026786D01*
X5199357Y-13198214D02*
X5027929Y-13198214D01*
X5113643Y-13198214D02*
X5113643Y-12898214D01*
X5085071Y-12941071D01*
X5056500Y-12969643D01*
X5027929Y-12983929D01*
X5327929Y-13198214D02*
X5327929Y-12998214D01*
X5327929Y-13026786D02*
X5342214Y-13012500D01*
X5370786Y-12998214D01*
X5413643Y-12998214D01*
X5442214Y-13012500D01*
X5456500Y-13041071D01*
X5456500Y-13198214D01*
X5456500Y-13041071D02*
X5470786Y-13012500D01*
X5499357Y-12998214D01*
X5542214Y-12998214D01*
X5570786Y-13012500D01*
X5585071Y-13041071D01*
X5585071Y-13198214D01*
X5727928Y-13198214D02*
X5727928Y-12998214D01*
X5727928Y-13026786D02*
X5742214Y-13012500D01*
X5770786Y-12998214D01*
X5813643Y-12998214D01*
X5842214Y-13012500D01*
X5856500Y-13041071D01*
X5856500Y-13198214D01*
X5856500Y-13041071D02*
X5870786Y-13012500D01*
X5899357Y-12998214D01*
X5942214Y-12998214D01*
X5970786Y-13012500D01*
X5985071Y-13041071D01*
X5985071Y-13198214D01*
X6570786Y-12883929D02*
X6313643Y-13269643D01*
X6956500Y-12898214D02*
X6985071Y-12898214D01*
X7013643Y-12912500D01*
X7027928Y-12926786D01*
X7042214Y-12955357D01*
X7056500Y-13012500D01*
X7056500Y-13083929D01*
X7042214Y-13141071D01*
X7027928Y-13169643D01*
X7013643Y-13183929D01*
X6985071Y-13198214D01*
X6956500Y-13198214D01*
X6927928Y-13183929D01*
X6913643Y-13169643D01*
X6899357Y-13141071D01*
X6885071Y-13083929D01*
X6885071Y-13012500D01*
X6899357Y-12955357D01*
X6913643Y-12926786D01*
X6927928Y-12912500D01*
X6956500Y-12898214D01*
X7185071Y-13169643D02*
X7199357Y-13183929D01*
X7185071Y-13198214D01*
X7170786Y-13183929D01*
X7185071Y-13169643D01*
X7185071Y-13198214D01*
X7385071Y-12898214D02*
X7413643Y-12898214D01*
X7442214Y-12912500D01*
X7456500Y-12926786D01*
X7470785Y-12955357D01*
X7485071Y-13012500D01*
X7485071Y-13083929D01*
X7470785Y-13141071D01*
X7456500Y-13169643D01*
X7442214Y-13183929D01*
X7413643Y-13198214D01*
X7385071Y-13198214D01*
X7356500Y-13183929D01*
X7342214Y-13169643D01*
X7327928Y-13141071D01*
X7313643Y-13083929D01*
X7313643Y-13012500D01*
X7327928Y-12955357D01*
X7342214Y-12926786D01*
X7356500Y-12912500D01*
X7385071Y-12898214D01*
X7585071Y-12898214D02*
X7770785Y-12898214D01*
X7670785Y-13012500D01*
X7713643Y-13012500D01*
X7742214Y-13026786D01*
X7756500Y-13041071D01*
X7770785Y-13069643D01*
X7770785Y-13141071D01*
X7756500Y-13169643D01*
X7742214Y-13183929D01*
X7713643Y-13198214D01*
X7627928Y-13198214D01*
X7599357Y-13183929D01*
X7585071Y-13169643D01*
X7885071Y-12926786D02*
X7899357Y-12912500D01*
X7927928Y-12898214D01*
X7999357Y-12898214D01*
X8027928Y-12912500D01*
X8042214Y-12926786D01*
X8056500Y-12955357D01*
X8056500Y-12983929D01*
X8042214Y-13026786D01*
X7870785Y-13198214D01*
X8056500Y-13198214D01*
X8170786Y-12898214D02*
X8170786Y-12955357D01*
X8285071Y-12898214D02*
X8285071Y-12955357D01*
X8727928Y-13312500D02*
X8713643Y-13298214D01*
X8685071Y-13255357D01*
X8670786Y-13226786D01*
X8656500Y-13183929D01*
X8642214Y-13112500D01*
X8642214Y-13055357D01*
X8656500Y-12983929D01*
X8670786Y-12941071D01*
X8685071Y-12912500D01*
X8713643Y-12869643D01*
X8727928Y-12855357D01*
X8827928Y-12926786D02*
X8842214Y-12912500D01*
X8870786Y-12898214D01*
X8942214Y-12898214D01*
X8970786Y-12912500D01*
X8985071Y-12926786D01*
X8999357Y-12955357D01*
X8999357Y-12983929D01*
X8985071Y-13026786D01*
X8813643Y-13198214D01*
X8999357Y-13198214D01*
X9256500Y-12998214D02*
X9256500Y-13198214D01*
X9185071Y-12883929D02*
X9113643Y-13098214D01*
X9299357Y-13098214D01*
X9642214Y-13198214D02*
X9642214Y-12898214D01*
X9770786Y-13198214D02*
X9770786Y-13041071D01*
X9756500Y-13012500D01*
X9727928Y-12998214D01*
X9685071Y-12998214D01*
X9656500Y-13012500D01*
X9642214Y-13026786D01*
X9956500Y-13198214D02*
X9927928Y-13183929D01*
X9913643Y-13169643D01*
X9899357Y-13141071D01*
X9899357Y-13055357D01*
X9913643Y-13026786D01*
X9927928Y-13012500D01*
X9956500Y-12998214D01*
X9999357Y-12998214D01*
X10027928Y-13012500D01*
X10042214Y-13026786D01*
X10056500Y-13055357D01*
X10056500Y-13141071D01*
X10042214Y-13169643D01*
X10027928Y-13183929D01*
X9999357Y-13198214D01*
X9956500Y-13198214D01*
X10227928Y-13198214D02*
X10199357Y-13183929D01*
X10185071Y-13155357D01*
X10185071Y-12898214D01*
X10456500Y-13183929D02*
X10427929Y-13198214D01*
X10370786Y-13198214D01*
X10342214Y-13183929D01*
X10327929Y-13155357D01*
X10327929Y-13041071D01*
X10342214Y-13012500D01*
X10370786Y-12998214D01*
X10427929Y-12998214D01*
X10456500Y-13012500D01*
X10470786Y-13041071D01*
X10470786Y-13069643D01*
X10327929Y-13098214D01*
X10585071Y-13183929D02*
X10613643Y-13198214D01*
X10670786Y-13198214D01*
X10699357Y-13183929D01*
X10713643Y-13155357D01*
X10713643Y-13141071D01*
X10699357Y-13112500D01*
X10670786Y-13098214D01*
X10627929Y-13098214D01*
X10599357Y-13083929D01*
X10585071Y-13055357D01*
X10585071Y-13041071D01*
X10599357Y-13012500D01*
X10627929Y-12998214D01*
X10670786Y-12998214D01*
X10699357Y-13012500D01*
X10813643Y-13312500D02*
X10827929Y-13298214D01*
X10856500Y-13255357D01*
X10870786Y-13226786D01*
X10885071Y-13183929D01*
X10899357Y-13112500D01*
X10899357Y-13055357D01*
X10885071Y-12983929D01*
X10870786Y-12941071D01*
X10856500Y-12912500D01*
X10827929Y-12869643D01*
X10813643Y-12855357D01*
X4043320Y-13490320D02*
X4043320Y-13426680D01*
X3979680Y-13426680D01*
X3979680Y-13490320D01*
X4043320Y-13490320D01*
X4385071Y-13294214D02*
X4413643Y-13294214D01*
X4442214Y-13308500D01*
X4456500Y-13322786D01*
X4470786Y-13351357D01*
X4485071Y-13408500D01*
X4485071Y-13479929D01*
X4470786Y-13537071D01*
X4456500Y-13565643D01*
X4442214Y-13579929D01*
X4413643Y-13594214D01*
X4385071Y-13594214D01*
X4356500Y-13579929D01*
X4342214Y-13565643D01*
X4327929Y-13537071D01*
X4313643Y-13479929D01*
X4313643Y-13408500D01*
X4327929Y-13351357D01*
X4342214Y-13322786D01*
X4356500Y-13308500D01*
X4385071Y-13294214D01*
X4613643Y-13565643D02*
X4627929Y-13579929D01*
X4613643Y-13594214D01*
X4599357Y-13579929D01*
X4613643Y-13565643D01*
X4613643Y-13594214D01*
X4770786Y-13594214D02*
X4827928Y-13594214D01*
X4856500Y-13579929D01*
X4870786Y-13565643D01*
X4899357Y-13522786D01*
X4913643Y-13465643D01*
X4913643Y-13351357D01*
X4899357Y-13322786D01*
X4885071Y-13308500D01*
X4856500Y-13294214D01*
X4799357Y-13294214D01*
X4770786Y-13308500D01*
X4756500Y-13322786D01*
X4742214Y-13351357D01*
X4742214Y-13422786D01*
X4756500Y-13451357D01*
X4770786Y-13465643D01*
X4799357Y-13479929D01*
X4856500Y-13479929D01*
X4885071Y-13465643D01*
X4899357Y-13451357D01*
X4913643Y-13422786D01*
X5099357Y-13294214D02*
X5127929Y-13294214D01*
X5156500Y-13308500D01*
X5170786Y-13322786D01*
X5185071Y-13351357D01*
X5199357Y-13408500D01*
X5199357Y-13479929D01*
X5185071Y-13537071D01*
X5170786Y-13565643D01*
X5156500Y-13579929D01*
X5127929Y-13594214D01*
X5099357Y-13594214D01*
X5070786Y-13579929D01*
X5056500Y-13565643D01*
X5042214Y-13537071D01*
X5027929Y-13479929D01*
X5027929Y-13408500D01*
X5042214Y-13351357D01*
X5056500Y-13322786D01*
X5070786Y-13308500D01*
X5099357Y-13294214D01*
X5327929Y-13594214D02*
X5327929Y-13394214D01*
X5327929Y-13422786D02*
X5342214Y-13408500D01*
X5370786Y-13394214D01*
X5413643Y-13394214D01*
X5442214Y-13408500D01*
X5456500Y-13437071D01*
X5456500Y-13594214D01*
X5456500Y-13437071D02*
X5470786Y-13408500D01*
X5499357Y-13394214D01*
X5542214Y-13394214D01*
X5570786Y-13408500D01*
X5585071Y-13437071D01*
X5585071Y-13594214D01*
X5727928Y-13594214D02*
X5727928Y-13394214D01*
X5727928Y-13422786D02*
X5742214Y-13408500D01*
X5770786Y-13394214D01*
X5813643Y-13394214D01*
X5842214Y-13408500D01*
X5856500Y-13437071D01*
X5856500Y-13594214D01*
X5856500Y-13437071D02*
X5870786Y-13408500D01*
X5899357Y-13394214D01*
X5942214Y-13394214D01*
X5970786Y-13408500D01*
X5985071Y-13437071D01*
X5985071Y-13594214D01*
X6570786Y-13279929D02*
X6313643Y-13665643D01*
X6956500Y-13294214D02*
X6985071Y-13294214D01*
X7013643Y-13308500D01*
X7027928Y-13322786D01*
X7042214Y-13351357D01*
X7056500Y-13408500D01*
X7056500Y-13479929D01*
X7042214Y-13537071D01*
X7027928Y-13565643D01*
X7013643Y-13579929D01*
X6985071Y-13594214D01*
X6956500Y-13594214D01*
X6927928Y-13579929D01*
X6913643Y-13565643D01*
X6899357Y-13537071D01*
X6885071Y-13479929D01*
X6885071Y-13408500D01*
X6899357Y-13351357D01*
X6913643Y-13322786D01*
X6927928Y-13308500D01*
X6956500Y-13294214D01*
X7185071Y-13565643D02*
X7199357Y-13579929D01*
X7185071Y-13594214D01*
X7170786Y-13579929D01*
X7185071Y-13565643D01*
X7185071Y-13594214D01*
X7385071Y-13294214D02*
X7413643Y-13294214D01*
X7442214Y-13308500D01*
X7456500Y-13322786D01*
X7470785Y-13351357D01*
X7485071Y-13408500D01*
X7485071Y-13479929D01*
X7470785Y-13537071D01*
X7456500Y-13565643D01*
X7442214Y-13579929D01*
X7413643Y-13594214D01*
X7385071Y-13594214D01*
X7356500Y-13579929D01*
X7342214Y-13565643D01*
X7327928Y-13537071D01*
X7313643Y-13479929D01*
X7313643Y-13408500D01*
X7327928Y-13351357D01*
X7342214Y-13322786D01*
X7356500Y-13308500D01*
X7385071Y-13294214D01*
X7585071Y-13294214D02*
X7770785Y-13294214D01*
X7670785Y-13408500D01*
X7713643Y-13408500D01*
X7742214Y-13422786D01*
X7756500Y-13437071D01*
X7770785Y-13465643D01*
X7770785Y-13537071D01*
X7756500Y-13565643D01*
X7742214Y-13579929D01*
X7713643Y-13594214D01*
X7627928Y-13594214D01*
X7599357Y-13579929D01*
X7585071Y-13565643D01*
X8042214Y-13294214D02*
X7899357Y-13294214D01*
X7885071Y-13437071D01*
X7899357Y-13422786D01*
X7927928Y-13408500D01*
X7999357Y-13408500D01*
X8027928Y-13422786D01*
X8042214Y-13437071D01*
X8056500Y-13465643D01*
X8056500Y-13537071D01*
X8042214Y-13565643D01*
X8027928Y-13579929D01*
X7999357Y-13594214D01*
X7927928Y-13594214D01*
X7899357Y-13579929D01*
X7885071Y-13565643D01*
X8170786Y-13294214D02*
X8170786Y-13351357D01*
X8285071Y-13294214D02*
X8285071Y-13351357D01*
X8727928Y-13708500D02*
X8713643Y-13694214D01*
X8685071Y-13651357D01*
X8670786Y-13622786D01*
X8656500Y-13579929D01*
X8642214Y-13508500D01*
X8642214Y-13451357D01*
X8656500Y-13379929D01*
X8670786Y-13337071D01*
X8685071Y-13308500D01*
X8713643Y-13265643D01*
X8727928Y-13251357D01*
X8827928Y-13322786D02*
X8842214Y-13308500D01*
X8870786Y-13294214D01*
X8942214Y-13294214D01*
X8970786Y-13308500D01*
X8985071Y-13322786D01*
X8999357Y-13351357D01*
X8999357Y-13379929D01*
X8985071Y-13422786D01*
X8813643Y-13594214D01*
X8999357Y-13594214D01*
X9185071Y-13294214D02*
X9213643Y-13294214D01*
X9242214Y-13308500D01*
X9256500Y-13322786D01*
X9270786Y-13351357D01*
X9285071Y-13408500D01*
X9285071Y-13479929D01*
X9270786Y-13537071D01*
X9256500Y-13565643D01*
X9242214Y-13579929D01*
X9213643Y-13594214D01*
X9185071Y-13594214D01*
X9156500Y-13579929D01*
X9142214Y-13565643D01*
X9127928Y-13537071D01*
X9113643Y-13479929D01*
X9113643Y-13408500D01*
X9127928Y-13351357D01*
X9142214Y-13322786D01*
X9156500Y-13308500D01*
X9185071Y-13294214D01*
X9642214Y-13594214D02*
X9642214Y-13294214D01*
X9770786Y-13594214D02*
X9770786Y-13437071D01*
X9756500Y-13408500D01*
X9727928Y-13394214D01*
X9685071Y-13394214D01*
X9656500Y-13408500D01*
X9642214Y-13422786D01*
X9956500Y-13594214D02*
X9927928Y-13579929D01*
X9913643Y-13565643D01*
X9899357Y-13537071D01*
X9899357Y-13451357D01*
X9913643Y-13422786D01*
X9927928Y-13408500D01*
X9956500Y-13394214D01*
X9999357Y-13394214D01*
X10027928Y-13408500D01*
X10042214Y-13422786D01*
X10056500Y-13451357D01*
X10056500Y-13537071D01*
X10042214Y-13565643D01*
X10027928Y-13579929D01*
X9999357Y-13594214D01*
X9956500Y-13594214D01*
X10227928Y-13594214D02*
X10199357Y-13579929D01*
X10185071Y-13551357D01*
X10185071Y-13294214D01*
X10456500Y-13579929D02*
X10427929Y-13594214D01*
X10370786Y-13594214D01*
X10342214Y-13579929D01*
X10327929Y-13551357D01*
X10327929Y-13437071D01*
X10342214Y-13408500D01*
X10370786Y-13394214D01*
X10427929Y-13394214D01*
X10456500Y-13408500D01*
X10470786Y-13437071D01*
X10470786Y-13465643D01*
X10327929Y-13494214D01*
X10585071Y-13579929D02*
X10613643Y-13594214D01*
X10670786Y-13594214D01*
X10699357Y-13579929D01*
X10713643Y-13551357D01*
X10713643Y-13537071D01*
X10699357Y-13508500D01*
X10670786Y-13494214D01*
X10627929Y-13494214D01*
X10599357Y-13479929D01*
X10585071Y-13451357D01*
X10585071Y-13437071D01*
X10599357Y-13408500D01*
X10627929Y-13394214D01*
X10670786Y-13394214D01*
X10699357Y-13408500D01*
X10813643Y-13708500D02*
X10827929Y-13694214D01*
X10856500Y-13651357D01*
X10870786Y-13622786D01*
X10885071Y-13579929D01*
X10899357Y-13508500D01*
X10899357Y-13451357D01*
X10885071Y-13379929D01*
X10870786Y-13337071D01*
X10856500Y-13308500D01*
X10827929Y-13265643D01*
X10813643Y-13251357D01*
X3951500Y-13959500D02*
X4056500Y-13854500D01*
X3951500Y-13749500D01*
X3846500Y-13854500D01*
X3951500Y-13959500D01*
X4313643Y-13718786D02*
X4327929Y-13704500D01*
X4356500Y-13690214D01*
X4427929Y-13690214D01*
X4456500Y-13704500D01*
X4470786Y-13718786D01*
X4485071Y-13747357D01*
X4485071Y-13775929D01*
X4470786Y-13818786D01*
X4299357Y-13990214D01*
X4485071Y-13990214D01*
X4613643Y-13961643D02*
X4627929Y-13975929D01*
X4613643Y-13990214D01*
X4599357Y-13975929D01*
X4613643Y-13961643D01*
X4613643Y-13990214D01*
X4913643Y-13990214D02*
X4742214Y-13990214D01*
X4827928Y-13990214D02*
X4827928Y-13690214D01*
X4799357Y-13733071D01*
X4770786Y-13761643D01*
X4742214Y-13775929D01*
X5099357Y-13690214D02*
X5127929Y-13690214D01*
X5156500Y-13704500D01*
X5170786Y-13718786D01*
X5185071Y-13747357D01*
X5199357Y-13804500D01*
X5199357Y-13875929D01*
X5185071Y-13933071D01*
X5170786Y-13961643D01*
X5156500Y-13975929D01*
X5127929Y-13990214D01*
X5099357Y-13990214D01*
X5070786Y-13975929D01*
X5056500Y-13961643D01*
X5042214Y-13933071D01*
X5027929Y-13875929D01*
X5027929Y-13804500D01*
X5042214Y-13747357D01*
X5056500Y-13718786D01*
X5070786Y-13704500D01*
X5099357Y-13690214D01*
X5327929Y-13990214D02*
X5327929Y-13790214D01*
X5327929Y-13818786D02*
X5342214Y-13804500D01*
X5370786Y-13790214D01*
X5413643Y-13790214D01*
X5442214Y-13804500D01*
X5456500Y-13833071D01*
X5456500Y-13990214D01*
X5456500Y-13833071D02*
X5470786Y-13804500D01*
X5499357Y-13790214D01*
X5542214Y-13790214D01*
X5570786Y-13804500D01*
X5585071Y-13833071D01*
X5585071Y-13990214D01*
X5727928Y-13990214D02*
X5727928Y-13790214D01*
X5727928Y-13818786D02*
X5742214Y-13804500D01*
X5770786Y-13790214D01*
X5813643Y-13790214D01*
X5842214Y-13804500D01*
X5856500Y-13833071D01*
X5856500Y-13990214D01*
X5856500Y-13833071D02*
X5870786Y-13804500D01*
X5899357Y-13790214D01*
X5942214Y-13790214D01*
X5970786Y-13804500D01*
X5985071Y-13833071D01*
X5985071Y-13990214D01*
X6570786Y-13675929D02*
X6313643Y-14061643D01*
X6956500Y-13690214D02*
X6985071Y-13690214D01*
X7013643Y-13704500D01*
X7027928Y-13718786D01*
X7042214Y-13747357D01*
X7056500Y-13804500D01*
X7056500Y-13875929D01*
X7042214Y-13933071D01*
X7027928Y-13961643D01*
X7013643Y-13975929D01*
X6985071Y-13990214D01*
X6956500Y-13990214D01*
X6927928Y-13975929D01*
X6913643Y-13961643D01*
X6899357Y-13933071D01*
X6885071Y-13875929D01*
X6885071Y-13804500D01*
X6899357Y-13747357D01*
X6913643Y-13718786D01*
X6927928Y-13704500D01*
X6956500Y-13690214D01*
X7185071Y-13961643D02*
X7199357Y-13975929D01*
X7185071Y-13990214D01*
X7170786Y-13975929D01*
X7185071Y-13961643D01*
X7185071Y-13990214D01*
X7385071Y-13690214D02*
X7413643Y-13690214D01*
X7442214Y-13704500D01*
X7456500Y-13718786D01*
X7470785Y-13747357D01*
X7485071Y-13804500D01*
X7485071Y-13875929D01*
X7470785Y-13933071D01*
X7456500Y-13961643D01*
X7442214Y-13975929D01*
X7413643Y-13990214D01*
X7385071Y-13990214D01*
X7356500Y-13975929D01*
X7342214Y-13961643D01*
X7327928Y-13933071D01*
X7313643Y-13875929D01*
X7313643Y-13804500D01*
X7327928Y-13747357D01*
X7342214Y-13718786D01*
X7356500Y-13704500D01*
X7385071Y-13690214D01*
X7656500Y-13818786D02*
X7627928Y-13804500D01*
X7613643Y-13790214D01*
X7599357Y-13761643D01*
X7599357Y-13747357D01*
X7613643Y-13718786D01*
X7627928Y-13704500D01*
X7656500Y-13690214D01*
X7713643Y-13690214D01*
X7742214Y-13704500D01*
X7756500Y-13718786D01*
X7770785Y-13747357D01*
X7770785Y-13761643D01*
X7756500Y-13790214D01*
X7742214Y-13804500D01*
X7713643Y-13818786D01*
X7656500Y-13818786D01*
X7627928Y-13833071D01*
X7613643Y-13847357D01*
X7599357Y-13875929D01*
X7599357Y-13933071D01*
X7613643Y-13961643D01*
X7627928Y-13975929D01*
X7656500Y-13990214D01*
X7713643Y-13990214D01*
X7742214Y-13975929D01*
X7756500Y-13961643D01*
X7770785Y-13933071D01*
X7770785Y-13875929D01*
X7756500Y-13847357D01*
X7742214Y-13833071D01*
X7713643Y-13818786D01*
X7870785Y-13690214D02*
X8056500Y-13690214D01*
X7956500Y-13804500D01*
X7999357Y-13804500D01*
X8027928Y-13818786D01*
X8042214Y-13833071D01*
X8056500Y-13861643D01*
X8056500Y-13933071D01*
X8042214Y-13961643D01*
X8027928Y-13975929D01*
X7999357Y-13990214D01*
X7913643Y-13990214D01*
X7885071Y-13975929D01*
X7870785Y-13961643D01*
X8170786Y-13690214D02*
X8170786Y-13747357D01*
X8285071Y-13690214D02*
X8285071Y-13747357D01*
X8727928Y-14104500D02*
X8713643Y-14090214D01*
X8685071Y-14047357D01*
X8670786Y-14018786D01*
X8656500Y-13975929D01*
X8642214Y-13904500D01*
X8642214Y-13847357D01*
X8656500Y-13775929D01*
X8670786Y-13733071D01*
X8685071Y-13704500D01*
X8713643Y-13661643D01*
X8727928Y-13647357D01*
X8985071Y-13690214D02*
X8842214Y-13690214D01*
X8827928Y-13833071D01*
X8842214Y-13818786D01*
X8870786Y-13804500D01*
X8942214Y-13804500D01*
X8970786Y-13818786D01*
X8985071Y-13833071D01*
X8999357Y-13861643D01*
X8999357Y-13933071D01*
X8985071Y-13961643D01*
X8970786Y-13975929D01*
X8942214Y-13990214D01*
X8870786Y-13990214D01*
X8842214Y-13975929D01*
X8827928Y-13961643D01*
X9285071Y-13990214D02*
X9113643Y-13990214D01*
X9199357Y-13990214D02*
X9199357Y-13690214D01*
X9170786Y-13733071D01*
X9142214Y-13761643D01*
X9113643Y-13775929D01*
X9642214Y-13990214D02*
X9642214Y-13690214D01*
X9770786Y-13990214D02*
X9770786Y-13833071D01*
X9756500Y-13804500D01*
X9727928Y-13790214D01*
X9685071Y-13790214D01*
X9656500Y-13804500D01*
X9642214Y-13818786D01*
X9956500Y-13990214D02*
X9927928Y-13975929D01*
X9913643Y-13961643D01*
X9899357Y-13933071D01*
X9899357Y-13847357D01*
X9913643Y-13818786D01*
X9927928Y-13804500D01*
X9956500Y-13790214D01*
X9999357Y-13790214D01*
X10027928Y-13804500D01*
X10042214Y-13818786D01*
X10056500Y-13847357D01*
X10056500Y-13933071D01*
X10042214Y-13961643D01*
X10027928Y-13975929D01*
X9999357Y-13990214D01*
X9956500Y-13990214D01*
X10227928Y-13990214D02*
X10199357Y-13975929D01*
X10185071Y-13947357D01*
X10185071Y-13690214D01*
X10456500Y-13975929D02*
X10427929Y-13990214D01*
X10370786Y-13990214D01*
X10342214Y-13975929D01*
X10327929Y-13947357D01*
X10327929Y-13833071D01*
X10342214Y-13804500D01*
X10370786Y-13790214D01*
X10427929Y-13790214D01*
X10456500Y-13804500D01*
X10470786Y-13833071D01*
X10470786Y-13861643D01*
X10327929Y-13890214D01*
X10585071Y-13975929D02*
X10613643Y-13990214D01*
X10670786Y-13990214D01*
X10699357Y-13975929D01*
X10713643Y-13947357D01*
X10713643Y-13933071D01*
X10699357Y-13904500D01*
X10670786Y-13890214D01*
X10627929Y-13890214D01*
X10599357Y-13875929D01*
X10585071Y-13847357D01*
X10585071Y-13833071D01*
X10599357Y-13804500D01*
X10627929Y-13790214D01*
X10670786Y-13790214D01*
X10699357Y-13804500D01*
X10813643Y-14104500D02*
X10827929Y-14090214D01*
X10856500Y-14047357D01*
X10870786Y-14018786D01*
X10885071Y-13975929D01*
X10899357Y-13904500D01*
X10899357Y-13847357D01*
X10885071Y-13775929D01*
X10870786Y-13733071D01*
X10856500Y-13704500D01*
X10827929Y-13661643D01*
X10813643Y-13647357D01*
M02*
