G04 #@! TF.FileFunction,Copper,L1,Top,Signal*
%FSLAX46Y46*%
G04 Gerber Fmt 4.6, Leading zero omitted, Abs format (unit mm)*
G04 Created by KiCad (PCBNEW 4.0.5) date 01/24/17 10:53:33*
%MOMM*%
%LPD*%
G01*
G04 APERTURE LIST*
%ADD10C,0.100000*%
%ADD11C,4.000000*%
%ADD12R,0.750000X1.200000*%
%ADD13R,1.600000X1.600000*%
%ADD14O,1.600000X1.600000*%
%ADD15C,1.600000*%
%ADD16C,1.524000*%
%ADD17R,1.850000X1.850000*%
%ADD18C,1.850000*%
%ADD19C,1.016000*%
%ADD20C,1.905000*%
%ADD21C,1.000000*%
%ADD22C,1.016000*%
%ADD23C,0.226060*%
G04 APERTURE END LIST*
D10*
D11*
X145667600Y-58724800D03*
X155167600Y-58724800D03*
X164667600Y-58724800D03*
X174167600Y-58724800D03*
X183667600Y-58724800D03*
X193167600Y-58724800D03*
X202667600Y-58724800D03*
X212167600Y-58724800D03*
X65708400Y-58775600D03*
X75208400Y-58775600D03*
X84708400Y-58775600D03*
X94208400Y-58775600D03*
X103708400Y-58775600D03*
X113208400Y-58775600D03*
X122708400Y-58775600D03*
X132208400Y-58775600D03*
X65606800Y-39014400D03*
X75106800Y-39014400D03*
X84606800Y-39014400D03*
X94106800Y-39014400D03*
X103606800Y-39014400D03*
X113106800Y-39014400D03*
X122606800Y-39014400D03*
X132106800Y-39014400D03*
X214630000Y-93320000D03*
X214630000Y-83820000D03*
X214630000Y-74320000D03*
D12*
X201930000Y-89850000D03*
X201930000Y-87950000D03*
X201930000Y-78420000D03*
X201930000Y-76520000D03*
D13*
X100330000Y-81280000D03*
D14*
X92710000Y-88900000D03*
X97790000Y-81280000D03*
X95250000Y-88900000D03*
X95250000Y-81280000D03*
X97790000Y-88900000D03*
X92710000Y-81280000D03*
X100330000Y-88900000D03*
D13*
X128270000Y-81280000D03*
D14*
X120650000Y-88900000D03*
X125730000Y-81280000D03*
X123190000Y-88900000D03*
X123190000Y-81280000D03*
X125730000Y-88900000D03*
X120650000Y-81280000D03*
X128270000Y-88900000D03*
D13*
X157480000Y-81280000D03*
D14*
X149860000Y-88900000D03*
X154940000Y-81280000D03*
X152400000Y-88900000D03*
X152400000Y-81280000D03*
X154940000Y-88900000D03*
X149860000Y-81280000D03*
X157480000Y-88900000D03*
D13*
X185420000Y-81280000D03*
D14*
X177800000Y-88900000D03*
X182880000Y-81280000D03*
X180340000Y-88900000D03*
X180340000Y-81280000D03*
X182880000Y-88900000D03*
X177800000Y-81280000D03*
X185420000Y-88900000D03*
D11*
X92780000Y-104340000D03*
X102280000Y-104340000D03*
X111780000Y-104340000D03*
X121280000Y-104340000D03*
X130780000Y-104340000D03*
X140280000Y-104340000D03*
X149780000Y-104340000D03*
X159280000Y-104340000D03*
X168780000Y-104340000D03*
X178280000Y-104340000D03*
X187780000Y-104340000D03*
X197280000Y-104340000D03*
X49530000Y-69620000D03*
X49530000Y-79120000D03*
X49530000Y-88620000D03*
X49530000Y-98120000D03*
D15*
X105410000Y-90170000D03*
X110410000Y-90170000D03*
X87630000Y-76200000D03*
X92630000Y-76200000D03*
X133350000Y-90170000D03*
X138350000Y-90170000D03*
X115570000Y-76200000D03*
X120570000Y-76200000D03*
X161290000Y-90170000D03*
X166290000Y-90170000D03*
X144780000Y-76200000D03*
X149780000Y-76200000D03*
X189230000Y-90170000D03*
X194230000Y-90170000D03*
X172720000Y-76200000D03*
X177720000Y-76200000D03*
D16*
X109220000Y-78740000D03*
X109220000Y-81280000D03*
X109220000Y-76200000D03*
X138430000Y-78740000D03*
X138430000Y-81280000D03*
X138430000Y-76200000D03*
X166370000Y-78740000D03*
X166370000Y-81280000D03*
X166370000Y-76200000D03*
X195580000Y-78740000D03*
X195580000Y-81280000D03*
X195580000Y-76200000D03*
X81280000Y-95250000D03*
X81280000Y-97790000D03*
X81280000Y-92710000D03*
X74930000Y-87630000D03*
X74930000Y-90170000D03*
X74930000Y-85090000D03*
X68580000Y-80010000D03*
X68580000Y-82550000D03*
X68580000Y-77470000D03*
X62230000Y-72390000D03*
X62230000Y-74930000D03*
X62230000Y-69850000D03*
D17*
X102870000Y-76200000D03*
D18*
X100370000Y-76200000D03*
D17*
X132080000Y-76200000D03*
D18*
X129580000Y-76200000D03*
D17*
X160020000Y-76200000D03*
D18*
X157520000Y-76200000D03*
D17*
X189230000Y-76200000D03*
D18*
X186730000Y-76200000D03*
D11*
X145820000Y-39014400D03*
X155320000Y-39014400D03*
X164820000Y-39014400D03*
X174320000Y-39014400D03*
X183820000Y-39014400D03*
X193320000Y-39014400D03*
X202820000Y-39014400D03*
X212320000Y-39014400D03*
D17*
X87630000Y-91389200D03*
D18*
X87630000Y-88889200D03*
X87630000Y-86389200D03*
D17*
X115570000Y-91389200D03*
D18*
X115570000Y-88889200D03*
X115570000Y-86389200D03*
D17*
X144830800Y-91389200D03*
D18*
X144830800Y-88889200D03*
X144830800Y-86389200D03*
D17*
X172770800Y-91389200D03*
D18*
X172770800Y-88889200D03*
X172770800Y-86389200D03*
D19*
X201930000Y-93980000D03*
X201930000Y-85090000D03*
X201930000Y-73660000D03*
D20*
X201930000Y-89850000D02*
X201930000Y-93980000D01*
D21*
X201930000Y-78420000D02*
X201930000Y-85090000D01*
X201930000Y-87950000D02*
X201930000Y-85090000D01*
D20*
X201930000Y-76520000D02*
X201930000Y-73660000D01*
D22*
X109220000Y-76200000D02*
X102870000Y-76200000D01*
X100370000Y-76200000D02*
X100370000Y-81240000D01*
X100370000Y-81240000D02*
X100330000Y-81280000D01*
X132080000Y-76200000D02*
X138430000Y-76200000D01*
X129580000Y-76200000D02*
X129580000Y-79970000D01*
X129580000Y-79970000D02*
X128270000Y-81280000D01*
X160020000Y-76200000D02*
X166370000Y-76200000D01*
X157520000Y-76200000D02*
X157520000Y-81240000D01*
X157520000Y-81240000D02*
X157480000Y-81280000D01*
X189230000Y-76200000D02*
X195580000Y-76200000D01*
X186730000Y-76200000D02*
X186730000Y-79970000D01*
X186730000Y-79970000D02*
X185420000Y-81280000D01*
X109220000Y-78740000D02*
X107950000Y-78740000D01*
X101600000Y-88900000D02*
X104140000Y-86360000D01*
X104140000Y-86360000D02*
X104140000Y-81280000D01*
X104140000Y-81280000D02*
X106680000Y-78740000D01*
X106680000Y-78740000D02*
X107950000Y-78740000D01*
X101600000Y-88900000D02*
X100330000Y-88900000D01*
X138430000Y-78740000D02*
X135890000Y-78740000D01*
X129540000Y-88900000D02*
X132080000Y-86360000D01*
X132080000Y-86360000D02*
X132080000Y-81280000D01*
X132080000Y-81280000D02*
X134620000Y-78740000D01*
X134620000Y-78740000D02*
X135890000Y-78740000D01*
X129540000Y-88900000D02*
X128270000Y-88900000D01*
X166370000Y-78740000D02*
X165100000Y-78740000D01*
X158750000Y-88900000D02*
X160020000Y-87630000D01*
X160020000Y-87630000D02*
X160020000Y-83820000D01*
X160020000Y-83820000D02*
X163830000Y-80010000D01*
X163830000Y-80010000D02*
X165100000Y-78740000D01*
X165100000Y-78740000D02*
X165100000Y-78740000D01*
X158750000Y-88900000D02*
X157480000Y-88900000D01*
X195580000Y-78740000D02*
X193040000Y-78740000D01*
X186690000Y-88900000D02*
X189230000Y-86360000D01*
X189230000Y-86360000D02*
X189230000Y-81280000D01*
X189230000Y-81280000D02*
X191770000Y-78740000D01*
X191770000Y-78740000D02*
X193040000Y-78740000D01*
X186690000Y-88900000D02*
X185420000Y-88900000D01*
X62230000Y-72390000D02*
X50800000Y-72390000D01*
X50800000Y-72390000D02*
X49530000Y-71120000D01*
X49530000Y-71120000D02*
X49530000Y-69620000D01*
X68580000Y-80010000D02*
X50420000Y-80010000D01*
X50420000Y-80010000D02*
X49530000Y-79120000D01*
X74930000Y-87630000D02*
X50520000Y-87630000D01*
X50520000Y-87630000D02*
X49530000Y-88620000D01*
X81280000Y-95250000D02*
X52400000Y-95250000D01*
X52400000Y-95250000D02*
X49530000Y-98120000D01*
X49860000Y-97790000D02*
X49530000Y-98120000D01*
X84708400Y-62026800D02*
X78459600Y-62026800D01*
X78459600Y-62026800D02*
X75208400Y-58775600D01*
X95250000Y-81280000D02*
X95250000Y-73304400D01*
X84708400Y-62762800D02*
X84708400Y-62026800D01*
X84708400Y-62026800D02*
X84708400Y-58775600D01*
X95250000Y-73304400D02*
X84708400Y-62762800D01*
X94208400Y-61976000D02*
X100508000Y-61976000D01*
X100508000Y-61976000D02*
X103708400Y-58775600D01*
X97790000Y-81280000D02*
X97790000Y-71678800D01*
X94208400Y-68097200D02*
X94208400Y-61976000D01*
X94208400Y-61976000D02*
X94208400Y-58775600D01*
X97790000Y-71678800D02*
X94208400Y-68097200D01*
X155167600Y-58724800D02*
X157530800Y-58724800D01*
X161391403Y-62585403D02*
X161391403Y-62585404D01*
X157530800Y-58724800D02*
X161391403Y-62585403D01*
X152400000Y-81280000D02*
X152400000Y-74117200D01*
X161389200Y-62588000D02*
X161391403Y-62585404D01*
X161391403Y-62585404D02*
X164667600Y-58724800D01*
X161262800Y-62714400D02*
X161389200Y-62588000D01*
X161340800Y-65176400D02*
X161262800Y-62714400D01*
X152400000Y-74117200D02*
X161340800Y-65176400D01*
X183667600Y-58724800D02*
X183667600Y-60375600D01*
X183667600Y-60375600D02*
X181178000Y-62865200D01*
X181178000Y-62865200D02*
X174167600Y-62865200D01*
X154940000Y-81280000D02*
X154940000Y-75082400D01*
X174167600Y-62865200D02*
X174167600Y-58724800D01*
X169570400Y-67462400D02*
X174167600Y-62865200D01*
X162560000Y-67462400D02*
X169570400Y-67462400D01*
X154940000Y-75082400D02*
X162560000Y-67462400D01*
X123190000Y-81280000D02*
X123190000Y-68757200D01*
X123190000Y-68757200D02*
X113208400Y-58775600D01*
X125730000Y-81280000D02*
X125730000Y-67818000D01*
X122708400Y-64796400D02*
X122708400Y-58775600D01*
X125730000Y-67818000D02*
X122708400Y-64796400D01*
X180340000Y-81280000D02*
X180340000Y-75234800D01*
X193167600Y-62407200D02*
X193167600Y-58724800D01*
X180340000Y-75234800D02*
X193167600Y-62407200D01*
X182880000Y-81280000D02*
X182880000Y-75844400D01*
X199111600Y-63018400D02*
X202667600Y-58724800D01*
X199237600Y-63144400D02*
X199111600Y-63018400D01*
X195478400Y-63144400D02*
X199237600Y-63144400D01*
X182880000Y-75844400D02*
X195478400Y-63144400D01*
D20*
X87630000Y-91389200D02*
X87630000Y-99190000D01*
X87630000Y-99190000D02*
X92780000Y-104340000D01*
X92710000Y-104270000D02*
X92780000Y-104340000D01*
D22*
X95250000Y-88900000D02*
X95250000Y-97310000D01*
X95250000Y-97310000D02*
X102280000Y-104340000D01*
D20*
X115570000Y-91389200D02*
X115570000Y-98630000D01*
X115570000Y-98630000D02*
X121280000Y-104340000D01*
X120650000Y-103710000D02*
X121280000Y-104340000D01*
D22*
X123190000Y-88900000D02*
X123190000Y-96750000D01*
X123190000Y-96750000D02*
X130780000Y-104340000D01*
D20*
X144830800Y-91389200D02*
X144830800Y-99390800D01*
X144830800Y-99390800D02*
X149780000Y-104340000D01*
X149860000Y-104260000D02*
X149780000Y-104340000D01*
D22*
X152400000Y-88900000D02*
X152400000Y-97460000D01*
X152400000Y-97460000D02*
X159280000Y-104340000D01*
D20*
X172770800Y-91389200D02*
X172770800Y-98830800D01*
X172770800Y-98830800D02*
X178280000Y-104340000D01*
X177800000Y-103860000D02*
X178280000Y-104340000D01*
D22*
X180340000Y-88900000D02*
X180340000Y-96900000D01*
X180340000Y-96900000D02*
X187780000Y-104340000D01*
D20*
X87630000Y-88889200D02*
X92699200Y-88889200D01*
X92699200Y-88889200D02*
X92710000Y-88900000D01*
X115570000Y-88889200D02*
X120639200Y-88889200D01*
X120639200Y-88889200D02*
X120650000Y-88900000D01*
X144830800Y-88889200D02*
X149849200Y-88889200D01*
X149849200Y-88889200D02*
X149860000Y-88900000D01*
X172770800Y-88889200D02*
X177789200Y-88889200D01*
X177789200Y-88889200D02*
X177800000Y-88900000D01*
D23*
G36*
X220766203Y-54904783D02*
X220866970Y-59691192D01*
X220866970Y-100283182D01*
X212043182Y-109106970D01*
X54656818Y-109106970D01*
X44563030Y-99013182D01*
X44563030Y-98639068D01*
X46908516Y-98639068D01*
X47306703Y-99602755D01*
X48043367Y-100340705D01*
X49006358Y-100740574D01*
X50049068Y-100741484D01*
X51012755Y-100343297D01*
X51750705Y-99606633D01*
X52150574Y-98643642D01*
X52151484Y-97600932D01*
X52003619Y-97243071D01*
X52867660Y-96379030D01*
X80452867Y-96379030D01*
X80495554Y-96421792D01*
X80732019Y-96519981D01*
X80497600Y-96616841D01*
X80108208Y-97005554D01*
X79897211Y-97513691D01*
X79896731Y-98063895D01*
X80106841Y-98572400D01*
X80495554Y-98961792D01*
X81003691Y-99172789D01*
X81553895Y-99173269D01*
X82062400Y-98963159D01*
X82451792Y-98574446D01*
X82662789Y-98066309D01*
X82663269Y-97516105D01*
X82453159Y-97007600D01*
X82064446Y-96618208D01*
X81827981Y-96520019D01*
X82062400Y-96423159D01*
X82451792Y-96034446D01*
X82662789Y-95526309D01*
X82663269Y-94976105D01*
X82453159Y-94467600D01*
X82064446Y-94078208D01*
X81827981Y-93980019D01*
X82062400Y-93883159D01*
X82451792Y-93494446D01*
X82662789Y-92986309D01*
X82663269Y-92436105D01*
X82453159Y-91927600D01*
X82064446Y-91538208D01*
X81556309Y-91327211D01*
X81006105Y-91326731D01*
X80497600Y-91536841D01*
X80108208Y-91925554D01*
X79897211Y-92433691D01*
X79896731Y-92983895D01*
X80106841Y-93492400D01*
X80495554Y-93881792D01*
X80732019Y-93979981D01*
X80497600Y-94076841D01*
X80453394Y-94120970D01*
X52400000Y-94120970D01*
X51967939Y-94206912D01*
X51601655Y-94451655D01*
X50407111Y-95646199D01*
X50053642Y-95499426D01*
X49010932Y-95498516D01*
X48047245Y-95896703D01*
X47309295Y-96633367D01*
X46909426Y-97596358D01*
X46908516Y-98639068D01*
X44563030Y-98639068D01*
X44563030Y-89139068D01*
X46908516Y-89139068D01*
X47306703Y-90102755D01*
X48043367Y-90840705D01*
X49006358Y-91240574D01*
X50049068Y-91241484D01*
X51012755Y-90843297D01*
X51750705Y-90106633D01*
X52150574Y-89143642D01*
X52150910Y-88759030D01*
X74102867Y-88759030D01*
X74145554Y-88801792D01*
X74382019Y-88899981D01*
X74147600Y-88996841D01*
X73758208Y-89385554D01*
X73547211Y-89893691D01*
X73546731Y-90443895D01*
X73756841Y-90952400D01*
X74145554Y-91341792D01*
X74653691Y-91552789D01*
X75203895Y-91553269D01*
X75712400Y-91343159D01*
X76101792Y-90954446D01*
X76312789Y-90446309D01*
X76313269Y-89896105D01*
X76103159Y-89387600D01*
X75714446Y-88998208D01*
X75477981Y-88900019D01*
X75712400Y-88803159D01*
X76101792Y-88414446D01*
X76312789Y-87906309D01*
X76313269Y-87356105D01*
X76103159Y-86847600D01*
X75973856Y-86718071D01*
X85561713Y-86718071D01*
X85845005Y-87484537D01*
X85934953Y-87619154D01*
X86347815Y-87669589D01*
X87628204Y-86389200D01*
X86347815Y-85108811D01*
X85934953Y-85159246D01*
X85593298Y-85901538D01*
X85561713Y-86718071D01*
X75973856Y-86718071D01*
X75714446Y-86458208D01*
X75477981Y-86360019D01*
X75712400Y-86263159D01*
X76101792Y-85874446D01*
X76312789Y-85366309D01*
X76313015Y-85107015D01*
X86349611Y-85107015D01*
X87630000Y-86387404D01*
X88910389Y-85107015D01*
X88859954Y-84694153D01*
X88117662Y-84352498D01*
X87301129Y-84320913D01*
X86534663Y-84604205D01*
X86400046Y-84694153D01*
X86349611Y-85107015D01*
X76313015Y-85107015D01*
X76313269Y-84816105D01*
X76103159Y-84307600D01*
X75714446Y-83918208D01*
X75206309Y-83707211D01*
X74656105Y-83706731D01*
X74147600Y-83916841D01*
X73758208Y-84305554D01*
X73547211Y-84813691D01*
X73546731Y-85363895D01*
X73756841Y-85872400D01*
X74145554Y-86261792D01*
X74382019Y-86359981D01*
X74147600Y-86456841D01*
X74103394Y-86500970D01*
X51118131Y-86500970D01*
X51016633Y-86399295D01*
X50053642Y-85999426D01*
X49010932Y-85998516D01*
X48047245Y-86396703D01*
X47309295Y-87133367D01*
X46909426Y-88096358D01*
X46908516Y-89139068D01*
X44563030Y-89139068D01*
X44563030Y-79639068D01*
X46908516Y-79639068D01*
X47306703Y-80602755D01*
X48043367Y-81340705D01*
X49006358Y-81740574D01*
X50049068Y-81741484D01*
X51012755Y-81343297D01*
X51217379Y-81139030D01*
X67752867Y-81139030D01*
X67795554Y-81181792D01*
X68032019Y-81279981D01*
X67797600Y-81376841D01*
X67408208Y-81765554D01*
X67197211Y-82273691D01*
X67196731Y-82823895D01*
X67406841Y-83332400D01*
X67795554Y-83721792D01*
X68303691Y-83932789D01*
X68853895Y-83933269D01*
X69362400Y-83723159D01*
X69751792Y-83334446D01*
X69962789Y-82826309D01*
X69963269Y-82276105D01*
X69753159Y-81767600D01*
X69364446Y-81378208D01*
X69127981Y-81280019D01*
X69362400Y-81183159D01*
X69751792Y-80794446D01*
X69962789Y-80286309D01*
X69963269Y-79736105D01*
X69753159Y-79227600D01*
X69364446Y-78838208D01*
X69127981Y-78740019D01*
X69362400Y-78643159D01*
X69751792Y-78254446D01*
X69962789Y-77746309D01*
X69963098Y-77392065D01*
X86439731Y-77392065D01*
X86474959Y-77791938D01*
X87172090Y-78112774D01*
X87938933Y-78142407D01*
X88658744Y-77876327D01*
X88785041Y-77791938D01*
X88820269Y-77392065D01*
X87630000Y-76201796D01*
X86439731Y-77392065D01*
X69963098Y-77392065D01*
X69963269Y-77196105D01*
X69753159Y-76687600D01*
X69574804Y-76508933D01*
X85687593Y-76508933D01*
X85953673Y-77228744D01*
X86038062Y-77355041D01*
X86437935Y-77390269D01*
X87628204Y-76200000D01*
X87631796Y-76200000D01*
X88822065Y-77390269D01*
X89221938Y-77355041D01*
X89542774Y-76657910D01*
X89549594Y-76481420D01*
X91208724Y-76481420D01*
X91424607Y-77003897D01*
X91824000Y-77403988D01*
X92346100Y-77620783D01*
X92911420Y-77621276D01*
X93433897Y-77405393D01*
X93833988Y-77006000D01*
X94050783Y-76483900D01*
X94051276Y-75918580D01*
X93835393Y-75396103D01*
X93436000Y-74996012D01*
X92913900Y-74779217D01*
X92348580Y-74778724D01*
X91826103Y-74994607D01*
X91426012Y-75394000D01*
X91209217Y-75916100D01*
X91208724Y-76481420D01*
X89549594Y-76481420D01*
X89572407Y-75891067D01*
X89306327Y-75171256D01*
X89221938Y-75044959D01*
X88822065Y-75009731D01*
X87631796Y-76200000D01*
X87628204Y-76200000D01*
X86437935Y-75009731D01*
X86038062Y-75044959D01*
X85717226Y-75742090D01*
X85687593Y-76508933D01*
X69574804Y-76508933D01*
X69364446Y-76298208D01*
X68856309Y-76087211D01*
X68306105Y-76086731D01*
X67797600Y-76296841D01*
X67408208Y-76685554D01*
X67197211Y-77193691D01*
X67196731Y-77743895D01*
X67406841Y-78252400D01*
X67795554Y-78641792D01*
X68032019Y-78739981D01*
X67797600Y-78836841D01*
X67753394Y-78880970D01*
X52151240Y-78880970D01*
X52151484Y-78600932D01*
X51753297Y-77637245D01*
X51016633Y-76899295D01*
X50053642Y-76499426D01*
X49010932Y-76498516D01*
X48047245Y-76896703D01*
X47309295Y-77633367D01*
X46909426Y-78596358D01*
X46908516Y-79639068D01*
X44563030Y-79639068D01*
X44563030Y-70139068D01*
X46908516Y-70139068D01*
X47306703Y-71102755D01*
X48043367Y-71840705D01*
X49006358Y-72240574D01*
X49053926Y-72240616D01*
X50001655Y-73188345D01*
X50367939Y-73433088D01*
X50800000Y-73519030D01*
X61402867Y-73519030D01*
X61445554Y-73561792D01*
X61682019Y-73659981D01*
X61447600Y-73756841D01*
X61058208Y-74145554D01*
X60847211Y-74653691D01*
X60846731Y-75203895D01*
X61056841Y-75712400D01*
X61445554Y-76101792D01*
X61953691Y-76312789D01*
X62503895Y-76313269D01*
X63012400Y-76103159D01*
X63401792Y-75714446D01*
X63612789Y-75206309D01*
X63612962Y-75007935D01*
X86439731Y-75007935D01*
X87630000Y-76198204D01*
X88820269Y-75007935D01*
X88785041Y-74608062D01*
X88087910Y-74287226D01*
X87321067Y-74257593D01*
X86601256Y-74523673D01*
X86474959Y-74608062D01*
X86439731Y-75007935D01*
X63612962Y-75007935D01*
X63613269Y-74656105D01*
X63403159Y-74147600D01*
X63014446Y-73758208D01*
X62777981Y-73660019D01*
X63012400Y-73563159D01*
X63401792Y-73174446D01*
X63612789Y-72666309D01*
X63613269Y-72116105D01*
X63403159Y-71607600D01*
X63014446Y-71218208D01*
X62777981Y-71120019D01*
X63012400Y-71023159D01*
X63401792Y-70634446D01*
X63612789Y-70126309D01*
X63613269Y-69576105D01*
X63403159Y-69067600D01*
X63014446Y-68678208D01*
X62506309Y-68467211D01*
X61956105Y-68466731D01*
X61447600Y-68676841D01*
X61058208Y-69065554D01*
X60847211Y-69573691D01*
X60846731Y-70123895D01*
X61056841Y-70632400D01*
X61445554Y-71021792D01*
X61682019Y-71119981D01*
X61447600Y-71216841D01*
X61403394Y-71260970D01*
X51596099Y-71260970D01*
X51750705Y-71106633D01*
X52150574Y-70143642D01*
X52151484Y-69100932D01*
X51753297Y-68137245D01*
X51016633Y-67399295D01*
X50053642Y-66999426D01*
X49010932Y-66998516D01*
X48047245Y-67396703D01*
X47309295Y-68133367D01*
X46909426Y-69096358D01*
X46908516Y-70139068D01*
X44563030Y-70139068D01*
X44563030Y-60832817D01*
X63652979Y-60832817D01*
X63834198Y-61357378D01*
X64964867Y-61878078D01*
X66208732Y-61926454D01*
X67376426Y-61495140D01*
X67582602Y-61357378D01*
X67763821Y-60832817D01*
X65708400Y-58777396D01*
X63652979Y-60832817D01*
X44563030Y-60832817D01*
X44563030Y-59803030D01*
X59588400Y-59803030D01*
X59632375Y-59794125D01*
X59672366Y-59765667D01*
X60113697Y-59275932D01*
X62557546Y-59275932D01*
X62988860Y-60443626D01*
X63126622Y-60649802D01*
X63651183Y-60831021D01*
X65706604Y-58775600D01*
X65710196Y-58775600D01*
X67765617Y-60831021D01*
X68290178Y-60649802D01*
X68810878Y-59519133D01*
X68819607Y-59294668D01*
X72586916Y-59294668D01*
X72985103Y-60258355D01*
X73721767Y-60996305D01*
X74684758Y-61396174D01*
X75727468Y-61397084D01*
X76085329Y-61249219D01*
X77661255Y-62825145D01*
X78027539Y-63069888D01*
X78459600Y-63155830D01*
X83657548Y-63155830D01*
X83665312Y-63194861D01*
X83910055Y-63561145D01*
X94120970Y-73772060D01*
X94120970Y-80433233D01*
X93980000Y-80644209D01*
X93714820Y-80247340D01*
X93253805Y-79939299D01*
X92710000Y-79831130D01*
X92166195Y-79939299D01*
X91705180Y-80247340D01*
X91397139Y-80708355D01*
X91288970Y-81252160D01*
X91288970Y-81307840D01*
X91397139Y-81851645D01*
X91705180Y-82312660D01*
X92166195Y-82620701D01*
X92710000Y-82728870D01*
X93253805Y-82620701D01*
X93714820Y-82312660D01*
X93980000Y-81915791D01*
X94245180Y-82312660D01*
X94706195Y-82620701D01*
X95250000Y-82728870D01*
X95793805Y-82620701D01*
X96254820Y-82312660D01*
X96520000Y-81915791D01*
X96785180Y-82312660D01*
X97246195Y-82620701D01*
X97790000Y-82728870D01*
X98333805Y-82620701D01*
X98794820Y-82312660D01*
X98908554Y-82142445D01*
X98940108Y-82310140D01*
X99076120Y-82521509D01*
X99283651Y-82663309D01*
X99530000Y-82713196D01*
X101130000Y-82713196D01*
X101360140Y-82669892D01*
X101571509Y-82533880D01*
X101713309Y-82326349D01*
X101763196Y-82080000D01*
X101763196Y-80480000D01*
X101719892Y-80249860D01*
X101583880Y-80038491D01*
X101499030Y-79980515D01*
X101499030Y-77571914D01*
X101698651Y-77708309D01*
X101945000Y-77758196D01*
X103795000Y-77758196D01*
X104025140Y-77714892D01*
X104236509Y-77578880D01*
X104378309Y-77371349D01*
X104386879Y-77329030D01*
X108392867Y-77329030D01*
X108435554Y-77371792D01*
X108672019Y-77469981D01*
X108437600Y-77566841D01*
X108393394Y-77610970D01*
X106680000Y-77610970D01*
X106247938Y-77696912D01*
X106174011Y-77746309D01*
X105881655Y-77941655D01*
X105881653Y-77941658D01*
X103341655Y-80481655D01*
X103096912Y-80847939D01*
X103010970Y-81280000D01*
X103010970Y-85892341D01*
X101155673Y-87747637D01*
X100873805Y-87559299D01*
X100330000Y-87451130D01*
X99786195Y-87559299D01*
X99325180Y-87867340D01*
X99060000Y-88264209D01*
X98794820Y-87867340D01*
X98333805Y-87559299D01*
X97790000Y-87451130D01*
X97246195Y-87559299D01*
X96785180Y-87867340D01*
X96520000Y-88264209D01*
X96254820Y-87867340D01*
X95793805Y-87559299D01*
X95250000Y-87451130D01*
X94706195Y-87559299D01*
X94245180Y-87867340D01*
X94060641Y-88143521D01*
X93822654Y-87787347D01*
X93811854Y-87776546D01*
X93301364Y-87435448D01*
X92699200Y-87315670D01*
X89464732Y-87315670D01*
X89666702Y-86876862D01*
X89698287Y-86060329D01*
X89414995Y-85293863D01*
X89325047Y-85159246D01*
X88912185Y-85108811D01*
X87631796Y-86389200D01*
X87645939Y-86403343D01*
X87644143Y-86405139D01*
X87630000Y-86390996D01*
X86349611Y-87671385D01*
X86383523Y-87948991D01*
X86320103Y-88012301D01*
X86254902Y-88169321D01*
X86176248Y-88287036D01*
X86148870Y-88424676D01*
X86084238Y-88580326D01*
X86084090Y-88750346D01*
X86056470Y-88889200D01*
X86083849Y-89026843D01*
X86083702Y-89195375D01*
X86148628Y-89352507D01*
X86176248Y-89491364D01*
X86254217Y-89608052D01*
X86318575Y-89763812D01*
X86438690Y-89884137D01*
X86444973Y-89893540D01*
X86263491Y-90010320D01*
X86121691Y-90217851D01*
X86071804Y-90464200D01*
X86071804Y-91312111D01*
X86056470Y-91389200D01*
X86056470Y-99190000D01*
X86176248Y-99792164D01*
X86517346Y-100302654D01*
X90159314Y-103944622D01*
X90158516Y-104859068D01*
X90556703Y-105822755D01*
X91293367Y-106560705D01*
X92256358Y-106960574D01*
X93299068Y-106961484D01*
X94262755Y-106563297D01*
X95000705Y-105826633D01*
X95400574Y-104863642D01*
X95401484Y-103820932D01*
X95003297Y-102857245D01*
X94266633Y-102119295D01*
X93303642Y-101719426D01*
X92383931Y-101718623D01*
X89203530Y-98538222D01*
X89203530Y-91389200D01*
X89188196Y-91312111D01*
X89188196Y-90464200D01*
X89187919Y-90462730D01*
X92655700Y-90462730D01*
X92710000Y-90473531D01*
X93312164Y-90353752D01*
X93822654Y-90012654D01*
X94060642Y-89656480D01*
X94120970Y-89746767D01*
X94120970Y-97310000D01*
X94206912Y-97742061D01*
X94451655Y-98108345D01*
X99806199Y-103462889D01*
X99659426Y-103816358D01*
X99658516Y-104859068D01*
X100056703Y-105822755D01*
X100793367Y-106560705D01*
X101756358Y-106960574D01*
X102799068Y-106961484D01*
X103762755Y-106563297D01*
X103929124Y-106397217D01*
X109724579Y-106397217D01*
X109905798Y-106921778D01*
X111036467Y-107442478D01*
X112280332Y-107490854D01*
X113448026Y-107059540D01*
X113654202Y-106921778D01*
X113835421Y-106397217D01*
X111780000Y-104341796D01*
X109724579Y-106397217D01*
X103929124Y-106397217D01*
X104500705Y-105826633D01*
X104900574Y-104863642D01*
X104900594Y-104840332D01*
X108629146Y-104840332D01*
X109060460Y-106008026D01*
X109198222Y-106214202D01*
X109722783Y-106395421D01*
X111778204Y-104340000D01*
X111781796Y-104340000D01*
X113837217Y-106395421D01*
X114361778Y-106214202D01*
X114882478Y-105083533D01*
X114930854Y-103839668D01*
X114499540Y-102671974D01*
X114361778Y-102465798D01*
X113837217Y-102284579D01*
X111781796Y-104340000D01*
X111778204Y-104340000D01*
X109722783Y-102284579D01*
X109198222Y-102465798D01*
X108677522Y-103596467D01*
X108629146Y-104840332D01*
X104900594Y-104840332D01*
X104901484Y-103820932D01*
X104503297Y-102857245D01*
X103929837Y-102282783D01*
X109724579Y-102282783D01*
X111780000Y-104338204D01*
X113835421Y-102282783D01*
X113654202Y-101758222D01*
X112523533Y-101237522D01*
X111279668Y-101189146D01*
X110111974Y-101620460D01*
X109905798Y-101758222D01*
X109724579Y-102282783D01*
X103929837Y-102282783D01*
X103766633Y-102119295D01*
X102803642Y-101719426D01*
X101760932Y-101718516D01*
X101403071Y-101866381D01*
X96379030Y-96842340D01*
X96379030Y-90451420D01*
X103988724Y-90451420D01*
X104204607Y-90973897D01*
X104604000Y-91373988D01*
X105126100Y-91590783D01*
X105691420Y-91591276D01*
X106213897Y-91375393D01*
X106227248Y-91362065D01*
X109219731Y-91362065D01*
X109254959Y-91761938D01*
X109952090Y-92082774D01*
X110718933Y-92112407D01*
X111438744Y-91846327D01*
X111565041Y-91761938D01*
X111600269Y-91362065D01*
X110410000Y-90171796D01*
X109219731Y-91362065D01*
X106227248Y-91362065D01*
X106613988Y-90976000D01*
X106820388Y-90478933D01*
X108467593Y-90478933D01*
X108733673Y-91198744D01*
X108818062Y-91325041D01*
X109217935Y-91360269D01*
X110408204Y-90170000D01*
X110411796Y-90170000D01*
X111602065Y-91360269D01*
X112001938Y-91325041D01*
X112322774Y-90627910D01*
X112352407Y-89861067D01*
X112086327Y-89141256D01*
X112001938Y-89014959D01*
X111602065Y-88979731D01*
X110411796Y-90170000D01*
X110408204Y-90170000D01*
X109217935Y-88979731D01*
X108818062Y-89014959D01*
X108497226Y-89712090D01*
X108467593Y-90478933D01*
X106820388Y-90478933D01*
X106830783Y-90453900D01*
X106831276Y-89888580D01*
X106615393Y-89366103D01*
X106227903Y-88977935D01*
X109219731Y-88977935D01*
X110410000Y-90168204D01*
X111600269Y-88977935D01*
X111565041Y-88578062D01*
X110867910Y-88257226D01*
X110101067Y-88227593D01*
X109381256Y-88493673D01*
X109254959Y-88578062D01*
X109219731Y-88977935D01*
X106227903Y-88977935D01*
X106216000Y-88966012D01*
X105693900Y-88749217D01*
X105128580Y-88748724D01*
X104606103Y-88964607D01*
X104206012Y-89364000D01*
X103989217Y-89886100D01*
X103988724Y-90451420D01*
X96379030Y-90451420D01*
X96379030Y-89746767D01*
X96520000Y-89535791D01*
X96785180Y-89932660D01*
X97246195Y-90240701D01*
X97790000Y-90348870D01*
X98333805Y-90240701D01*
X98794820Y-89932660D01*
X99060000Y-89535791D01*
X99325180Y-89932660D01*
X99786195Y-90240701D01*
X100330000Y-90348870D01*
X100873805Y-90240701D01*
X101190592Y-90029030D01*
X101600000Y-90029030D01*
X102032061Y-89943088D01*
X102398345Y-89698345D01*
X104938342Y-87158347D01*
X104938345Y-87158345D01*
X105145978Y-86847600D01*
X105183088Y-86792062D01*
X105197805Y-86718071D01*
X113501713Y-86718071D01*
X113785005Y-87484537D01*
X113874953Y-87619154D01*
X114287815Y-87669589D01*
X115568204Y-86389200D01*
X114287815Y-85108811D01*
X113874953Y-85159246D01*
X113533298Y-85901538D01*
X113501713Y-86718071D01*
X105197805Y-86718071D01*
X105269030Y-86360000D01*
X105269030Y-85107015D01*
X114289611Y-85107015D01*
X115570000Y-86387404D01*
X116850389Y-85107015D01*
X116799954Y-84694153D01*
X116057662Y-84352498D01*
X115241129Y-84320913D01*
X114474663Y-84604205D01*
X114340046Y-84694153D01*
X114289611Y-85107015D01*
X105269030Y-85107015D01*
X105269030Y-81747660D01*
X107147659Y-79869030D01*
X108392867Y-79869030D01*
X108435554Y-79911792D01*
X108672019Y-80009981D01*
X108437600Y-80106841D01*
X108048208Y-80495554D01*
X107837211Y-81003691D01*
X107836731Y-81553895D01*
X108046841Y-82062400D01*
X108435554Y-82451792D01*
X108943691Y-82662789D01*
X109493895Y-82663269D01*
X110002400Y-82453159D01*
X110391792Y-82064446D01*
X110602789Y-81556309D01*
X110603269Y-81006105D01*
X110393159Y-80497600D01*
X110004446Y-80108208D01*
X109767981Y-80010019D01*
X110002400Y-79913159D01*
X110391792Y-79524446D01*
X110602789Y-79016309D01*
X110603269Y-78466105D01*
X110393159Y-77957600D01*
X110004446Y-77568208D01*
X109767981Y-77470019D01*
X109956644Y-77392065D01*
X114379731Y-77392065D01*
X114414959Y-77791938D01*
X115112090Y-78112774D01*
X115878933Y-78142407D01*
X116598744Y-77876327D01*
X116725041Y-77791938D01*
X116760269Y-77392065D01*
X115570000Y-76201796D01*
X114379731Y-77392065D01*
X109956644Y-77392065D01*
X110002400Y-77373159D01*
X110391792Y-76984446D01*
X110589242Y-76508933D01*
X113627593Y-76508933D01*
X113893673Y-77228744D01*
X113978062Y-77355041D01*
X114377935Y-77390269D01*
X115568204Y-76200000D01*
X115571796Y-76200000D01*
X116762065Y-77390269D01*
X117161938Y-77355041D01*
X117482774Y-76657910D01*
X117489594Y-76481420D01*
X119148724Y-76481420D01*
X119364607Y-77003897D01*
X119764000Y-77403988D01*
X120286100Y-77620783D01*
X120851420Y-77621276D01*
X121373897Y-77405393D01*
X121773988Y-77006000D01*
X121990783Y-76483900D01*
X121991276Y-75918580D01*
X121775393Y-75396103D01*
X121376000Y-74996012D01*
X120853900Y-74779217D01*
X120288580Y-74778724D01*
X119766103Y-74994607D01*
X119366012Y-75394000D01*
X119149217Y-75916100D01*
X119148724Y-76481420D01*
X117489594Y-76481420D01*
X117512407Y-75891067D01*
X117246327Y-75171256D01*
X117161938Y-75044959D01*
X116762065Y-75009731D01*
X115571796Y-76200000D01*
X115568204Y-76200000D01*
X114377935Y-75009731D01*
X113978062Y-75044959D01*
X113657226Y-75742090D01*
X113627593Y-76508933D01*
X110589242Y-76508933D01*
X110602789Y-76476309D01*
X110603269Y-75926105D01*
X110393159Y-75417600D01*
X110004446Y-75028208D01*
X109955624Y-75007935D01*
X114379731Y-75007935D01*
X115570000Y-76198204D01*
X116760269Y-75007935D01*
X116725041Y-74608062D01*
X116027910Y-74287226D01*
X115261067Y-74257593D01*
X114541256Y-74523673D01*
X114414959Y-74608062D01*
X114379731Y-75007935D01*
X109955624Y-75007935D01*
X109496309Y-74817211D01*
X108946105Y-74816731D01*
X108437600Y-75026841D01*
X108393394Y-75070970D01*
X104389805Y-75070970D01*
X104384892Y-75044860D01*
X104248880Y-74833491D01*
X104041349Y-74691691D01*
X103795000Y-74641804D01*
X101945000Y-74641804D01*
X101714860Y-74685108D01*
X101503491Y-74821120D01*
X101371246Y-75014667D01*
X101246899Y-74890103D01*
X100678874Y-74654238D01*
X100063825Y-74653702D01*
X99495388Y-74888575D01*
X99060103Y-75323101D01*
X98919030Y-75662842D01*
X98919030Y-71678800D01*
X98833088Y-71246738D01*
X98588345Y-70880455D01*
X95337430Y-67629540D01*
X95337430Y-63105030D01*
X100508000Y-63105030D01*
X100940061Y-63019088D01*
X101306345Y-62774345D01*
X102831289Y-61249401D01*
X103184758Y-61396174D01*
X104227468Y-61397084D01*
X105191155Y-60998897D01*
X105929105Y-60262233D01*
X106328974Y-59299242D01*
X106328977Y-59294668D01*
X110586916Y-59294668D01*
X110985103Y-60258355D01*
X111721767Y-60996305D01*
X112684758Y-61396174D01*
X113727468Y-61397084D01*
X114085329Y-61249219D01*
X122060970Y-69224860D01*
X122060970Y-80433233D01*
X121920000Y-80644209D01*
X121654820Y-80247340D01*
X121193805Y-79939299D01*
X120650000Y-79831130D01*
X120106195Y-79939299D01*
X119645180Y-80247340D01*
X119337139Y-80708355D01*
X119228970Y-81252160D01*
X119228970Y-81307840D01*
X119337139Y-81851645D01*
X119645180Y-82312660D01*
X120106195Y-82620701D01*
X120650000Y-82728870D01*
X121193805Y-82620701D01*
X121654820Y-82312660D01*
X121920000Y-81915791D01*
X122185180Y-82312660D01*
X122646195Y-82620701D01*
X123190000Y-82728870D01*
X123733805Y-82620701D01*
X124194820Y-82312660D01*
X124460000Y-81915791D01*
X124725180Y-82312660D01*
X125186195Y-82620701D01*
X125730000Y-82728870D01*
X126273805Y-82620701D01*
X126734820Y-82312660D01*
X126848554Y-82142445D01*
X126880108Y-82310140D01*
X127016120Y-82521509D01*
X127223651Y-82663309D01*
X127470000Y-82713196D01*
X129070000Y-82713196D01*
X129300140Y-82669892D01*
X129511509Y-82533880D01*
X129653309Y-82326349D01*
X129703196Y-82080000D01*
X129703196Y-81443494D01*
X130378345Y-80768345D01*
X130623088Y-80402061D01*
X130709030Y-79970000D01*
X130709030Y-77571914D01*
X130908651Y-77708309D01*
X131155000Y-77758196D01*
X133005000Y-77758196D01*
X133235140Y-77714892D01*
X133446509Y-77578880D01*
X133588309Y-77371349D01*
X133596879Y-77329030D01*
X137602867Y-77329030D01*
X137645554Y-77371792D01*
X137882019Y-77469981D01*
X137647600Y-77566841D01*
X137603394Y-77610970D01*
X134620000Y-77610970D01*
X134187938Y-77696912D01*
X134114011Y-77746309D01*
X133821655Y-77941655D01*
X133821653Y-77941658D01*
X131281655Y-80481655D01*
X131036912Y-80847939D01*
X130950970Y-81280000D01*
X130950970Y-85892341D01*
X129095673Y-87747637D01*
X128813805Y-87559299D01*
X128270000Y-87451130D01*
X127726195Y-87559299D01*
X127265180Y-87867340D01*
X127000000Y-88264209D01*
X126734820Y-87867340D01*
X126273805Y-87559299D01*
X125730000Y-87451130D01*
X125186195Y-87559299D01*
X124725180Y-87867340D01*
X124460000Y-88264209D01*
X124194820Y-87867340D01*
X123733805Y-87559299D01*
X123190000Y-87451130D01*
X122646195Y-87559299D01*
X122185180Y-87867340D01*
X122000641Y-88143521D01*
X121762654Y-87787347D01*
X121751854Y-87776546D01*
X121241364Y-87435448D01*
X120639200Y-87315670D01*
X117404732Y-87315670D01*
X117606702Y-86876862D01*
X117638287Y-86060329D01*
X117354995Y-85293863D01*
X117265047Y-85159246D01*
X116852185Y-85108811D01*
X115571796Y-86389200D01*
X115585939Y-86403343D01*
X115584143Y-86405139D01*
X115570000Y-86390996D01*
X114289611Y-87671385D01*
X114323523Y-87948991D01*
X114260103Y-88012301D01*
X114194902Y-88169321D01*
X114116248Y-88287036D01*
X114088870Y-88424676D01*
X114024238Y-88580326D01*
X114024090Y-88750346D01*
X113996470Y-88889200D01*
X114023849Y-89026843D01*
X114023702Y-89195375D01*
X114088628Y-89352507D01*
X114116248Y-89491364D01*
X114194217Y-89608052D01*
X114258575Y-89763812D01*
X114378690Y-89884137D01*
X114384973Y-89893540D01*
X114203491Y-90010320D01*
X114061691Y-90217851D01*
X114011804Y-90464200D01*
X114011804Y-91312111D01*
X113996470Y-91389200D01*
X113996470Y-98630000D01*
X114116248Y-99232164D01*
X114457346Y-99742654D01*
X118659314Y-103944621D01*
X118658516Y-104859068D01*
X119056703Y-105822755D01*
X119793367Y-106560705D01*
X120756358Y-106960574D01*
X121799068Y-106961484D01*
X122762755Y-106563297D01*
X123500705Y-105826633D01*
X123900574Y-104863642D01*
X123901484Y-103820932D01*
X123503297Y-102857245D01*
X122766633Y-102119295D01*
X121803642Y-101719426D01*
X120883931Y-101718623D01*
X117143530Y-97978222D01*
X117143530Y-91389200D01*
X117128196Y-91312111D01*
X117128196Y-90464200D01*
X117127919Y-90462730D01*
X120595700Y-90462730D01*
X120650000Y-90473531D01*
X121252164Y-90353752D01*
X121762654Y-90012654D01*
X122000642Y-89656480D01*
X122060970Y-89746767D01*
X122060970Y-96750000D01*
X122146912Y-97182061D01*
X122391655Y-97548345D01*
X128306199Y-103462889D01*
X128159426Y-103816358D01*
X128158516Y-104859068D01*
X128556703Y-105822755D01*
X129293367Y-106560705D01*
X130256358Y-106960574D01*
X131299068Y-106961484D01*
X132262755Y-106563297D01*
X132429124Y-106397217D01*
X138224579Y-106397217D01*
X138405798Y-106921778D01*
X139536467Y-107442478D01*
X140780332Y-107490854D01*
X141948026Y-107059540D01*
X142154202Y-106921778D01*
X142335421Y-106397217D01*
X140280000Y-104341796D01*
X138224579Y-106397217D01*
X132429124Y-106397217D01*
X133000705Y-105826633D01*
X133400574Y-104863642D01*
X133400594Y-104840332D01*
X137129146Y-104840332D01*
X137560460Y-106008026D01*
X137698222Y-106214202D01*
X138222783Y-106395421D01*
X140278204Y-104340000D01*
X140281796Y-104340000D01*
X142337217Y-106395421D01*
X142861778Y-106214202D01*
X143382478Y-105083533D01*
X143430854Y-103839668D01*
X142999540Y-102671974D01*
X142861778Y-102465798D01*
X142337217Y-102284579D01*
X140281796Y-104340000D01*
X140278204Y-104340000D01*
X138222783Y-102284579D01*
X137698222Y-102465798D01*
X137177522Y-103596467D01*
X137129146Y-104840332D01*
X133400594Y-104840332D01*
X133401484Y-103820932D01*
X133003297Y-102857245D01*
X132429837Y-102282783D01*
X138224579Y-102282783D01*
X140280000Y-104338204D01*
X142335421Y-102282783D01*
X142154202Y-101758222D01*
X141023533Y-101237522D01*
X139779668Y-101189146D01*
X138611974Y-101620460D01*
X138405798Y-101758222D01*
X138224579Y-102282783D01*
X132429837Y-102282783D01*
X132266633Y-102119295D01*
X131303642Y-101719426D01*
X130260932Y-101718516D01*
X129903071Y-101866381D01*
X124319030Y-96282340D01*
X124319030Y-90451420D01*
X131928724Y-90451420D01*
X132144607Y-90973897D01*
X132544000Y-91373988D01*
X133066100Y-91590783D01*
X133631420Y-91591276D01*
X134153897Y-91375393D01*
X134167248Y-91362065D01*
X137159731Y-91362065D01*
X137194959Y-91761938D01*
X137892090Y-92082774D01*
X138658933Y-92112407D01*
X139378744Y-91846327D01*
X139505041Y-91761938D01*
X139540269Y-91362065D01*
X138350000Y-90171796D01*
X137159731Y-91362065D01*
X134167248Y-91362065D01*
X134553988Y-90976000D01*
X134760388Y-90478933D01*
X136407593Y-90478933D01*
X136673673Y-91198744D01*
X136758062Y-91325041D01*
X137157935Y-91360269D01*
X138348204Y-90170000D01*
X138351796Y-90170000D01*
X139542065Y-91360269D01*
X139941938Y-91325041D01*
X140262774Y-90627910D01*
X140292407Y-89861067D01*
X140026327Y-89141256D01*
X139941938Y-89014959D01*
X139542065Y-88979731D01*
X138351796Y-90170000D01*
X138348204Y-90170000D01*
X137157935Y-88979731D01*
X136758062Y-89014959D01*
X136437226Y-89712090D01*
X136407593Y-90478933D01*
X134760388Y-90478933D01*
X134770783Y-90453900D01*
X134771276Y-89888580D01*
X134555393Y-89366103D01*
X134167903Y-88977935D01*
X137159731Y-88977935D01*
X138350000Y-90168204D01*
X139540269Y-88977935D01*
X139532452Y-88889200D01*
X143257270Y-88889200D01*
X143284649Y-89026843D01*
X143284502Y-89195375D01*
X143349428Y-89352507D01*
X143377048Y-89491364D01*
X143455017Y-89608052D01*
X143519375Y-89763812D01*
X143639490Y-89884137D01*
X143645773Y-89893540D01*
X143464291Y-90010320D01*
X143322491Y-90217851D01*
X143272604Y-90464200D01*
X143272604Y-91312111D01*
X143257270Y-91389200D01*
X143257270Y-99390800D01*
X143377048Y-99992964D01*
X143718146Y-100503454D01*
X147159314Y-103944622D01*
X147158516Y-104859068D01*
X147556703Y-105822755D01*
X148293367Y-106560705D01*
X149256358Y-106960574D01*
X150299068Y-106961484D01*
X151262755Y-106563297D01*
X152000705Y-105826633D01*
X152400574Y-104863642D01*
X152401484Y-103820932D01*
X152003297Y-102857245D01*
X151266633Y-102119295D01*
X150303642Y-101719426D01*
X149383931Y-101718623D01*
X146404330Y-98739022D01*
X146404330Y-91389200D01*
X146388996Y-91312111D01*
X146388996Y-90464200D01*
X146388719Y-90462730D01*
X149805700Y-90462730D01*
X149860000Y-90473531D01*
X150462164Y-90353752D01*
X150972654Y-90012654D01*
X151210642Y-89656480D01*
X151270970Y-89746767D01*
X151270970Y-97460000D01*
X151356912Y-97892061D01*
X151601655Y-98258345D01*
X156806199Y-103462889D01*
X156659426Y-103816358D01*
X156658516Y-104859068D01*
X157056703Y-105822755D01*
X157793367Y-106560705D01*
X158756358Y-106960574D01*
X159799068Y-106961484D01*
X160762755Y-106563297D01*
X160929124Y-106397217D01*
X166724579Y-106397217D01*
X166905798Y-106921778D01*
X168036467Y-107442478D01*
X169280332Y-107490854D01*
X170448026Y-107059540D01*
X170654202Y-106921778D01*
X170835421Y-106397217D01*
X168780000Y-104341796D01*
X166724579Y-106397217D01*
X160929124Y-106397217D01*
X161500705Y-105826633D01*
X161900574Y-104863642D01*
X161900594Y-104840332D01*
X165629146Y-104840332D01*
X166060460Y-106008026D01*
X166198222Y-106214202D01*
X166722783Y-106395421D01*
X168778204Y-104340000D01*
X168781796Y-104340000D01*
X170837217Y-106395421D01*
X171361778Y-106214202D01*
X171882478Y-105083533D01*
X171930854Y-103839668D01*
X171499540Y-102671974D01*
X171361778Y-102465798D01*
X170837217Y-102284579D01*
X168781796Y-104340000D01*
X168778204Y-104340000D01*
X166722783Y-102284579D01*
X166198222Y-102465798D01*
X165677522Y-103596467D01*
X165629146Y-104840332D01*
X161900594Y-104840332D01*
X161901484Y-103820932D01*
X161503297Y-102857245D01*
X160929837Y-102282783D01*
X166724579Y-102282783D01*
X168780000Y-104338204D01*
X170835421Y-102282783D01*
X170654202Y-101758222D01*
X169523533Y-101237522D01*
X168279668Y-101189146D01*
X167111974Y-101620460D01*
X166905798Y-101758222D01*
X166724579Y-102282783D01*
X160929837Y-102282783D01*
X160766633Y-102119295D01*
X159803642Y-101719426D01*
X158760932Y-101718516D01*
X158403071Y-101866381D01*
X153529030Y-96992340D01*
X153529030Y-90451420D01*
X159868724Y-90451420D01*
X160084607Y-90973897D01*
X160484000Y-91373988D01*
X161006100Y-91590783D01*
X161571420Y-91591276D01*
X162093897Y-91375393D01*
X162107248Y-91362065D01*
X165099731Y-91362065D01*
X165134959Y-91761938D01*
X165832090Y-92082774D01*
X166598933Y-92112407D01*
X167318744Y-91846327D01*
X167445041Y-91761938D01*
X167480269Y-91362065D01*
X166290000Y-90171796D01*
X165099731Y-91362065D01*
X162107248Y-91362065D01*
X162493988Y-90976000D01*
X162700388Y-90478933D01*
X164347593Y-90478933D01*
X164613673Y-91198744D01*
X164698062Y-91325041D01*
X165097935Y-91360269D01*
X166288204Y-90170000D01*
X166291796Y-90170000D01*
X167482065Y-91360269D01*
X167881938Y-91325041D01*
X168202774Y-90627910D01*
X168232407Y-89861067D01*
X167966327Y-89141256D01*
X167881938Y-89014959D01*
X167482065Y-88979731D01*
X166291796Y-90170000D01*
X166288204Y-90170000D01*
X165097935Y-88979731D01*
X164698062Y-89014959D01*
X164377226Y-89712090D01*
X164347593Y-90478933D01*
X162700388Y-90478933D01*
X162710783Y-90453900D01*
X162711276Y-89888580D01*
X162495393Y-89366103D01*
X162107903Y-88977935D01*
X165099731Y-88977935D01*
X166290000Y-90168204D01*
X167480269Y-88977935D01*
X167472452Y-88889200D01*
X171197270Y-88889200D01*
X171224649Y-89026843D01*
X171224502Y-89195375D01*
X171289428Y-89352507D01*
X171317048Y-89491364D01*
X171395017Y-89608052D01*
X171459375Y-89763812D01*
X171579490Y-89884137D01*
X171585773Y-89893540D01*
X171404291Y-90010320D01*
X171262491Y-90217851D01*
X171212604Y-90464200D01*
X171212604Y-91312111D01*
X171197270Y-91389200D01*
X171197270Y-98830800D01*
X171317048Y-99432964D01*
X171658146Y-99943454D01*
X175659314Y-103944621D01*
X175658516Y-104859068D01*
X176056703Y-105822755D01*
X176793367Y-106560705D01*
X177756358Y-106960574D01*
X178799068Y-106961484D01*
X179762755Y-106563297D01*
X180500705Y-105826633D01*
X180900574Y-104863642D01*
X180901484Y-103820932D01*
X180503297Y-102857245D01*
X179766633Y-102119295D01*
X178803642Y-101719426D01*
X177883931Y-101718623D01*
X174344330Y-98179022D01*
X174344330Y-91389200D01*
X174328996Y-91312111D01*
X174328996Y-90464200D01*
X174328719Y-90462730D01*
X177745700Y-90462730D01*
X177800000Y-90473531D01*
X178402164Y-90353752D01*
X178912654Y-90012654D01*
X179150642Y-89656480D01*
X179210970Y-89746767D01*
X179210970Y-96900000D01*
X179296912Y-97332061D01*
X179541655Y-97698345D01*
X185306199Y-103462889D01*
X185159426Y-103816358D01*
X185158516Y-104859068D01*
X185556703Y-105822755D01*
X186293367Y-106560705D01*
X187256358Y-106960574D01*
X188299068Y-106961484D01*
X189262755Y-106563297D01*
X189429124Y-106397217D01*
X195224579Y-106397217D01*
X195405798Y-106921778D01*
X196536467Y-107442478D01*
X197780332Y-107490854D01*
X198948026Y-107059540D01*
X199154202Y-106921778D01*
X199335421Y-106397217D01*
X197280000Y-104341796D01*
X195224579Y-106397217D01*
X189429124Y-106397217D01*
X190000705Y-105826633D01*
X190400574Y-104863642D01*
X190400594Y-104840332D01*
X194129146Y-104840332D01*
X194560460Y-106008026D01*
X194698222Y-106214202D01*
X195222783Y-106395421D01*
X197278204Y-104340000D01*
X197281796Y-104340000D01*
X199337217Y-106395421D01*
X199861778Y-106214202D01*
X200382478Y-105083533D01*
X200430854Y-103839668D01*
X199999540Y-102671974D01*
X199861778Y-102465798D01*
X199337217Y-102284579D01*
X197281796Y-104340000D01*
X197278204Y-104340000D01*
X195222783Y-102284579D01*
X194698222Y-102465798D01*
X194177522Y-103596467D01*
X194129146Y-104840332D01*
X190400594Y-104840332D01*
X190401484Y-103820932D01*
X190003297Y-102857245D01*
X189429837Y-102282783D01*
X195224579Y-102282783D01*
X197280000Y-104338204D01*
X199335421Y-102282783D01*
X199154202Y-101758222D01*
X198023533Y-101237522D01*
X196779668Y-101189146D01*
X195611974Y-101620460D01*
X195405798Y-101758222D01*
X195224579Y-102282783D01*
X189429837Y-102282783D01*
X189266633Y-102119295D01*
X188303642Y-101719426D01*
X187260932Y-101718516D01*
X186903071Y-101866381D01*
X181469030Y-96432340D01*
X181469030Y-90451420D01*
X187808724Y-90451420D01*
X188024607Y-90973897D01*
X188424000Y-91373988D01*
X188946100Y-91590783D01*
X189511420Y-91591276D01*
X190033897Y-91375393D01*
X190047248Y-91362065D01*
X193039731Y-91362065D01*
X193074959Y-91761938D01*
X193772090Y-92082774D01*
X194538933Y-92112407D01*
X195258744Y-91846327D01*
X195385041Y-91761938D01*
X195420269Y-91362065D01*
X194230000Y-90171796D01*
X193039731Y-91362065D01*
X190047248Y-91362065D01*
X190433988Y-90976000D01*
X190640388Y-90478933D01*
X192287593Y-90478933D01*
X192553673Y-91198744D01*
X192638062Y-91325041D01*
X193037935Y-91360269D01*
X194228204Y-90170000D01*
X194231796Y-90170000D01*
X195422065Y-91360269D01*
X195821938Y-91325041D01*
X196142774Y-90627910D01*
X196172407Y-89861067D01*
X196168317Y-89850000D01*
X200356470Y-89850000D01*
X200356470Y-93980000D01*
X200476248Y-94582164D01*
X200817346Y-95092654D01*
X201327836Y-95433752D01*
X201930000Y-95553530D01*
X202532164Y-95433752D01*
X203042654Y-95092654D01*
X203383752Y-94582164D01*
X203503530Y-93980000D01*
X203503530Y-93839068D01*
X212008516Y-93839068D01*
X212406703Y-94802755D01*
X213143367Y-95540705D01*
X214106358Y-95940574D01*
X215149068Y-95941484D01*
X216112755Y-95543297D01*
X216850705Y-94806633D01*
X217250574Y-93843642D01*
X217251484Y-92800932D01*
X216853297Y-91837245D01*
X216116633Y-91099295D01*
X215153642Y-90699426D01*
X214110932Y-90698516D01*
X213147245Y-91096703D01*
X212409295Y-91833367D01*
X212009426Y-92796358D01*
X212008516Y-93839068D01*
X203503530Y-93839068D01*
X203503530Y-89850000D01*
X203383752Y-89247836D01*
X203293777Y-89113178D01*
X203434030Y-88774578D01*
X203434030Y-88233527D01*
X203151773Y-87951270D01*
X201931270Y-87951270D01*
X201931270Y-87971270D01*
X201928730Y-87971270D01*
X201928730Y-87951270D01*
X200708227Y-87951270D01*
X200425970Y-88233527D01*
X200425970Y-88774578D01*
X200566223Y-89113178D01*
X200476248Y-89247836D01*
X200356470Y-89850000D01*
X196168317Y-89850000D01*
X195906327Y-89141256D01*
X195821938Y-89014959D01*
X195422065Y-88979731D01*
X194231796Y-90170000D01*
X194228204Y-90170000D01*
X193037935Y-88979731D01*
X192638062Y-89014959D01*
X192317226Y-89712090D01*
X192287593Y-90478933D01*
X190640388Y-90478933D01*
X190650783Y-90453900D01*
X190651276Y-89888580D01*
X190435393Y-89366103D01*
X190047903Y-88977935D01*
X193039731Y-88977935D01*
X194230000Y-90168204D01*
X195420269Y-88977935D01*
X195385041Y-88578062D01*
X194687910Y-88257226D01*
X193921067Y-88227593D01*
X193201256Y-88493673D01*
X193074959Y-88578062D01*
X193039731Y-88977935D01*
X190047903Y-88977935D01*
X190036000Y-88966012D01*
X189513900Y-88749217D01*
X188948580Y-88748724D01*
X188426103Y-88964607D01*
X188026012Y-89364000D01*
X187809217Y-89886100D01*
X187808724Y-90451420D01*
X181469030Y-90451420D01*
X181469030Y-89746767D01*
X181610000Y-89535791D01*
X181875180Y-89932660D01*
X182336195Y-90240701D01*
X182880000Y-90348870D01*
X183423805Y-90240701D01*
X183884820Y-89932660D01*
X184150000Y-89535791D01*
X184415180Y-89932660D01*
X184876195Y-90240701D01*
X185420000Y-90348870D01*
X185963805Y-90240701D01*
X186280592Y-90029030D01*
X186690000Y-90029030D01*
X187122061Y-89943088D01*
X187488345Y-89698345D01*
X190028342Y-87158347D01*
X190028345Y-87158345D01*
X190050343Y-87125422D01*
X200425970Y-87125422D01*
X200425970Y-87666473D01*
X200708227Y-87948730D01*
X201928730Y-87948730D01*
X201928730Y-86503227D01*
X201931270Y-86503227D01*
X201931270Y-87948730D01*
X203151773Y-87948730D01*
X203434030Y-87666473D01*
X203434030Y-87125422D01*
X203262145Y-86710456D01*
X202944544Y-86392855D01*
X202529578Y-86220970D01*
X202213527Y-86220970D01*
X201931270Y-86503227D01*
X201928730Y-86503227D01*
X201646473Y-86220970D01*
X201330422Y-86220970D01*
X200915456Y-86392855D01*
X200597855Y-86710456D01*
X200425970Y-87125422D01*
X190050343Y-87125422D01*
X190235978Y-86847600D01*
X190273088Y-86792062D01*
X190359030Y-86360000D01*
X190359030Y-85877217D01*
X212574579Y-85877217D01*
X212755798Y-86401778D01*
X213886467Y-86922478D01*
X215130332Y-86970854D01*
X216298026Y-86539540D01*
X216504202Y-86401778D01*
X216685421Y-85877217D01*
X214630000Y-83821796D01*
X212574579Y-85877217D01*
X190359030Y-85877217D01*
X190359030Y-84320332D01*
X211479146Y-84320332D01*
X211910460Y-85488026D01*
X212048222Y-85694202D01*
X212572783Y-85875421D01*
X214628204Y-83820000D01*
X214631796Y-83820000D01*
X216687217Y-85875421D01*
X217211778Y-85694202D01*
X217732478Y-84563533D01*
X217780854Y-83319668D01*
X217349540Y-82151974D01*
X217211778Y-81945798D01*
X216687217Y-81764579D01*
X214631796Y-83820000D01*
X214628204Y-83820000D01*
X212572783Y-81764579D01*
X212048222Y-81945798D01*
X211527522Y-83076467D01*
X211479146Y-84320332D01*
X190359030Y-84320332D01*
X190359030Y-81747660D01*
X192237659Y-79869030D01*
X194752867Y-79869030D01*
X194795554Y-79911792D01*
X195032019Y-80009981D01*
X194797600Y-80106841D01*
X194408208Y-80495554D01*
X194197211Y-81003691D01*
X194196731Y-81553895D01*
X194406841Y-82062400D01*
X194795554Y-82451792D01*
X195303691Y-82662789D01*
X195853895Y-82663269D01*
X196362400Y-82453159D01*
X196751792Y-82064446D01*
X196877053Y-81762783D01*
X212574579Y-81762783D01*
X214630000Y-83818204D01*
X216685421Y-81762783D01*
X216504202Y-81238222D01*
X215373533Y-80717522D01*
X214129668Y-80669146D01*
X212961974Y-81100460D01*
X212755798Y-81238222D01*
X212574579Y-81762783D01*
X196877053Y-81762783D01*
X196962789Y-81556309D01*
X196963269Y-81006105D01*
X196753159Y-80497600D01*
X196364446Y-80108208D01*
X196127981Y-80010019D01*
X196362400Y-79913159D01*
X196751792Y-79524446D01*
X196962789Y-79016309D01*
X196963061Y-78703527D01*
X200425970Y-78703527D01*
X200425970Y-79244578D01*
X200597855Y-79659544D01*
X200915456Y-79977145D01*
X201330422Y-80149030D01*
X201646473Y-80149030D01*
X201928730Y-79866773D01*
X201928730Y-78421270D01*
X201931270Y-78421270D01*
X201931270Y-79866773D01*
X202213527Y-80149030D01*
X202529578Y-80149030D01*
X202944544Y-79977145D01*
X203262145Y-79659544D01*
X203434030Y-79244578D01*
X203434030Y-78703527D01*
X203151773Y-78421270D01*
X201931270Y-78421270D01*
X201928730Y-78421270D01*
X200708227Y-78421270D01*
X200425970Y-78703527D01*
X196963061Y-78703527D01*
X196963269Y-78466105D01*
X196753159Y-77957600D01*
X196364446Y-77568208D01*
X196127981Y-77470019D01*
X196362400Y-77373159D01*
X196751792Y-76984446D01*
X196962789Y-76476309D01*
X196963269Y-75926105D01*
X196753159Y-75417600D01*
X196364446Y-75028208D01*
X195856309Y-74817211D01*
X195306105Y-74816731D01*
X194797600Y-75026841D01*
X194753394Y-75070970D01*
X190749805Y-75070970D01*
X190744892Y-75044860D01*
X190608880Y-74833491D01*
X190401349Y-74691691D01*
X190155000Y-74641804D01*
X188305000Y-74641804D01*
X188074860Y-74685108D01*
X187863491Y-74821120D01*
X187731246Y-75014667D01*
X187606899Y-74890103D01*
X187038874Y-74654238D01*
X186423825Y-74653702D01*
X185855388Y-74888575D01*
X185420103Y-75323101D01*
X185184238Y-75891126D01*
X185183702Y-76506175D01*
X185418575Y-77074612D01*
X185600970Y-77257326D01*
X185600970Y-79502340D01*
X185256506Y-79846804D01*
X184620000Y-79846804D01*
X184389860Y-79890108D01*
X184178491Y-80026120D01*
X184036691Y-80233651D01*
X184009030Y-80370245D01*
X184009030Y-76309406D01*
X186637240Y-73660000D01*
X200356470Y-73660000D01*
X200356470Y-76520000D01*
X200476248Y-77122164D01*
X200566223Y-77256822D01*
X200425970Y-77595422D01*
X200425970Y-78136473D01*
X200708227Y-78418730D01*
X201928730Y-78418730D01*
X201928730Y-78398730D01*
X201931270Y-78398730D01*
X201931270Y-78418730D01*
X203151773Y-78418730D01*
X203434030Y-78136473D01*
X203434030Y-77595422D01*
X203293777Y-77256822D01*
X203383752Y-77122164D01*
X203503530Y-76520000D01*
X203503530Y-74839068D01*
X212008516Y-74839068D01*
X212406703Y-75802755D01*
X213143367Y-76540705D01*
X214106358Y-76940574D01*
X215149068Y-76941484D01*
X216112755Y-76543297D01*
X216850705Y-75806633D01*
X217250574Y-74843642D01*
X217251484Y-73800932D01*
X216853297Y-72837245D01*
X216116633Y-72099295D01*
X215153642Y-71699426D01*
X214110932Y-71698516D01*
X213147245Y-72096703D01*
X212409295Y-72833367D01*
X212009426Y-73796358D01*
X212008516Y-74839068D01*
X203503530Y-74839068D01*
X203503530Y-73660000D01*
X203383752Y-73057836D01*
X203042654Y-72547346D01*
X202532164Y-72206248D01*
X201930000Y-72086470D01*
X201327836Y-72206248D01*
X200817346Y-72547346D01*
X200476248Y-73057836D01*
X200356470Y-73660000D01*
X186637240Y-73660000D01*
X195948717Y-64273430D01*
X199237600Y-64273430D01*
X199669661Y-64187488D01*
X200035945Y-63942745D01*
X200280688Y-63576461D01*
X200332939Y-63313774D01*
X202009446Y-61289520D01*
X202143958Y-61345374D01*
X203186668Y-61346284D01*
X204150355Y-60948097D01*
X204316724Y-60782017D01*
X210112179Y-60782017D01*
X210293398Y-61306578D01*
X211424067Y-61827278D01*
X212667932Y-61875654D01*
X213835626Y-61444340D01*
X214041802Y-61306578D01*
X214223021Y-60782017D01*
X212167600Y-58726596D01*
X210112179Y-60782017D01*
X204316724Y-60782017D01*
X204888305Y-60211433D01*
X205288174Y-59248442D01*
X205288194Y-59225132D01*
X209016746Y-59225132D01*
X209448060Y-60392826D01*
X209585822Y-60599002D01*
X210110383Y-60780221D01*
X212165804Y-58724800D01*
X212169396Y-58724800D01*
X214224817Y-60780221D01*
X214749378Y-60599002D01*
X215270078Y-59468333D01*
X215318454Y-58224468D01*
X214887140Y-57056774D01*
X214749378Y-56850598D01*
X214224817Y-56669379D01*
X212169396Y-58724800D01*
X212165804Y-58724800D01*
X210110383Y-56669379D01*
X209585822Y-56850598D01*
X209065122Y-57981267D01*
X209016746Y-59225132D01*
X205288194Y-59225132D01*
X205289084Y-58205732D01*
X204890897Y-57242045D01*
X204317437Y-56667583D01*
X210112179Y-56667583D01*
X212167600Y-58723004D01*
X214223021Y-56667583D01*
X214041802Y-56143022D01*
X212911133Y-55622322D01*
X211667268Y-55573946D01*
X210499574Y-56005260D01*
X210293398Y-56143022D01*
X210112179Y-56667583D01*
X204317437Y-56667583D01*
X204154233Y-56504095D01*
X203191242Y-56104226D01*
X202148532Y-56103316D01*
X201184845Y-56501503D01*
X200446895Y-57238167D01*
X200047026Y-58201158D01*
X200046116Y-59243868D01*
X200287632Y-59828382D01*
X198476348Y-62015370D01*
X195478400Y-62015370D01*
X195476134Y-62015821D01*
X195473865Y-62015379D01*
X195260197Y-62058773D01*
X195046339Y-62101312D01*
X195044417Y-62102596D01*
X195042153Y-62103056D01*
X194861378Y-62224899D01*
X194680055Y-62346055D01*
X194678771Y-62347977D01*
X194676855Y-62349268D01*
X194215681Y-62814162D01*
X194296630Y-62407200D01*
X194296630Y-61094253D01*
X194650355Y-60948097D01*
X195388305Y-60211433D01*
X195788174Y-59248442D01*
X195789084Y-58205732D01*
X195390897Y-57242045D01*
X194654233Y-56504095D01*
X193691242Y-56104226D01*
X192648532Y-56103316D01*
X191684845Y-56501503D01*
X190946895Y-57238167D01*
X190547026Y-58201158D01*
X190546116Y-59243868D01*
X190944303Y-60207555D01*
X191680967Y-60945505D01*
X192038570Y-61093995D01*
X192038570Y-61939540D01*
X179541655Y-74436455D01*
X179296912Y-74802739D01*
X179210970Y-75234800D01*
X179210970Y-80433233D01*
X179070000Y-80644209D01*
X178804820Y-80247340D01*
X178343805Y-79939299D01*
X177800000Y-79831130D01*
X177256195Y-79939299D01*
X176795180Y-80247340D01*
X176487139Y-80708355D01*
X176378970Y-81252160D01*
X176378970Y-81307840D01*
X176487139Y-81851645D01*
X176795180Y-82312660D01*
X177256195Y-82620701D01*
X177800000Y-82728870D01*
X178343805Y-82620701D01*
X178804820Y-82312660D01*
X179070000Y-81915791D01*
X179335180Y-82312660D01*
X179796195Y-82620701D01*
X180340000Y-82728870D01*
X180883805Y-82620701D01*
X181344820Y-82312660D01*
X181610000Y-81915791D01*
X181875180Y-82312660D01*
X182336195Y-82620701D01*
X182880000Y-82728870D01*
X183423805Y-82620701D01*
X183884820Y-82312660D01*
X183998554Y-82142445D01*
X184030108Y-82310140D01*
X184166120Y-82521509D01*
X184373651Y-82663309D01*
X184620000Y-82713196D01*
X186220000Y-82713196D01*
X186450140Y-82669892D01*
X186661509Y-82533880D01*
X186803309Y-82326349D01*
X186853196Y-82080000D01*
X186853196Y-81443494D01*
X187528345Y-80768345D01*
X187773088Y-80402061D01*
X187859030Y-79970000D01*
X187859030Y-77571914D01*
X188058651Y-77708309D01*
X188305000Y-77758196D01*
X190155000Y-77758196D01*
X190385140Y-77714892D01*
X190596509Y-77578880D01*
X190738309Y-77371349D01*
X190746879Y-77329030D01*
X194752867Y-77329030D01*
X194795554Y-77371792D01*
X195032019Y-77469981D01*
X194797600Y-77566841D01*
X194753394Y-77610970D01*
X191770000Y-77610970D01*
X191337938Y-77696912D01*
X191264011Y-77746309D01*
X190971655Y-77941655D01*
X190971653Y-77941658D01*
X188431655Y-80481655D01*
X188186912Y-80847939D01*
X188100970Y-81280000D01*
X188100970Y-85892341D01*
X186245673Y-87747637D01*
X185963805Y-87559299D01*
X185420000Y-87451130D01*
X184876195Y-87559299D01*
X184415180Y-87867340D01*
X184150000Y-88264209D01*
X183884820Y-87867340D01*
X183423805Y-87559299D01*
X182880000Y-87451130D01*
X182336195Y-87559299D01*
X181875180Y-87867340D01*
X181610000Y-88264209D01*
X181344820Y-87867340D01*
X180883805Y-87559299D01*
X180340000Y-87451130D01*
X179796195Y-87559299D01*
X179335180Y-87867340D01*
X179150641Y-88143521D01*
X178912654Y-87787347D01*
X178901854Y-87776546D01*
X178391364Y-87435448D01*
X177789200Y-87315670D01*
X174605532Y-87315670D01*
X174807502Y-86876862D01*
X174839087Y-86060329D01*
X174555795Y-85293863D01*
X174465847Y-85159246D01*
X174052985Y-85108811D01*
X172772596Y-86389200D01*
X172786739Y-86403343D01*
X172784943Y-86405139D01*
X172770800Y-86390996D01*
X171490411Y-87671385D01*
X171524323Y-87948991D01*
X171460903Y-88012301D01*
X171395702Y-88169321D01*
X171317048Y-88287036D01*
X171289670Y-88424676D01*
X171225038Y-88580326D01*
X171224890Y-88750346D01*
X171197270Y-88889200D01*
X167472452Y-88889200D01*
X167445041Y-88578062D01*
X166747910Y-88257226D01*
X165981067Y-88227593D01*
X165261256Y-88493673D01*
X165134959Y-88578062D01*
X165099731Y-88977935D01*
X162107903Y-88977935D01*
X162096000Y-88966012D01*
X161573900Y-88749217D01*
X161008580Y-88748724D01*
X160486103Y-88964607D01*
X160086012Y-89364000D01*
X159869217Y-89886100D01*
X159868724Y-90451420D01*
X153529030Y-90451420D01*
X153529030Y-89746767D01*
X153670000Y-89535791D01*
X153935180Y-89932660D01*
X154396195Y-90240701D01*
X154940000Y-90348870D01*
X155483805Y-90240701D01*
X155944820Y-89932660D01*
X156210000Y-89535791D01*
X156475180Y-89932660D01*
X156936195Y-90240701D01*
X157480000Y-90348870D01*
X158023805Y-90240701D01*
X158340592Y-90029030D01*
X158750000Y-90029030D01*
X159182061Y-89943088D01*
X159548345Y-89698345D01*
X160818345Y-88428345D01*
X161063088Y-88062061D01*
X161149030Y-87630000D01*
X161149030Y-86718071D01*
X170702513Y-86718071D01*
X170985805Y-87484537D01*
X171075753Y-87619154D01*
X171488615Y-87669589D01*
X172769004Y-86389200D01*
X171488615Y-85108811D01*
X171075753Y-85159246D01*
X170734098Y-85901538D01*
X170702513Y-86718071D01*
X161149030Y-86718071D01*
X161149030Y-85107015D01*
X171490411Y-85107015D01*
X172770800Y-86387404D01*
X174051189Y-85107015D01*
X174000754Y-84694153D01*
X173258462Y-84352498D01*
X172441929Y-84320913D01*
X171675463Y-84604205D01*
X171540846Y-84694153D01*
X171490411Y-85107015D01*
X161149030Y-85107015D01*
X161149030Y-84287660D01*
X165555252Y-79881438D01*
X165585554Y-79911792D01*
X165822019Y-80009981D01*
X165587600Y-80106841D01*
X165198208Y-80495554D01*
X164987211Y-81003691D01*
X164986731Y-81553895D01*
X165196841Y-82062400D01*
X165585554Y-82451792D01*
X166093691Y-82662789D01*
X166643895Y-82663269D01*
X167152400Y-82453159D01*
X167541792Y-82064446D01*
X167752789Y-81556309D01*
X167753269Y-81006105D01*
X167543159Y-80497600D01*
X167154446Y-80108208D01*
X166917981Y-80010019D01*
X167152400Y-79913159D01*
X167541792Y-79524446D01*
X167752789Y-79016309D01*
X167753269Y-78466105D01*
X167543159Y-77957600D01*
X167154446Y-77568208D01*
X166917981Y-77470019D01*
X167106644Y-77392065D01*
X171529731Y-77392065D01*
X171564959Y-77791938D01*
X172262090Y-78112774D01*
X173028933Y-78142407D01*
X173748744Y-77876327D01*
X173875041Y-77791938D01*
X173910269Y-77392065D01*
X172720000Y-76201796D01*
X171529731Y-77392065D01*
X167106644Y-77392065D01*
X167152400Y-77373159D01*
X167541792Y-76984446D01*
X167739242Y-76508933D01*
X170777593Y-76508933D01*
X171043673Y-77228744D01*
X171128062Y-77355041D01*
X171527935Y-77390269D01*
X172718204Y-76200000D01*
X172721796Y-76200000D01*
X173912065Y-77390269D01*
X174311938Y-77355041D01*
X174632774Y-76657910D01*
X174639594Y-76481420D01*
X176298724Y-76481420D01*
X176514607Y-77003897D01*
X176914000Y-77403988D01*
X177436100Y-77620783D01*
X178001420Y-77621276D01*
X178523897Y-77405393D01*
X178923988Y-77006000D01*
X179140783Y-76483900D01*
X179141276Y-75918580D01*
X178925393Y-75396103D01*
X178526000Y-74996012D01*
X178003900Y-74779217D01*
X177438580Y-74778724D01*
X176916103Y-74994607D01*
X176516012Y-75394000D01*
X176299217Y-75916100D01*
X176298724Y-76481420D01*
X174639594Y-76481420D01*
X174662407Y-75891067D01*
X174396327Y-75171256D01*
X174311938Y-75044959D01*
X173912065Y-75009731D01*
X172721796Y-76200000D01*
X172718204Y-76200000D01*
X171527935Y-75009731D01*
X171128062Y-75044959D01*
X170807226Y-75742090D01*
X170777593Y-76508933D01*
X167739242Y-76508933D01*
X167752789Y-76476309D01*
X167753269Y-75926105D01*
X167543159Y-75417600D01*
X167154446Y-75028208D01*
X167105624Y-75007935D01*
X171529731Y-75007935D01*
X172720000Y-76198204D01*
X173910269Y-75007935D01*
X173875041Y-74608062D01*
X173177910Y-74287226D01*
X172411067Y-74257593D01*
X171691256Y-74523673D01*
X171564959Y-74608062D01*
X171529731Y-75007935D01*
X167105624Y-75007935D01*
X166646309Y-74817211D01*
X166096105Y-74816731D01*
X165587600Y-75026841D01*
X165543394Y-75070970D01*
X161539805Y-75070970D01*
X161534892Y-75044860D01*
X161398880Y-74833491D01*
X161191349Y-74691691D01*
X160945000Y-74641804D01*
X159095000Y-74641804D01*
X158864860Y-74685108D01*
X158653491Y-74821120D01*
X158521246Y-75014667D01*
X158396899Y-74890103D01*
X157828874Y-74654238D01*
X157213825Y-74653702D01*
X156790456Y-74828634D01*
X163027660Y-68591430D01*
X169570400Y-68591430D01*
X170002461Y-68505488D01*
X170368745Y-68260745D01*
X174635259Y-63994230D01*
X181178000Y-63994230D01*
X181610061Y-63908288D01*
X181976345Y-63663545D01*
X184368905Y-61270985D01*
X185150355Y-60948097D01*
X185888305Y-60211433D01*
X186288174Y-59248442D01*
X186289084Y-58205732D01*
X185890897Y-57242045D01*
X185154233Y-56504095D01*
X184191242Y-56104226D01*
X183148532Y-56103316D01*
X182184845Y-56501503D01*
X181446895Y-57238167D01*
X181047026Y-58201158D01*
X181046116Y-59243868D01*
X181444303Y-60207555D01*
X181841282Y-60605228D01*
X180710340Y-61736170D01*
X175296630Y-61736170D01*
X175296630Y-61094253D01*
X175650355Y-60948097D01*
X176388305Y-60211433D01*
X176788174Y-59248442D01*
X176789084Y-58205732D01*
X176390897Y-57242045D01*
X175654233Y-56504095D01*
X174691242Y-56104226D01*
X173648532Y-56103316D01*
X172684845Y-56501503D01*
X171946895Y-57238167D01*
X171547026Y-58201158D01*
X171546116Y-59243868D01*
X171944303Y-60207555D01*
X172680967Y-60945505D01*
X173038570Y-61093995D01*
X173038570Y-62397541D01*
X169102740Y-66333370D01*
X162560000Y-66333370D01*
X162127938Y-66419312D01*
X161761655Y-66664055D01*
X154141655Y-74284055D01*
X153896912Y-74650339D01*
X153810970Y-75082400D01*
X153810970Y-80433233D01*
X153670000Y-80644209D01*
X153529030Y-80433233D01*
X153529030Y-74584860D01*
X162139145Y-65974744D01*
X162149241Y-65959635D01*
X162164025Y-65949064D01*
X162271259Y-65777022D01*
X162383888Y-65608461D01*
X162387434Y-65590636D01*
X162397046Y-65575214D01*
X162430276Y-65375253D01*
X162469831Y-65176400D01*
X162466285Y-65158573D01*
X162469264Y-65140648D01*
X162405724Y-63135068D01*
X163981682Y-61277991D01*
X164143958Y-61345374D01*
X165186668Y-61346284D01*
X166150355Y-60948097D01*
X166888305Y-60211433D01*
X167288174Y-59248442D01*
X167289084Y-58205732D01*
X166890897Y-57242045D01*
X166154233Y-56504095D01*
X165191242Y-56104226D01*
X164148532Y-56103316D01*
X163184845Y-56501503D01*
X162446895Y-57238167D01*
X162047026Y-58201158D01*
X162046116Y-59243868D01*
X162275406Y-59798794D01*
X161323358Y-60920668D01*
X158329145Y-57926455D01*
X157962861Y-57681712D01*
X157537613Y-57597125D01*
X157390897Y-57242045D01*
X156654233Y-56504095D01*
X155691242Y-56104226D01*
X154648532Y-56103316D01*
X153684845Y-56501503D01*
X152946895Y-57238167D01*
X152547026Y-58201158D01*
X152546116Y-59243868D01*
X152944303Y-60207555D01*
X153680967Y-60945505D01*
X154643958Y-61345374D01*
X155686668Y-61346284D01*
X156650355Y-60948097D01*
X157388305Y-60211433D01*
X157397822Y-60188512D01*
X160140058Y-62930748D01*
X160196860Y-64723651D01*
X151601655Y-73318855D01*
X151356912Y-73685139D01*
X151270970Y-74117200D01*
X151270970Y-80433233D01*
X151130000Y-80644209D01*
X150864820Y-80247340D01*
X150403805Y-79939299D01*
X149860000Y-79831130D01*
X149316195Y-79939299D01*
X148855180Y-80247340D01*
X148547139Y-80708355D01*
X148438970Y-81252160D01*
X148438970Y-81307840D01*
X148547139Y-81851645D01*
X148855180Y-82312660D01*
X149316195Y-82620701D01*
X149860000Y-82728870D01*
X150403805Y-82620701D01*
X150864820Y-82312660D01*
X151130000Y-81915791D01*
X151395180Y-82312660D01*
X151856195Y-82620701D01*
X152400000Y-82728870D01*
X152943805Y-82620701D01*
X153404820Y-82312660D01*
X153670000Y-81915791D01*
X153935180Y-82312660D01*
X154396195Y-82620701D01*
X154940000Y-82728870D01*
X155483805Y-82620701D01*
X155944820Y-82312660D01*
X156058554Y-82142445D01*
X156090108Y-82310140D01*
X156226120Y-82521509D01*
X156433651Y-82663309D01*
X156680000Y-82713196D01*
X158280000Y-82713196D01*
X158510140Y-82669892D01*
X158721509Y-82533880D01*
X158863309Y-82326349D01*
X158913196Y-82080000D01*
X158913196Y-80480000D01*
X158869892Y-80249860D01*
X158733880Y-80038491D01*
X158649030Y-79980515D01*
X158649030Y-77571914D01*
X158848651Y-77708309D01*
X159095000Y-77758196D01*
X160945000Y-77758196D01*
X161175140Y-77714892D01*
X161386509Y-77578880D01*
X161528309Y-77371349D01*
X161536879Y-77329030D01*
X165542867Y-77329030D01*
X165585554Y-77371792D01*
X165822019Y-77469981D01*
X165587600Y-77566841D01*
X165543394Y-77610970D01*
X165100000Y-77610970D01*
X164667939Y-77696912D01*
X164301655Y-77941655D01*
X159221655Y-83021655D01*
X158976912Y-83387939D01*
X158890970Y-83820000D01*
X158890970Y-87162340D01*
X158305673Y-87747637D01*
X158023805Y-87559299D01*
X157480000Y-87451130D01*
X156936195Y-87559299D01*
X156475180Y-87867340D01*
X156210000Y-88264209D01*
X155944820Y-87867340D01*
X155483805Y-87559299D01*
X154940000Y-87451130D01*
X154396195Y-87559299D01*
X153935180Y-87867340D01*
X153670000Y-88264209D01*
X153404820Y-87867340D01*
X152943805Y-87559299D01*
X152400000Y-87451130D01*
X151856195Y-87559299D01*
X151395180Y-87867340D01*
X151210641Y-88143521D01*
X150972654Y-87787347D01*
X150961854Y-87776546D01*
X150451364Y-87435448D01*
X149849200Y-87315670D01*
X146665532Y-87315670D01*
X146867502Y-86876862D01*
X146899087Y-86060329D01*
X146615795Y-85293863D01*
X146525847Y-85159246D01*
X146112985Y-85108811D01*
X144832596Y-86389200D01*
X144846739Y-86403343D01*
X144844943Y-86405139D01*
X144830800Y-86390996D01*
X143550411Y-87671385D01*
X143584323Y-87948991D01*
X143520903Y-88012301D01*
X143455702Y-88169321D01*
X143377048Y-88287036D01*
X143349670Y-88424676D01*
X143285038Y-88580326D01*
X143284890Y-88750346D01*
X143257270Y-88889200D01*
X139532452Y-88889200D01*
X139505041Y-88578062D01*
X138807910Y-88257226D01*
X138041067Y-88227593D01*
X137321256Y-88493673D01*
X137194959Y-88578062D01*
X137159731Y-88977935D01*
X134167903Y-88977935D01*
X134156000Y-88966012D01*
X133633900Y-88749217D01*
X133068580Y-88748724D01*
X132546103Y-88964607D01*
X132146012Y-89364000D01*
X131929217Y-89886100D01*
X131928724Y-90451420D01*
X124319030Y-90451420D01*
X124319030Y-89746767D01*
X124460000Y-89535791D01*
X124725180Y-89932660D01*
X125186195Y-90240701D01*
X125730000Y-90348870D01*
X126273805Y-90240701D01*
X126734820Y-89932660D01*
X127000000Y-89535791D01*
X127265180Y-89932660D01*
X127726195Y-90240701D01*
X128270000Y-90348870D01*
X128813805Y-90240701D01*
X129130592Y-90029030D01*
X129540000Y-90029030D01*
X129972061Y-89943088D01*
X130338345Y-89698345D01*
X132878342Y-87158347D01*
X132878345Y-87158345D01*
X133085978Y-86847600D01*
X133123088Y-86792062D01*
X133137805Y-86718071D01*
X142762513Y-86718071D01*
X143045805Y-87484537D01*
X143135753Y-87619154D01*
X143548615Y-87669589D01*
X144829004Y-86389200D01*
X143548615Y-85108811D01*
X143135753Y-85159246D01*
X142794098Y-85901538D01*
X142762513Y-86718071D01*
X133137805Y-86718071D01*
X133209030Y-86360000D01*
X133209030Y-85107015D01*
X143550411Y-85107015D01*
X144830800Y-86387404D01*
X146111189Y-85107015D01*
X146060754Y-84694153D01*
X145318462Y-84352498D01*
X144501929Y-84320913D01*
X143735463Y-84604205D01*
X143600846Y-84694153D01*
X143550411Y-85107015D01*
X133209030Y-85107015D01*
X133209030Y-81747660D01*
X135087659Y-79869030D01*
X137602867Y-79869030D01*
X137645554Y-79911792D01*
X137882019Y-80009981D01*
X137647600Y-80106841D01*
X137258208Y-80495554D01*
X137047211Y-81003691D01*
X137046731Y-81553895D01*
X137256841Y-82062400D01*
X137645554Y-82451792D01*
X138153691Y-82662789D01*
X138703895Y-82663269D01*
X139212400Y-82453159D01*
X139601792Y-82064446D01*
X139812789Y-81556309D01*
X139813269Y-81006105D01*
X139603159Y-80497600D01*
X139214446Y-80108208D01*
X138977981Y-80010019D01*
X139212400Y-79913159D01*
X139601792Y-79524446D01*
X139812789Y-79016309D01*
X139813269Y-78466105D01*
X139603159Y-77957600D01*
X139214446Y-77568208D01*
X138977981Y-77470019D01*
X139166644Y-77392065D01*
X143589731Y-77392065D01*
X143624959Y-77791938D01*
X144322090Y-78112774D01*
X145088933Y-78142407D01*
X145808744Y-77876327D01*
X145935041Y-77791938D01*
X145970269Y-77392065D01*
X144780000Y-76201796D01*
X143589731Y-77392065D01*
X139166644Y-77392065D01*
X139212400Y-77373159D01*
X139601792Y-76984446D01*
X139799242Y-76508933D01*
X142837593Y-76508933D01*
X143103673Y-77228744D01*
X143188062Y-77355041D01*
X143587935Y-77390269D01*
X144778204Y-76200000D01*
X144781796Y-76200000D01*
X145972065Y-77390269D01*
X146371938Y-77355041D01*
X146692774Y-76657910D01*
X146699594Y-76481420D01*
X148358724Y-76481420D01*
X148574607Y-77003897D01*
X148974000Y-77403988D01*
X149496100Y-77620783D01*
X150061420Y-77621276D01*
X150583897Y-77405393D01*
X150983988Y-77006000D01*
X151200783Y-76483900D01*
X151201276Y-75918580D01*
X150985393Y-75396103D01*
X150586000Y-74996012D01*
X150063900Y-74779217D01*
X149498580Y-74778724D01*
X148976103Y-74994607D01*
X148576012Y-75394000D01*
X148359217Y-75916100D01*
X148358724Y-76481420D01*
X146699594Y-76481420D01*
X146722407Y-75891067D01*
X146456327Y-75171256D01*
X146371938Y-75044959D01*
X145972065Y-75009731D01*
X144781796Y-76200000D01*
X144778204Y-76200000D01*
X143587935Y-75009731D01*
X143188062Y-75044959D01*
X142867226Y-75742090D01*
X142837593Y-76508933D01*
X139799242Y-76508933D01*
X139812789Y-76476309D01*
X139813269Y-75926105D01*
X139603159Y-75417600D01*
X139214446Y-75028208D01*
X139165624Y-75007935D01*
X143589731Y-75007935D01*
X144780000Y-76198204D01*
X145970269Y-75007935D01*
X145935041Y-74608062D01*
X145237910Y-74287226D01*
X144471067Y-74257593D01*
X143751256Y-74523673D01*
X143624959Y-74608062D01*
X143589731Y-75007935D01*
X139165624Y-75007935D01*
X138706309Y-74817211D01*
X138156105Y-74816731D01*
X137647600Y-75026841D01*
X137603394Y-75070970D01*
X133599805Y-75070970D01*
X133594892Y-75044860D01*
X133458880Y-74833491D01*
X133251349Y-74691691D01*
X133005000Y-74641804D01*
X131155000Y-74641804D01*
X130924860Y-74685108D01*
X130713491Y-74821120D01*
X130581246Y-75014667D01*
X130456899Y-74890103D01*
X129888874Y-74654238D01*
X129273825Y-74653702D01*
X128705388Y-74888575D01*
X128270103Y-75323101D01*
X128034238Y-75891126D01*
X128033702Y-76506175D01*
X128268575Y-77074612D01*
X128450970Y-77257326D01*
X128450970Y-79502340D01*
X128106506Y-79846804D01*
X127470000Y-79846804D01*
X127239860Y-79890108D01*
X127028491Y-80026120D01*
X126886691Y-80233651D01*
X126859030Y-80370245D01*
X126859030Y-67818005D01*
X126859031Y-67818000D01*
X126773088Y-67385939D01*
X126528345Y-67019655D01*
X123837430Y-64328740D01*
X123837430Y-61145053D01*
X124191155Y-60998897D01*
X124357524Y-60832817D01*
X130152979Y-60832817D01*
X130334198Y-61357378D01*
X131464867Y-61878078D01*
X132708732Y-61926454D01*
X133876426Y-61495140D01*
X134082602Y-61357378D01*
X134263821Y-60832817D01*
X132208400Y-58777396D01*
X130152979Y-60832817D01*
X124357524Y-60832817D01*
X124929105Y-60262233D01*
X125328974Y-59299242D01*
X125328994Y-59275932D01*
X129057546Y-59275932D01*
X129488860Y-60443626D01*
X129626622Y-60649802D01*
X130151183Y-60831021D01*
X132206604Y-58775600D01*
X132210196Y-58775600D01*
X134265617Y-60831021D01*
X134407465Y-60782017D01*
X143612179Y-60782017D01*
X143793398Y-61306578D01*
X144924067Y-61827278D01*
X146167932Y-61875654D01*
X147335626Y-61444340D01*
X147541802Y-61306578D01*
X147723021Y-60782017D01*
X145667600Y-58726596D01*
X143612179Y-60782017D01*
X134407465Y-60782017D01*
X134790178Y-60649802D01*
X135310878Y-59519133D01*
X135322312Y-59225132D01*
X142516746Y-59225132D01*
X142948060Y-60392826D01*
X143085822Y-60599002D01*
X143610383Y-60780221D01*
X145665804Y-58724800D01*
X145669396Y-58724800D01*
X147724817Y-60780221D01*
X148249378Y-60599002D01*
X148770078Y-59468333D01*
X148818454Y-58224468D01*
X148387140Y-57056774D01*
X148249378Y-56850598D01*
X147724817Y-56669379D01*
X145669396Y-58724800D01*
X145665804Y-58724800D01*
X143610383Y-56669379D01*
X143085822Y-56850598D01*
X142565122Y-57981267D01*
X142516746Y-59225132D01*
X135322312Y-59225132D01*
X135359254Y-58275268D01*
X134927940Y-57107574D01*
X134790178Y-56901398D01*
X134265617Y-56720179D01*
X132210196Y-58775600D01*
X132206604Y-58775600D01*
X130151183Y-56720179D01*
X129626622Y-56901398D01*
X129105922Y-58032067D01*
X129057546Y-59275932D01*
X125328994Y-59275932D01*
X125329884Y-58256532D01*
X124931697Y-57292845D01*
X124358237Y-56718383D01*
X130152979Y-56718383D01*
X132208400Y-58773804D01*
X134263821Y-56718383D01*
X134246272Y-56667583D01*
X143612179Y-56667583D01*
X145667600Y-58723004D01*
X147723021Y-56667583D01*
X147541802Y-56143022D01*
X146411133Y-55622322D01*
X145167268Y-55573946D01*
X143999574Y-56005260D01*
X143793398Y-56143022D01*
X143612179Y-56667583D01*
X134246272Y-56667583D01*
X134082602Y-56193822D01*
X132951933Y-55673122D01*
X131708068Y-55624746D01*
X130540374Y-56056060D01*
X130334198Y-56193822D01*
X130152979Y-56718383D01*
X124358237Y-56718383D01*
X124195033Y-56554895D01*
X123232042Y-56155026D01*
X122189332Y-56154116D01*
X121225645Y-56552303D01*
X120487695Y-57288967D01*
X120087826Y-58251958D01*
X120086916Y-59294668D01*
X120485103Y-60258355D01*
X121221767Y-60996305D01*
X121579370Y-61144795D01*
X121579370Y-64796400D01*
X121665312Y-65228461D01*
X121910055Y-65594745D01*
X124600970Y-68285660D01*
X124600970Y-80433233D01*
X124460000Y-80644209D01*
X124319030Y-80433233D01*
X124319030Y-68757200D01*
X124233088Y-68325139D01*
X123988345Y-67958855D01*
X115682201Y-59652711D01*
X115828974Y-59299242D01*
X115829884Y-58256532D01*
X115431697Y-57292845D01*
X114695033Y-56554895D01*
X113732042Y-56155026D01*
X112689332Y-56154116D01*
X111725645Y-56552303D01*
X110987695Y-57288967D01*
X110587826Y-58251958D01*
X110586916Y-59294668D01*
X106328977Y-59294668D01*
X106329884Y-58256532D01*
X105931697Y-57292845D01*
X105195033Y-56554895D01*
X104232042Y-56155026D01*
X103189332Y-56154116D01*
X102225645Y-56552303D01*
X101487695Y-57288967D01*
X101087826Y-58251958D01*
X101086916Y-59294668D01*
X101234781Y-59652529D01*
X100040340Y-60846970D01*
X95843347Y-60846970D01*
X96429105Y-60262233D01*
X96828974Y-59299242D01*
X96829884Y-58256532D01*
X96431697Y-57292845D01*
X95695033Y-56554895D01*
X94732042Y-56155026D01*
X93689332Y-56154116D01*
X92725645Y-56552303D01*
X91987695Y-57288967D01*
X91587826Y-58251958D01*
X91586916Y-59294668D01*
X91985103Y-60258355D01*
X92721767Y-60996305D01*
X93079370Y-61144795D01*
X93079370Y-68097200D01*
X93165312Y-68529261D01*
X93410055Y-68895545D01*
X96660970Y-72146460D01*
X96660970Y-80433233D01*
X96520000Y-80644209D01*
X96379030Y-80433233D01*
X96379030Y-73304405D01*
X96379031Y-73304400D01*
X96293088Y-72872339D01*
X96048345Y-72506055D01*
X85837430Y-62295140D01*
X85837430Y-61145053D01*
X86191155Y-60998897D01*
X86929105Y-60262233D01*
X87328974Y-59299242D01*
X87329884Y-58256532D01*
X86931697Y-57292845D01*
X86195033Y-56554895D01*
X85232042Y-56155026D01*
X84189332Y-56154116D01*
X83225645Y-56552303D01*
X82487695Y-57288967D01*
X82087826Y-58251958D01*
X82086916Y-59294668D01*
X82485103Y-60258355D01*
X83123404Y-60897770D01*
X78927260Y-60897770D01*
X77682201Y-59652711D01*
X77828974Y-59299242D01*
X77829884Y-58256532D01*
X77431697Y-57292845D01*
X76695033Y-56554895D01*
X75732042Y-56155026D01*
X74689332Y-56154116D01*
X73725645Y-56552303D01*
X72987695Y-57288967D01*
X72587826Y-58251958D01*
X72586916Y-59294668D01*
X68819607Y-59294668D01*
X68859254Y-58275268D01*
X68427940Y-57107574D01*
X68290178Y-56901398D01*
X67765617Y-56720179D01*
X65710196Y-58775600D01*
X65706604Y-58775600D01*
X63651183Y-56720179D01*
X63126622Y-56901398D01*
X62605922Y-58032067D01*
X62557546Y-59275932D01*
X60113697Y-59275932D01*
X60577167Y-58761630D01*
X61044001Y-58761630D01*
X61044001Y-58243595D01*
X62418465Y-56718383D01*
X63652979Y-56718383D01*
X65708400Y-58773804D01*
X67763821Y-56718383D01*
X67582602Y-56193822D01*
X66451933Y-55673122D01*
X65208068Y-55624746D01*
X64040374Y-56056060D01*
X63834198Y-56193822D01*
X63652979Y-56718383D01*
X62418465Y-56718383D01*
X67512757Y-51065362D01*
X217522239Y-50862304D01*
X220766203Y-54904783D01*
X220766203Y-54904783D01*
G37*
X220766203Y-54904783D02*
X220866970Y-59691192D01*
X220866970Y-100283182D01*
X212043182Y-109106970D01*
X54656818Y-109106970D01*
X44563030Y-99013182D01*
X44563030Y-98639068D01*
X46908516Y-98639068D01*
X47306703Y-99602755D01*
X48043367Y-100340705D01*
X49006358Y-100740574D01*
X50049068Y-100741484D01*
X51012755Y-100343297D01*
X51750705Y-99606633D01*
X52150574Y-98643642D01*
X52151484Y-97600932D01*
X52003619Y-97243071D01*
X52867660Y-96379030D01*
X80452867Y-96379030D01*
X80495554Y-96421792D01*
X80732019Y-96519981D01*
X80497600Y-96616841D01*
X80108208Y-97005554D01*
X79897211Y-97513691D01*
X79896731Y-98063895D01*
X80106841Y-98572400D01*
X80495554Y-98961792D01*
X81003691Y-99172789D01*
X81553895Y-99173269D01*
X82062400Y-98963159D01*
X82451792Y-98574446D01*
X82662789Y-98066309D01*
X82663269Y-97516105D01*
X82453159Y-97007600D01*
X82064446Y-96618208D01*
X81827981Y-96520019D01*
X82062400Y-96423159D01*
X82451792Y-96034446D01*
X82662789Y-95526309D01*
X82663269Y-94976105D01*
X82453159Y-94467600D01*
X82064446Y-94078208D01*
X81827981Y-93980019D01*
X82062400Y-93883159D01*
X82451792Y-93494446D01*
X82662789Y-92986309D01*
X82663269Y-92436105D01*
X82453159Y-91927600D01*
X82064446Y-91538208D01*
X81556309Y-91327211D01*
X81006105Y-91326731D01*
X80497600Y-91536841D01*
X80108208Y-91925554D01*
X79897211Y-92433691D01*
X79896731Y-92983895D01*
X80106841Y-93492400D01*
X80495554Y-93881792D01*
X80732019Y-93979981D01*
X80497600Y-94076841D01*
X80453394Y-94120970D01*
X52400000Y-94120970D01*
X51967939Y-94206912D01*
X51601655Y-94451655D01*
X50407111Y-95646199D01*
X50053642Y-95499426D01*
X49010932Y-95498516D01*
X48047245Y-95896703D01*
X47309295Y-96633367D01*
X46909426Y-97596358D01*
X46908516Y-98639068D01*
X44563030Y-98639068D01*
X44563030Y-89139068D01*
X46908516Y-89139068D01*
X47306703Y-90102755D01*
X48043367Y-90840705D01*
X49006358Y-91240574D01*
X50049068Y-91241484D01*
X51012755Y-90843297D01*
X51750705Y-90106633D01*
X52150574Y-89143642D01*
X52150910Y-88759030D01*
X74102867Y-88759030D01*
X74145554Y-88801792D01*
X74382019Y-88899981D01*
X74147600Y-88996841D01*
X73758208Y-89385554D01*
X73547211Y-89893691D01*
X73546731Y-90443895D01*
X73756841Y-90952400D01*
X74145554Y-91341792D01*
X74653691Y-91552789D01*
X75203895Y-91553269D01*
X75712400Y-91343159D01*
X76101792Y-90954446D01*
X76312789Y-90446309D01*
X76313269Y-89896105D01*
X76103159Y-89387600D01*
X75714446Y-88998208D01*
X75477981Y-88900019D01*
X75712400Y-88803159D01*
X76101792Y-88414446D01*
X76312789Y-87906309D01*
X76313269Y-87356105D01*
X76103159Y-86847600D01*
X75973856Y-86718071D01*
X85561713Y-86718071D01*
X85845005Y-87484537D01*
X85934953Y-87619154D01*
X86347815Y-87669589D01*
X87628204Y-86389200D01*
X86347815Y-85108811D01*
X85934953Y-85159246D01*
X85593298Y-85901538D01*
X85561713Y-86718071D01*
X75973856Y-86718071D01*
X75714446Y-86458208D01*
X75477981Y-86360019D01*
X75712400Y-86263159D01*
X76101792Y-85874446D01*
X76312789Y-85366309D01*
X76313015Y-85107015D01*
X86349611Y-85107015D01*
X87630000Y-86387404D01*
X88910389Y-85107015D01*
X88859954Y-84694153D01*
X88117662Y-84352498D01*
X87301129Y-84320913D01*
X86534663Y-84604205D01*
X86400046Y-84694153D01*
X86349611Y-85107015D01*
X76313015Y-85107015D01*
X76313269Y-84816105D01*
X76103159Y-84307600D01*
X75714446Y-83918208D01*
X75206309Y-83707211D01*
X74656105Y-83706731D01*
X74147600Y-83916841D01*
X73758208Y-84305554D01*
X73547211Y-84813691D01*
X73546731Y-85363895D01*
X73756841Y-85872400D01*
X74145554Y-86261792D01*
X74382019Y-86359981D01*
X74147600Y-86456841D01*
X74103394Y-86500970D01*
X51118131Y-86500970D01*
X51016633Y-86399295D01*
X50053642Y-85999426D01*
X49010932Y-85998516D01*
X48047245Y-86396703D01*
X47309295Y-87133367D01*
X46909426Y-88096358D01*
X46908516Y-89139068D01*
X44563030Y-89139068D01*
X44563030Y-79639068D01*
X46908516Y-79639068D01*
X47306703Y-80602755D01*
X48043367Y-81340705D01*
X49006358Y-81740574D01*
X50049068Y-81741484D01*
X51012755Y-81343297D01*
X51217379Y-81139030D01*
X67752867Y-81139030D01*
X67795554Y-81181792D01*
X68032019Y-81279981D01*
X67797600Y-81376841D01*
X67408208Y-81765554D01*
X67197211Y-82273691D01*
X67196731Y-82823895D01*
X67406841Y-83332400D01*
X67795554Y-83721792D01*
X68303691Y-83932789D01*
X68853895Y-83933269D01*
X69362400Y-83723159D01*
X69751792Y-83334446D01*
X69962789Y-82826309D01*
X69963269Y-82276105D01*
X69753159Y-81767600D01*
X69364446Y-81378208D01*
X69127981Y-81280019D01*
X69362400Y-81183159D01*
X69751792Y-80794446D01*
X69962789Y-80286309D01*
X69963269Y-79736105D01*
X69753159Y-79227600D01*
X69364446Y-78838208D01*
X69127981Y-78740019D01*
X69362400Y-78643159D01*
X69751792Y-78254446D01*
X69962789Y-77746309D01*
X69963098Y-77392065D01*
X86439731Y-77392065D01*
X86474959Y-77791938D01*
X87172090Y-78112774D01*
X87938933Y-78142407D01*
X88658744Y-77876327D01*
X88785041Y-77791938D01*
X88820269Y-77392065D01*
X87630000Y-76201796D01*
X86439731Y-77392065D01*
X69963098Y-77392065D01*
X69963269Y-77196105D01*
X69753159Y-76687600D01*
X69574804Y-76508933D01*
X85687593Y-76508933D01*
X85953673Y-77228744D01*
X86038062Y-77355041D01*
X86437935Y-77390269D01*
X87628204Y-76200000D01*
X87631796Y-76200000D01*
X88822065Y-77390269D01*
X89221938Y-77355041D01*
X89542774Y-76657910D01*
X89549594Y-76481420D01*
X91208724Y-76481420D01*
X91424607Y-77003897D01*
X91824000Y-77403988D01*
X92346100Y-77620783D01*
X92911420Y-77621276D01*
X93433897Y-77405393D01*
X93833988Y-77006000D01*
X94050783Y-76483900D01*
X94051276Y-75918580D01*
X93835393Y-75396103D01*
X93436000Y-74996012D01*
X92913900Y-74779217D01*
X92348580Y-74778724D01*
X91826103Y-74994607D01*
X91426012Y-75394000D01*
X91209217Y-75916100D01*
X91208724Y-76481420D01*
X89549594Y-76481420D01*
X89572407Y-75891067D01*
X89306327Y-75171256D01*
X89221938Y-75044959D01*
X88822065Y-75009731D01*
X87631796Y-76200000D01*
X87628204Y-76200000D01*
X86437935Y-75009731D01*
X86038062Y-75044959D01*
X85717226Y-75742090D01*
X85687593Y-76508933D01*
X69574804Y-76508933D01*
X69364446Y-76298208D01*
X68856309Y-76087211D01*
X68306105Y-76086731D01*
X67797600Y-76296841D01*
X67408208Y-76685554D01*
X67197211Y-77193691D01*
X67196731Y-77743895D01*
X67406841Y-78252400D01*
X67795554Y-78641792D01*
X68032019Y-78739981D01*
X67797600Y-78836841D01*
X67753394Y-78880970D01*
X52151240Y-78880970D01*
X52151484Y-78600932D01*
X51753297Y-77637245D01*
X51016633Y-76899295D01*
X50053642Y-76499426D01*
X49010932Y-76498516D01*
X48047245Y-76896703D01*
X47309295Y-77633367D01*
X46909426Y-78596358D01*
X46908516Y-79639068D01*
X44563030Y-79639068D01*
X44563030Y-70139068D01*
X46908516Y-70139068D01*
X47306703Y-71102755D01*
X48043367Y-71840705D01*
X49006358Y-72240574D01*
X49053926Y-72240616D01*
X50001655Y-73188345D01*
X50367939Y-73433088D01*
X50800000Y-73519030D01*
X61402867Y-73519030D01*
X61445554Y-73561792D01*
X61682019Y-73659981D01*
X61447600Y-73756841D01*
X61058208Y-74145554D01*
X60847211Y-74653691D01*
X60846731Y-75203895D01*
X61056841Y-75712400D01*
X61445554Y-76101792D01*
X61953691Y-76312789D01*
X62503895Y-76313269D01*
X63012400Y-76103159D01*
X63401792Y-75714446D01*
X63612789Y-75206309D01*
X63612962Y-75007935D01*
X86439731Y-75007935D01*
X87630000Y-76198204D01*
X88820269Y-75007935D01*
X88785041Y-74608062D01*
X88087910Y-74287226D01*
X87321067Y-74257593D01*
X86601256Y-74523673D01*
X86474959Y-74608062D01*
X86439731Y-75007935D01*
X63612962Y-75007935D01*
X63613269Y-74656105D01*
X63403159Y-74147600D01*
X63014446Y-73758208D01*
X62777981Y-73660019D01*
X63012400Y-73563159D01*
X63401792Y-73174446D01*
X63612789Y-72666309D01*
X63613269Y-72116105D01*
X63403159Y-71607600D01*
X63014446Y-71218208D01*
X62777981Y-71120019D01*
X63012400Y-71023159D01*
X63401792Y-70634446D01*
X63612789Y-70126309D01*
X63613269Y-69576105D01*
X63403159Y-69067600D01*
X63014446Y-68678208D01*
X62506309Y-68467211D01*
X61956105Y-68466731D01*
X61447600Y-68676841D01*
X61058208Y-69065554D01*
X60847211Y-69573691D01*
X60846731Y-70123895D01*
X61056841Y-70632400D01*
X61445554Y-71021792D01*
X61682019Y-71119981D01*
X61447600Y-71216841D01*
X61403394Y-71260970D01*
X51596099Y-71260970D01*
X51750705Y-71106633D01*
X52150574Y-70143642D01*
X52151484Y-69100932D01*
X51753297Y-68137245D01*
X51016633Y-67399295D01*
X50053642Y-66999426D01*
X49010932Y-66998516D01*
X48047245Y-67396703D01*
X47309295Y-68133367D01*
X46909426Y-69096358D01*
X46908516Y-70139068D01*
X44563030Y-70139068D01*
X44563030Y-60832817D01*
X63652979Y-60832817D01*
X63834198Y-61357378D01*
X64964867Y-61878078D01*
X66208732Y-61926454D01*
X67376426Y-61495140D01*
X67582602Y-61357378D01*
X67763821Y-60832817D01*
X65708400Y-58777396D01*
X63652979Y-60832817D01*
X44563030Y-60832817D01*
X44563030Y-59803030D01*
X59588400Y-59803030D01*
X59632375Y-59794125D01*
X59672366Y-59765667D01*
X60113697Y-59275932D01*
X62557546Y-59275932D01*
X62988860Y-60443626D01*
X63126622Y-60649802D01*
X63651183Y-60831021D01*
X65706604Y-58775600D01*
X65710196Y-58775600D01*
X67765617Y-60831021D01*
X68290178Y-60649802D01*
X68810878Y-59519133D01*
X68819607Y-59294668D01*
X72586916Y-59294668D01*
X72985103Y-60258355D01*
X73721767Y-60996305D01*
X74684758Y-61396174D01*
X75727468Y-61397084D01*
X76085329Y-61249219D01*
X77661255Y-62825145D01*
X78027539Y-63069888D01*
X78459600Y-63155830D01*
X83657548Y-63155830D01*
X83665312Y-63194861D01*
X83910055Y-63561145D01*
X94120970Y-73772060D01*
X94120970Y-80433233D01*
X93980000Y-80644209D01*
X93714820Y-80247340D01*
X93253805Y-79939299D01*
X92710000Y-79831130D01*
X92166195Y-79939299D01*
X91705180Y-80247340D01*
X91397139Y-80708355D01*
X91288970Y-81252160D01*
X91288970Y-81307840D01*
X91397139Y-81851645D01*
X91705180Y-82312660D01*
X92166195Y-82620701D01*
X92710000Y-82728870D01*
X93253805Y-82620701D01*
X93714820Y-82312660D01*
X93980000Y-81915791D01*
X94245180Y-82312660D01*
X94706195Y-82620701D01*
X95250000Y-82728870D01*
X95793805Y-82620701D01*
X96254820Y-82312660D01*
X96520000Y-81915791D01*
X96785180Y-82312660D01*
X97246195Y-82620701D01*
X97790000Y-82728870D01*
X98333805Y-82620701D01*
X98794820Y-82312660D01*
X98908554Y-82142445D01*
X98940108Y-82310140D01*
X99076120Y-82521509D01*
X99283651Y-82663309D01*
X99530000Y-82713196D01*
X101130000Y-82713196D01*
X101360140Y-82669892D01*
X101571509Y-82533880D01*
X101713309Y-82326349D01*
X101763196Y-82080000D01*
X101763196Y-80480000D01*
X101719892Y-80249860D01*
X101583880Y-80038491D01*
X101499030Y-79980515D01*
X101499030Y-77571914D01*
X101698651Y-77708309D01*
X101945000Y-77758196D01*
X103795000Y-77758196D01*
X104025140Y-77714892D01*
X104236509Y-77578880D01*
X104378309Y-77371349D01*
X104386879Y-77329030D01*
X108392867Y-77329030D01*
X108435554Y-77371792D01*
X108672019Y-77469981D01*
X108437600Y-77566841D01*
X108393394Y-77610970D01*
X106680000Y-77610970D01*
X106247938Y-77696912D01*
X106174011Y-77746309D01*
X105881655Y-77941655D01*
X105881653Y-77941658D01*
X103341655Y-80481655D01*
X103096912Y-80847939D01*
X103010970Y-81280000D01*
X103010970Y-85892341D01*
X101155673Y-87747637D01*
X100873805Y-87559299D01*
X100330000Y-87451130D01*
X99786195Y-87559299D01*
X99325180Y-87867340D01*
X99060000Y-88264209D01*
X98794820Y-87867340D01*
X98333805Y-87559299D01*
X97790000Y-87451130D01*
X97246195Y-87559299D01*
X96785180Y-87867340D01*
X96520000Y-88264209D01*
X96254820Y-87867340D01*
X95793805Y-87559299D01*
X95250000Y-87451130D01*
X94706195Y-87559299D01*
X94245180Y-87867340D01*
X94060641Y-88143521D01*
X93822654Y-87787347D01*
X93811854Y-87776546D01*
X93301364Y-87435448D01*
X92699200Y-87315670D01*
X89464732Y-87315670D01*
X89666702Y-86876862D01*
X89698287Y-86060329D01*
X89414995Y-85293863D01*
X89325047Y-85159246D01*
X88912185Y-85108811D01*
X87631796Y-86389200D01*
X87645939Y-86403343D01*
X87644143Y-86405139D01*
X87630000Y-86390996D01*
X86349611Y-87671385D01*
X86383523Y-87948991D01*
X86320103Y-88012301D01*
X86254902Y-88169321D01*
X86176248Y-88287036D01*
X86148870Y-88424676D01*
X86084238Y-88580326D01*
X86084090Y-88750346D01*
X86056470Y-88889200D01*
X86083849Y-89026843D01*
X86083702Y-89195375D01*
X86148628Y-89352507D01*
X86176248Y-89491364D01*
X86254217Y-89608052D01*
X86318575Y-89763812D01*
X86438690Y-89884137D01*
X86444973Y-89893540D01*
X86263491Y-90010320D01*
X86121691Y-90217851D01*
X86071804Y-90464200D01*
X86071804Y-91312111D01*
X86056470Y-91389200D01*
X86056470Y-99190000D01*
X86176248Y-99792164D01*
X86517346Y-100302654D01*
X90159314Y-103944622D01*
X90158516Y-104859068D01*
X90556703Y-105822755D01*
X91293367Y-106560705D01*
X92256358Y-106960574D01*
X93299068Y-106961484D01*
X94262755Y-106563297D01*
X95000705Y-105826633D01*
X95400574Y-104863642D01*
X95401484Y-103820932D01*
X95003297Y-102857245D01*
X94266633Y-102119295D01*
X93303642Y-101719426D01*
X92383931Y-101718623D01*
X89203530Y-98538222D01*
X89203530Y-91389200D01*
X89188196Y-91312111D01*
X89188196Y-90464200D01*
X89187919Y-90462730D01*
X92655700Y-90462730D01*
X92710000Y-90473531D01*
X93312164Y-90353752D01*
X93822654Y-90012654D01*
X94060642Y-89656480D01*
X94120970Y-89746767D01*
X94120970Y-97310000D01*
X94206912Y-97742061D01*
X94451655Y-98108345D01*
X99806199Y-103462889D01*
X99659426Y-103816358D01*
X99658516Y-104859068D01*
X100056703Y-105822755D01*
X100793367Y-106560705D01*
X101756358Y-106960574D01*
X102799068Y-106961484D01*
X103762755Y-106563297D01*
X103929124Y-106397217D01*
X109724579Y-106397217D01*
X109905798Y-106921778D01*
X111036467Y-107442478D01*
X112280332Y-107490854D01*
X113448026Y-107059540D01*
X113654202Y-106921778D01*
X113835421Y-106397217D01*
X111780000Y-104341796D01*
X109724579Y-106397217D01*
X103929124Y-106397217D01*
X104500705Y-105826633D01*
X104900574Y-104863642D01*
X104900594Y-104840332D01*
X108629146Y-104840332D01*
X109060460Y-106008026D01*
X109198222Y-106214202D01*
X109722783Y-106395421D01*
X111778204Y-104340000D01*
X111781796Y-104340000D01*
X113837217Y-106395421D01*
X114361778Y-106214202D01*
X114882478Y-105083533D01*
X114930854Y-103839668D01*
X114499540Y-102671974D01*
X114361778Y-102465798D01*
X113837217Y-102284579D01*
X111781796Y-104340000D01*
X111778204Y-104340000D01*
X109722783Y-102284579D01*
X109198222Y-102465798D01*
X108677522Y-103596467D01*
X108629146Y-104840332D01*
X104900594Y-104840332D01*
X104901484Y-103820932D01*
X104503297Y-102857245D01*
X103929837Y-102282783D01*
X109724579Y-102282783D01*
X111780000Y-104338204D01*
X113835421Y-102282783D01*
X113654202Y-101758222D01*
X112523533Y-101237522D01*
X111279668Y-101189146D01*
X110111974Y-101620460D01*
X109905798Y-101758222D01*
X109724579Y-102282783D01*
X103929837Y-102282783D01*
X103766633Y-102119295D01*
X102803642Y-101719426D01*
X101760932Y-101718516D01*
X101403071Y-101866381D01*
X96379030Y-96842340D01*
X96379030Y-90451420D01*
X103988724Y-90451420D01*
X104204607Y-90973897D01*
X104604000Y-91373988D01*
X105126100Y-91590783D01*
X105691420Y-91591276D01*
X106213897Y-91375393D01*
X106227248Y-91362065D01*
X109219731Y-91362065D01*
X109254959Y-91761938D01*
X109952090Y-92082774D01*
X110718933Y-92112407D01*
X111438744Y-91846327D01*
X111565041Y-91761938D01*
X111600269Y-91362065D01*
X110410000Y-90171796D01*
X109219731Y-91362065D01*
X106227248Y-91362065D01*
X106613988Y-90976000D01*
X106820388Y-90478933D01*
X108467593Y-90478933D01*
X108733673Y-91198744D01*
X108818062Y-91325041D01*
X109217935Y-91360269D01*
X110408204Y-90170000D01*
X110411796Y-90170000D01*
X111602065Y-91360269D01*
X112001938Y-91325041D01*
X112322774Y-90627910D01*
X112352407Y-89861067D01*
X112086327Y-89141256D01*
X112001938Y-89014959D01*
X111602065Y-88979731D01*
X110411796Y-90170000D01*
X110408204Y-90170000D01*
X109217935Y-88979731D01*
X108818062Y-89014959D01*
X108497226Y-89712090D01*
X108467593Y-90478933D01*
X106820388Y-90478933D01*
X106830783Y-90453900D01*
X106831276Y-89888580D01*
X106615393Y-89366103D01*
X106227903Y-88977935D01*
X109219731Y-88977935D01*
X110410000Y-90168204D01*
X111600269Y-88977935D01*
X111565041Y-88578062D01*
X110867910Y-88257226D01*
X110101067Y-88227593D01*
X109381256Y-88493673D01*
X109254959Y-88578062D01*
X109219731Y-88977935D01*
X106227903Y-88977935D01*
X106216000Y-88966012D01*
X105693900Y-88749217D01*
X105128580Y-88748724D01*
X104606103Y-88964607D01*
X104206012Y-89364000D01*
X103989217Y-89886100D01*
X103988724Y-90451420D01*
X96379030Y-90451420D01*
X96379030Y-89746767D01*
X96520000Y-89535791D01*
X96785180Y-89932660D01*
X97246195Y-90240701D01*
X97790000Y-90348870D01*
X98333805Y-90240701D01*
X98794820Y-89932660D01*
X99060000Y-89535791D01*
X99325180Y-89932660D01*
X99786195Y-90240701D01*
X100330000Y-90348870D01*
X100873805Y-90240701D01*
X101190592Y-90029030D01*
X101600000Y-90029030D01*
X102032061Y-89943088D01*
X102398345Y-89698345D01*
X104938342Y-87158347D01*
X104938345Y-87158345D01*
X105145978Y-86847600D01*
X105183088Y-86792062D01*
X105197805Y-86718071D01*
X113501713Y-86718071D01*
X113785005Y-87484537D01*
X113874953Y-87619154D01*
X114287815Y-87669589D01*
X115568204Y-86389200D01*
X114287815Y-85108811D01*
X113874953Y-85159246D01*
X113533298Y-85901538D01*
X113501713Y-86718071D01*
X105197805Y-86718071D01*
X105269030Y-86360000D01*
X105269030Y-85107015D01*
X114289611Y-85107015D01*
X115570000Y-86387404D01*
X116850389Y-85107015D01*
X116799954Y-84694153D01*
X116057662Y-84352498D01*
X115241129Y-84320913D01*
X114474663Y-84604205D01*
X114340046Y-84694153D01*
X114289611Y-85107015D01*
X105269030Y-85107015D01*
X105269030Y-81747660D01*
X107147659Y-79869030D01*
X108392867Y-79869030D01*
X108435554Y-79911792D01*
X108672019Y-80009981D01*
X108437600Y-80106841D01*
X108048208Y-80495554D01*
X107837211Y-81003691D01*
X107836731Y-81553895D01*
X108046841Y-82062400D01*
X108435554Y-82451792D01*
X108943691Y-82662789D01*
X109493895Y-82663269D01*
X110002400Y-82453159D01*
X110391792Y-82064446D01*
X110602789Y-81556309D01*
X110603269Y-81006105D01*
X110393159Y-80497600D01*
X110004446Y-80108208D01*
X109767981Y-80010019D01*
X110002400Y-79913159D01*
X110391792Y-79524446D01*
X110602789Y-79016309D01*
X110603269Y-78466105D01*
X110393159Y-77957600D01*
X110004446Y-77568208D01*
X109767981Y-77470019D01*
X109956644Y-77392065D01*
X114379731Y-77392065D01*
X114414959Y-77791938D01*
X115112090Y-78112774D01*
X115878933Y-78142407D01*
X116598744Y-77876327D01*
X116725041Y-77791938D01*
X116760269Y-77392065D01*
X115570000Y-76201796D01*
X114379731Y-77392065D01*
X109956644Y-77392065D01*
X110002400Y-77373159D01*
X110391792Y-76984446D01*
X110589242Y-76508933D01*
X113627593Y-76508933D01*
X113893673Y-77228744D01*
X113978062Y-77355041D01*
X114377935Y-77390269D01*
X115568204Y-76200000D01*
X115571796Y-76200000D01*
X116762065Y-77390269D01*
X117161938Y-77355041D01*
X117482774Y-76657910D01*
X117489594Y-76481420D01*
X119148724Y-76481420D01*
X119364607Y-77003897D01*
X119764000Y-77403988D01*
X120286100Y-77620783D01*
X120851420Y-77621276D01*
X121373897Y-77405393D01*
X121773988Y-77006000D01*
X121990783Y-76483900D01*
X121991276Y-75918580D01*
X121775393Y-75396103D01*
X121376000Y-74996012D01*
X120853900Y-74779217D01*
X120288580Y-74778724D01*
X119766103Y-74994607D01*
X119366012Y-75394000D01*
X119149217Y-75916100D01*
X119148724Y-76481420D01*
X117489594Y-76481420D01*
X117512407Y-75891067D01*
X117246327Y-75171256D01*
X117161938Y-75044959D01*
X116762065Y-75009731D01*
X115571796Y-76200000D01*
X115568204Y-76200000D01*
X114377935Y-75009731D01*
X113978062Y-75044959D01*
X113657226Y-75742090D01*
X113627593Y-76508933D01*
X110589242Y-76508933D01*
X110602789Y-76476309D01*
X110603269Y-75926105D01*
X110393159Y-75417600D01*
X110004446Y-75028208D01*
X109955624Y-75007935D01*
X114379731Y-75007935D01*
X115570000Y-76198204D01*
X116760269Y-75007935D01*
X116725041Y-74608062D01*
X116027910Y-74287226D01*
X115261067Y-74257593D01*
X114541256Y-74523673D01*
X114414959Y-74608062D01*
X114379731Y-75007935D01*
X109955624Y-75007935D01*
X109496309Y-74817211D01*
X108946105Y-74816731D01*
X108437600Y-75026841D01*
X108393394Y-75070970D01*
X104389805Y-75070970D01*
X104384892Y-75044860D01*
X104248880Y-74833491D01*
X104041349Y-74691691D01*
X103795000Y-74641804D01*
X101945000Y-74641804D01*
X101714860Y-74685108D01*
X101503491Y-74821120D01*
X101371246Y-75014667D01*
X101246899Y-74890103D01*
X100678874Y-74654238D01*
X100063825Y-74653702D01*
X99495388Y-74888575D01*
X99060103Y-75323101D01*
X98919030Y-75662842D01*
X98919030Y-71678800D01*
X98833088Y-71246738D01*
X98588345Y-70880455D01*
X95337430Y-67629540D01*
X95337430Y-63105030D01*
X100508000Y-63105030D01*
X100940061Y-63019088D01*
X101306345Y-62774345D01*
X102831289Y-61249401D01*
X103184758Y-61396174D01*
X104227468Y-61397084D01*
X105191155Y-60998897D01*
X105929105Y-60262233D01*
X106328974Y-59299242D01*
X106328977Y-59294668D01*
X110586916Y-59294668D01*
X110985103Y-60258355D01*
X111721767Y-60996305D01*
X112684758Y-61396174D01*
X113727468Y-61397084D01*
X114085329Y-61249219D01*
X122060970Y-69224860D01*
X122060970Y-80433233D01*
X121920000Y-80644209D01*
X121654820Y-80247340D01*
X121193805Y-79939299D01*
X120650000Y-79831130D01*
X120106195Y-79939299D01*
X119645180Y-80247340D01*
X119337139Y-80708355D01*
X119228970Y-81252160D01*
X119228970Y-81307840D01*
X119337139Y-81851645D01*
X119645180Y-82312660D01*
X120106195Y-82620701D01*
X120650000Y-82728870D01*
X121193805Y-82620701D01*
X121654820Y-82312660D01*
X121920000Y-81915791D01*
X122185180Y-82312660D01*
X122646195Y-82620701D01*
X123190000Y-82728870D01*
X123733805Y-82620701D01*
X124194820Y-82312660D01*
X124460000Y-81915791D01*
X124725180Y-82312660D01*
X125186195Y-82620701D01*
X125730000Y-82728870D01*
X126273805Y-82620701D01*
X126734820Y-82312660D01*
X126848554Y-82142445D01*
X126880108Y-82310140D01*
X127016120Y-82521509D01*
X127223651Y-82663309D01*
X127470000Y-82713196D01*
X129070000Y-82713196D01*
X129300140Y-82669892D01*
X129511509Y-82533880D01*
X129653309Y-82326349D01*
X129703196Y-82080000D01*
X129703196Y-81443494D01*
X130378345Y-80768345D01*
X130623088Y-80402061D01*
X130709030Y-79970000D01*
X130709030Y-77571914D01*
X130908651Y-77708309D01*
X131155000Y-77758196D01*
X133005000Y-77758196D01*
X133235140Y-77714892D01*
X133446509Y-77578880D01*
X133588309Y-77371349D01*
X133596879Y-77329030D01*
X137602867Y-77329030D01*
X137645554Y-77371792D01*
X137882019Y-77469981D01*
X137647600Y-77566841D01*
X137603394Y-77610970D01*
X134620000Y-77610970D01*
X134187938Y-77696912D01*
X134114011Y-77746309D01*
X133821655Y-77941655D01*
X133821653Y-77941658D01*
X131281655Y-80481655D01*
X131036912Y-80847939D01*
X130950970Y-81280000D01*
X130950970Y-85892341D01*
X129095673Y-87747637D01*
X128813805Y-87559299D01*
X128270000Y-87451130D01*
X127726195Y-87559299D01*
X127265180Y-87867340D01*
X127000000Y-88264209D01*
X126734820Y-87867340D01*
X126273805Y-87559299D01*
X125730000Y-87451130D01*
X125186195Y-87559299D01*
X124725180Y-87867340D01*
X124460000Y-88264209D01*
X124194820Y-87867340D01*
X123733805Y-87559299D01*
X123190000Y-87451130D01*
X122646195Y-87559299D01*
X122185180Y-87867340D01*
X122000641Y-88143521D01*
X121762654Y-87787347D01*
X121751854Y-87776546D01*
X121241364Y-87435448D01*
X120639200Y-87315670D01*
X117404732Y-87315670D01*
X117606702Y-86876862D01*
X117638287Y-86060329D01*
X117354995Y-85293863D01*
X117265047Y-85159246D01*
X116852185Y-85108811D01*
X115571796Y-86389200D01*
X115585939Y-86403343D01*
X115584143Y-86405139D01*
X115570000Y-86390996D01*
X114289611Y-87671385D01*
X114323523Y-87948991D01*
X114260103Y-88012301D01*
X114194902Y-88169321D01*
X114116248Y-88287036D01*
X114088870Y-88424676D01*
X114024238Y-88580326D01*
X114024090Y-88750346D01*
X113996470Y-88889200D01*
X114023849Y-89026843D01*
X114023702Y-89195375D01*
X114088628Y-89352507D01*
X114116248Y-89491364D01*
X114194217Y-89608052D01*
X114258575Y-89763812D01*
X114378690Y-89884137D01*
X114384973Y-89893540D01*
X114203491Y-90010320D01*
X114061691Y-90217851D01*
X114011804Y-90464200D01*
X114011804Y-91312111D01*
X113996470Y-91389200D01*
X113996470Y-98630000D01*
X114116248Y-99232164D01*
X114457346Y-99742654D01*
X118659314Y-103944621D01*
X118658516Y-104859068D01*
X119056703Y-105822755D01*
X119793367Y-106560705D01*
X120756358Y-106960574D01*
X121799068Y-106961484D01*
X122762755Y-106563297D01*
X123500705Y-105826633D01*
X123900574Y-104863642D01*
X123901484Y-103820932D01*
X123503297Y-102857245D01*
X122766633Y-102119295D01*
X121803642Y-101719426D01*
X120883931Y-101718623D01*
X117143530Y-97978222D01*
X117143530Y-91389200D01*
X117128196Y-91312111D01*
X117128196Y-90464200D01*
X117127919Y-90462730D01*
X120595700Y-90462730D01*
X120650000Y-90473531D01*
X121252164Y-90353752D01*
X121762654Y-90012654D01*
X122000642Y-89656480D01*
X122060970Y-89746767D01*
X122060970Y-96750000D01*
X122146912Y-97182061D01*
X122391655Y-97548345D01*
X128306199Y-103462889D01*
X128159426Y-103816358D01*
X128158516Y-104859068D01*
X128556703Y-105822755D01*
X129293367Y-106560705D01*
X130256358Y-106960574D01*
X131299068Y-106961484D01*
X132262755Y-106563297D01*
X132429124Y-106397217D01*
X138224579Y-106397217D01*
X138405798Y-106921778D01*
X139536467Y-107442478D01*
X140780332Y-107490854D01*
X141948026Y-107059540D01*
X142154202Y-106921778D01*
X142335421Y-106397217D01*
X140280000Y-104341796D01*
X138224579Y-106397217D01*
X132429124Y-106397217D01*
X133000705Y-105826633D01*
X133400574Y-104863642D01*
X133400594Y-104840332D01*
X137129146Y-104840332D01*
X137560460Y-106008026D01*
X137698222Y-106214202D01*
X138222783Y-106395421D01*
X140278204Y-104340000D01*
X140281796Y-104340000D01*
X142337217Y-106395421D01*
X142861778Y-106214202D01*
X143382478Y-105083533D01*
X143430854Y-103839668D01*
X142999540Y-102671974D01*
X142861778Y-102465798D01*
X142337217Y-102284579D01*
X140281796Y-104340000D01*
X140278204Y-104340000D01*
X138222783Y-102284579D01*
X137698222Y-102465798D01*
X137177522Y-103596467D01*
X137129146Y-104840332D01*
X133400594Y-104840332D01*
X133401484Y-103820932D01*
X133003297Y-102857245D01*
X132429837Y-102282783D01*
X138224579Y-102282783D01*
X140280000Y-104338204D01*
X142335421Y-102282783D01*
X142154202Y-101758222D01*
X141023533Y-101237522D01*
X139779668Y-101189146D01*
X138611974Y-101620460D01*
X138405798Y-101758222D01*
X138224579Y-102282783D01*
X132429837Y-102282783D01*
X132266633Y-102119295D01*
X131303642Y-101719426D01*
X130260932Y-101718516D01*
X129903071Y-101866381D01*
X124319030Y-96282340D01*
X124319030Y-90451420D01*
X131928724Y-90451420D01*
X132144607Y-90973897D01*
X132544000Y-91373988D01*
X133066100Y-91590783D01*
X133631420Y-91591276D01*
X134153897Y-91375393D01*
X134167248Y-91362065D01*
X137159731Y-91362065D01*
X137194959Y-91761938D01*
X137892090Y-92082774D01*
X138658933Y-92112407D01*
X139378744Y-91846327D01*
X139505041Y-91761938D01*
X139540269Y-91362065D01*
X138350000Y-90171796D01*
X137159731Y-91362065D01*
X134167248Y-91362065D01*
X134553988Y-90976000D01*
X134760388Y-90478933D01*
X136407593Y-90478933D01*
X136673673Y-91198744D01*
X136758062Y-91325041D01*
X137157935Y-91360269D01*
X138348204Y-90170000D01*
X138351796Y-90170000D01*
X139542065Y-91360269D01*
X139941938Y-91325041D01*
X140262774Y-90627910D01*
X140292407Y-89861067D01*
X140026327Y-89141256D01*
X139941938Y-89014959D01*
X139542065Y-88979731D01*
X138351796Y-90170000D01*
X138348204Y-90170000D01*
X137157935Y-88979731D01*
X136758062Y-89014959D01*
X136437226Y-89712090D01*
X136407593Y-90478933D01*
X134760388Y-90478933D01*
X134770783Y-90453900D01*
X134771276Y-89888580D01*
X134555393Y-89366103D01*
X134167903Y-88977935D01*
X137159731Y-88977935D01*
X138350000Y-90168204D01*
X139540269Y-88977935D01*
X139532452Y-88889200D01*
X143257270Y-88889200D01*
X143284649Y-89026843D01*
X143284502Y-89195375D01*
X143349428Y-89352507D01*
X143377048Y-89491364D01*
X143455017Y-89608052D01*
X143519375Y-89763812D01*
X143639490Y-89884137D01*
X143645773Y-89893540D01*
X143464291Y-90010320D01*
X143322491Y-90217851D01*
X143272604Y-90464200D01*
X143272604Y-91312111D01*
X143257270Y-91389200D01*
X143257270Y-99390800D01*
X143377048Y-99992964D01*
X143718146Y-100503454D01*
X147159314Y-103944622D01*
X147158516Y-104859068D01*
X147556703Y-105822755D01*
X148293367Y-106560705D01*
X149256358Y-106960574D01*
X150299068Y-106961484D01*
X151262755Y-106563297D01*
X152000705Y-105826633D01*
X152400574Y-104863642D01*
X152401484Y-103820932D01*
X152003297Y-102857245D01*
X151266633Y-102119295D01*
X150303642Y-101719426D01*
X149383931Y-101718623D01*
X146404330Y-98739022D01*
X146404330Y-91389200D01*
X146388996Y-91312111D01*
X146388996Y-90464200D01*
X146388719Y-90462730D01*
X149805700Y-90462730D01*
X149860000Y-90473531D01*
X150462164Y-90353752D01*
X150972654Y-90012654D01*
X151210642Y-89656480D01*
X151270970Y-89746767D01*
X151270970Y-97460000D01*
X151356912Y-97892061D01*
X151601655Y-98258345D01*
X156806199Y-103462889D01*
X156659426Y-103816358D01*
X156658516Y-104859068D01*
X157056703Y-105822755D01*
X157793367Y-106560705D01*
X158756358Y-106960574D01*
X159799068Y-106961484D01*
X160762755Y-106563297D01*
X160929124Y-106397217D01*
X166724579Y-106397217D01*
X166905798Y-106921778D01*
X168036467Y-107442478D01*
X169280332Y-107490854D01*
X170448026Y-107059540D01*
X170654202Y-106921778D01*
X170835421Y-106397217D01*
X168780000Y-104341796D01*
X166724579Y-106397217D01*
X160929124Y-106397217D01*
X161500705Y-105826633D01*
X161900574Y-104863642D01*
X161900594Y-104840332D01*
X165629146Y-104840332D01*
X166060460Y-106008026D01*
X166198222Y-106214202D01*
X166722783Y-106395421D01*
X168778204Y-104340000D01*
X168781796Y-104340000D01*
X170837217Y-106395421D01*
X171361778Y-106214202D01*
X171882478Y-105083533D01*
X171930854Y-103839668D01*
X171499540Y-102671974D01*
X171361778Y-102465798D01*
X170837217Y-102284579D01*
X168781796Y-104340000D01*
X168778204Y-104340000D01*
X166722783Y-102284579D01*
X166198222Y-102465798D01*
X165677522Y-103596467D01*
X165629146Y-104840332D01*
X161900594Y-104840332D01*
X161901484Y-103820932D01*
X161503297Y-102857245D01*
X160929837Y-102282783D01*
X166724579Y-102282783D01*
X168780000Y-104338204D01*
X170835421Y-102282783D01*
X170654202Y-101758222D01*
X169523533Y-101237522D01*
X168279668Y-101189146D01*
X167111974Y-101620460D01*
X166905798Y-101758222D01*
X166724579Y-102282783D01*
X160929837Y-102282783D01*
X160766633Y-102119295D01*
X159803642Y-101719426D01*
X158760932Y-101718516D01*
X158403071Y-101866381D01*
X153529030Y-96992340D01*
X153529030Y-90451420D01*
X159868724Y-90451420D01*
X160084607Y-90973897D01*
X160484000Y-91373988D01*
X161006100Y-91590783D01*
X161571420Y-91591276D01*
X162093897Y-91375393D01*
X162107248Y-91362065D01*
X165099731Y-91362065D01*
X165134959Y-91761938D01*
X165832090Y-92082774D01*
X166598933Y-92112407D01*
X167318744Y-91846327D01*
X167445041Y-91761938D01*
X167480269Y-91362065D01*
X166290000Y-90171796D01*
X165099731Y-91362065D01*
X162107248Y-91362065D01*
X162493988Y-90976000D01*
X162700388Y-90478933D01*
X164347593Y-90478933D01*
X164613673Y-91198744D01*
X164698062Y-91325041D01*
X165097935Y-91360269D01*
X166288204Y-90170000D01*
X166291796Y-90170000D01*
X167482065Y-91360269D01*
X167881938Y-91325041D01*
X168202774Y-90627910D01*
X168232407Y-89861067D01*
X167966327Y-89141256D01*
X167881938Y-89014959D01*
X167482065Y-88979731D01*
X166291796Y-90170000D01*
X166288204Y-90170000D01*
X165097935Y-88979731D01*
X164698062Y-89014959D01*
X164377226Y-89712090D01*
X164347593Y-90478933D01*
X162700388Y-90478933D01*
X162710783Y-90453900D01*
X162711276Y-89888580D01*
X162495393Y-89366103D01*
X162107903Y-88977935D01*
X165099731Y-88977935D01*
X166290000Y-90168204D01*
X167480269Y-88977935D01*
X167472452Y-88889200D01*
X171197270Y-88889200D01*
X171224649Y-89026843D01*
X171224502Y-89195375D01*
X171289428Y-89352507D01*
X171317048Y-89491364D01*
X171395017Y-89608052D01*
X171459375Y-89763812D01*
X171579490Y-89884137D01*
X171585773Y-89893540D01*
X171404291Y-90010320D01*
X171262491Y-90217851D01*
X171212604Y-90464200D01*
X171212604Y-91312111D01*
X171197270Y-91389200D01*
X171197270Y-98830800D01*
X171317048Y-99432964D01*
X171658146Y-99943454D01*
X175659314Y-103944621D01*
X175658516Y-104859068D01*
X176056703Y-105822755D01*
X176793367Y-106560705D01*
X177756358Y-106960574D01*
X178799068Y-106961484D01*
X179762755Y-106563297D01*
X180500705Y-105826633D01*
X180900574Y-104863642D01*
X180901484Y-103820932D01*
X180503297Y-102857245D01*
X179766633Y-102119295D01*
X178803642Y-101719426D01*
X177883931Y-101718623D01*
X174344330Y-98179022D01*
X174344330Y-91389200D01*
X174328996Y-91312111D01*
X174328996Y-90464200D01*
X174328719Y-90462730D01*
X177745700Y-90462730D01*
X177800000Y-90473531D01*
X178402164Y-90353752D01*
X178912654Y-90012654D01*
X179150642Y-89656480D01*
X179210970Y-89746767D01*
X179210970Y-96900000D01*
X179296912Y-97332061D01*
X179541655Y-97698345D01*
X185306199Y-103462889D01*
X185159426Y-103816358D01*
X185158516Y-104859068D01*
X185556703Y-105822755D01*
X186293367Y-106560705D01*
X187256358Y-106960574D01*
X188299068Y-106961484D01*
X189262755Y-106563297D01*
X189429124Y-106397217D01*
X195224579Y-106397217D01*
X195405798Y-106921778D01*
X196536467Y-107442478D01*
X197780332Y-107490854D01*
X198948026Y-107059540D01*
X199154202Y-106921778D01*
X199335421Y-106397217D01*
X197280000Y-104341796D01*
X195224579Y-106397217D01*
X189429124Y-106397217D01*
X190000705Y-105826633D01*
X190400574Y-104863642D01*
X190400594Y-104840332D01*
X194129146Y-104840332D01*
X194560460Y-106008026D01*
X194698222Y-106214202D01*
X195222783Y-106395421D01*
X197278204Y-104340000D01*
X197281796Y-104340000D01*
X199337217Y-106395421D01*
X199861778Y-106214202D01*
X200382478Y-105083533D01*
X200430854Y-103839668D01*
X199999540Y-102671974D01*
X199861778Y-102465798D01*
X199337217Y-102284579D01*
X197281796Y-104340000D01*
X197278204Y-104340000D01*
X195222783Y-102284579D01*
X194698222Y-102465798D01*
X194177522Y-103596467D01*
X194129146Y-104840332D01*
X190400594Y-104840332D01*
X190401484Y-103820932D01*
X190003297Y-102857245D01*
X189429837Y-102282783D01*
X195224579Y-102282783D01*
X197280000Y-104338204D01*
X199335421Y-102282783D01*
X199154202Y-101758222D01*
X198023533Y-101237522D01*
X196779668Y-101189146D01*
X195611974Y-101620460D01*
X195405798Y-101758222D01*
X195224579Y-102282783D01*
X189429837Y-102282783D01*
X189266633Y-102119295D01*
X188303642Y-101719426D01*
X187260932Y-101718516D01*
X186903071Y-101866381D01*
X181469030Y-96432340D01*
X181469030Y-90451420D01*
X187808724Y-90451420D01*
X188024607Y-90973897D01*
X188424000Y-91373988D01*
X188946100Y-91590783D01*
X189511420Y-91591276D01*
X190033897Y-91375393D01*
X190047248Y-91362065D01*
X193039731Y-91362065D01*
X193074959Y-91761938D01*
X193772090Y-92082774D01*
X194538933Y-92112407D01*
X195258744Y-91846327D01*
X195385041Y-91761938D01*
X195420269Y-91362065D01*
X194230000Y-90171796D01*
X193039731Y-91362065D01*
X190047248Y-91362065D01*
X190433988Y-90976000D01*
X190640388Y-90478933D01*
X192287593Y-90478933D01*
X192553673Y-91198744D01*
X192638062Y-91325041D01*
X193037935Y-91360269D01*
X194228204Y-90170000D01*
X194231796Y-90170000D01*
X195422065Y-91360269D01*
X195821938Y-91325041D01*
X196142774Y-90627910D01*
X196172407Y-89861067D01*
X196168317Y-89850000D01*
X200356470Y-89850000D01*
X200356470Y-93980000D01*
X200476248Y-94582164D01*
X200817346Y-95092654D01*
X201327836Y-95433752D01*
X201930000Y-95553530D01*
X202532164Y-95433752D01*
X203042654Y-95092654D01*
X203383752Y-94582164D01*
X203503530Y-93980000D01*
X203503530Y-93839068D01*
X212008516Y-93839068D01*
X212406703Y-94802755D01*
X213143367Y-95540705D01*
X214106358Y-95940574D01*
X215149068Y-95941484D01*
X216112755Y-95543297D01*
X216850705Y-94806633D01*
X217250574Y-93843642D01*
X217251484Y-92800932D01*
X216853297Y-91837245D01*
X216116633Y-91099295D01*
X215153642Y-90699426D01*
X214110932Y-90698516D01*
X213147245Y-91096703D01*
X212409295Y-91833367D01*
X212009426Y-92796358D01*
X212008516Y-93839068D01*
X203503530Y-93839068D01*
X203503530Y-89850000D01*
X203383752Y-89247836D01*
X203293777Y-89113178D01*
X203434030Y-88774578D01*
X203434030Y-88233527D01*
X203151773Y-87951270D01*
X201931270Y-87951270D01*
X201931270Y-87971270D01*
X201928730Y-87971270D01*
X201928730Y-87951270D01*
X200708227Y-87951270D01*
X200425970Y-88233527D01*
X200425970Y-88774578D01*
X200566223Y-89113178D01*
X200476248Y-89247836D01*
X200356470Y-89850000D01*
X196168317Y-89850000D01*
X195906327Y-89141256D01*
X195821938Y-89014959D01*
X195422065Y-88979731D01*
X194231796Y-90170000D01*
X194228204Y-90170000D01*
X193037935Y-88979731D01*
X192638062Y-89014959D01*
X192317226Y-89712090D01*
X192287593Y-90478933D01*
X190640388Y-90478933D01*
X190650783Y-90453900D01*
X190651276Y-89888580D01*
X190435393Y-89366103D01*
X190047903Y-88977935D01*
X193039731Y-88977935D01*
X194230000Y-90168204D01*
X195420269Y-88977935D01*
X195385041Y-88578062D01*
X194687910Y-88257226D01*
X193921067Y-88227593D01*
X193201256Y-88493673D01*
X193074959Y-88578062D01*
X193039731Y-88977935D01*
X190047903Y-88977935D01*
X190036000Y-88966012D01*
X189513900Y-88749217D01*
X188948580Y-88748724D01*
X188426103Y-88964607D01*
X188026012Y-89364000D01*
X187809217Y-89886100D01*
X187808724Y-90451420D01*
X181469030Y-90451420D01*
X181469030Y-89746767D01*
X181610000Y-89535791D01*
X181875180Y-89932660D01*
X182336195Y-90240701D01*
X182880000Y-90348870D01*
X183423805Y-90240701D01*
X183884820Y-89932660D01*
X184150000Y-89535791D01*
X184415180Y-89932660D01*
X184876195Y-90240701D01*
X185420000Y-90348870D01*
X185963805Y-90240701D01*
X186280592Y-90029030D01*
X186690000Y-90029030D01*
X187122061Y-89943088D01*
X187488345Y-89698345D01*
X190028342Y-87158347D01*
X190028345Y-87158345D01*
X190050343Y-87125422D01*
X200425970Y-87125422D01*
X200425970Y-87666473D01*
X200708227Y-87948730D01*
X201928730Y-87948730D01*
X201928730Y-86503227D01*
X201931270Y-86503227D01*
X201931270Y-87948730D01*
X203151773Y-87948730D01*
X203434030Y-87666473D01*
X203434030Y-87125422D01*
X203262145Y-86710456D01*
X202944544Y-86392855D01*
X202529578Y-86220970D01*
X202213527Y-86220970D01*
X201931270Y-86503227D01*
X201928730Y-86503227D01*
X201646473Y-86220970D01*
X201330422Y-86220970D01*
X200915456Y-86392855D01*
X200597855Y-86710456D01*
X200425970Y-87125422D01*
X190050343Y-87125422D01*
X190235978Y-86847600D01*
X190273088Y-86792062D01*
X190359030Y-86360000D01*
X190359030Y-85877217D01*
X212574579Y-85877217D01*
X212755798Y-86401778D01*
X213886467Y-86922478D01*
X215130332Y-86970854D01*
X216298026Y-86539540D01*
X216504202Y-86401778D01*
X216685421Y-85877217D01*
X214630000Y-83821796D01*
X212574579Y-85877217D01*
X190359030Y-85877217D01*
X190359030Y-84320332D01*
X211479146Y-84320332D01*
X211910460Y-85488026D01*
X212048222Y-85694202D01*
X212572783Y-85875421D01*
X214628204Y-83820000D01*
X214631796Y-83820000D01*
X216687217Y-85875421D01*
X217211778Y-85694202D01*
X217732478Y-84563533D01*
X217780854Y-83319668D01*
X217349540Y-82151974D01*
X217211778Y-81945798D01*
X216687217Y-81764579D01*
X214631796Y-83820000D01*
X214628204Y-83820000D01*
X212572783Y-81764579D01*
X212048222Y-81945798D01*
X211527522Y-83076467D01*
X211479146Y-84320332D01*
X190359030Y-84320332D01*
X190359030Y-81747660D01*
X192237659Y-79869030D01*
X194752867Y-79869030D01*
X194795554Y-79911792D01*
X195032019Y-80009981D01*
X194797600Y-80106841D01*
X194408208Y-80495554D01*
X194197211Y-81003691D01*
X194196731Y-81553895D01*
X194406841Y-82062400D01*
X194795554Y-82451792D01*
X195303691Y-82662789D01*
X195853895Y-82663269D01*
X196362400Y-82453159D01*
X196751792Y-82064446D01*
X196877053Y-81762783D01*
X212574579Y-81762783D01*
X214630000Y-83818204D01*
X216685421Y-81762783D01*
X216504202Y-81238222D01*
X215373533Y-80717522D01*
X214129668Y-80669146D01*
X212961974Y-81100460D01*
X212755798Y-81238222D01*
X212574579Y-81762783D01*
X196877053Y-81762783D01*
X196962789Y-81556309D01*
X196963269Y-81006105D01*
X196753159Y-80497600D01*
X196364446Y-80108208D01*
X196127981Y-80010019D01*
X196362400Y-79913159D01*
X196751792Y-79524446D01*
X196962789Y-79016309D01*
X196963061Y-78703527D01*
X200425970Y-78703527D01*
X200425970Y-79244578D01*
X200597855Y-79659544D01*
X200915456Y-79977145D01*
X201330422Y-80149030D01*
X201646473Y-80149030D01*
X201928730Y-79866773D01*
X201928730Y-78421270D01*
X201931270Y-78421270D01*
X201931270Y-79866773D01*
X202213527Y-80149030D01*
X202529578Y-80149030D01*
X202944544Y-79977145D01*
X203262145Y-79659544D01*
X203434030Y-79244578D01*
X203434030Y-78703527D01*
X203151773Y-78421270D01*
X201931270Y-78421270D01*
X201928730Y-78421270D01*
X200708227Y-78421270D01*
X200425970Y-78703527D01*
X196963061Y-78703527D01*
X196963269Y-78466105D01*
X196753159Y-77957600D01*
X196364446Y-77568208D01*
X196127981Y-77470019D01*
X196362400Y-77373159D01*
X196751792Y-76984446D01*
X196962789Y-76476309D01*
X196963269Y-75926105D01*
X196753159Y-75417600D01*
X196364446Y-75028208D01*
X195856309Y-74817211D01*
X195306105Y-74816731D01*
X194797600Y-75026841D01*
X194753394Y-75070970D01*
X190749805Y-75070970D01*
X190744892Y-75044860D01*
X190608880Y-74833491D01*
X190401349Y-74691691D01*
X190155000Y-74641804D01*
X188305000Y-74641804D01*
X188074860Y-74685108D01*
X187863491Y-74821120D01*
X187731246Y-75014667D01*
X187606899Y-74890103D01*
X187038874Y-74654238D01*
X186423825Y-74653702D01*
X185855388Y-74888575D01*
X185420103Y-75323101D01*
X185184238Y-75891126D01*
X185183702Y-76506175D01*
X185418575Y-77074612D01*
X185600970Y-77257326D01*
X185600970Y-79502340D01*
X185256506Y-79846804D01*
X184620000Y-79846804D01*
X184389860Y-79890108D01*
X184178491Y-80026120D01*
X184036691Y-80233651D01*
X184009030Y-80370245D01*
X184009030Y-76309406D01*
X186637240Y-73660000D01*
X200356470Y-73660000D01*
X200356470Y-76520000D01*
X200476248Y-77122164D01*
X200566223Y-77256822D01*
X200425970Y-77595422D01*
X200425970Y-78136473D01*
X200708227Y-78418730D01*
X201928730Y-78418730D01*
X201928730Y-78398730D01*
X201931270Y-78398730D01*
X201931270Y-78418730D01*
X203151773Y-78418730D01*
X203434030Y-78136473D01*
X203434030Y-77595422D01*
X203293777Y-77256822D01*
X203383752Y-77122164D01*
X203503530Y-76520000D01*
X203503530Y-74839068D01*
X212008516Y-74839068D01*
X212406703Y-75802755D01*
X213143367Y-76540705D01*
X214106358Y-76940574D01*
X215149068Y-76941484D01*
X216112755Y-76543297D01*
X216850705Y-75806633D01*
X217250574Y-74843642D01*
X217251484Y-73800932D01*
X216853297Y-72837245D01*
X216116633Y-72099295D01*
X215153642Y-71699426D01*
X214110932Y-71698516D01*
X213147245Y-72096703D01*
X212409295Y-72833367D01*
X212009426Y-73796358D01*
X212008516Y-74839068D01*
X203503530Y-74839068D01*
X203503530Y-73660000D01*
X203383752Y-73057836D01*
X203042654Y-72547346D01*
X202532164Y-72206248D01*
X201930000Y-72086470D01*
X201327836Y-72206248D01*
X200817346Y-72547346D01*
X200476248Y-73057836D01*
X200356470Y-73660000D01*
X186637240Y-73660000D01*
X195948717Y-64273430D01*
X199237600Y-64273430D01*
X199669661Y-64187488D01*
X200035945Y-63942745D01*
X200280688Y-63576461D01*
X200332939Y-63313774D01*
X202009446Y-61289520D01*
X202143958Y-61345374D01*
X203186668Y-61346284D01*
X204150355Y-60948097D01*
X204316724Y-60782017D01*
X210112179Y-60782017D01*
X210293398Y-61306578D01*
X211424067Y-61827278D01*
X212667932Y-61875654D01*
X213835626Y-61444340D01*
X214041802Y-61306578D01*
X214223021Y-60782017D01*
X212167600Y-58726596D01*
X210112179Y-60782017D01*
X204316724Y-60782017D01*
X204888305Y-60211433D01*
X205288174Y-59248442D01*
X205288194Y-59225132D01*
X209016746Y-59225132D01*
X209448060Y-60392826D01*
X209585822Y-60599002D01*
X210110383Y-60780221D01*
X212165804Y-58724800D01*
X212169396Y-58724800D01*
X214224817Y-60780221D01*
X214749378Y-60599002D01*
X215270078Y-59468333D01*
X215318454Y-58224468D01*
X214887140Y-57056774D01*
X214749378Y-56850598D01*
X214224817Y-56669379D01*
X212169396Y-58724800D01*
X212165804Y-58724800D01*
X210110383Y-56669379D01*
X209585822Y-56850598D01*
X209065122Y-57981267D01*
X209016746Y-59225132D01*
X205288194Y-59225132D01*
X205289084Y-58205732D01*
X204890897Y-57242045D01*
X204317437Y-56667583D01*
X210112179Y-56667583D01*
X212167600Y-58723004D01*
X214223021Y-56667583D01*
X214041802Y-56143022D01*
X212911133Y-55622322D01*
X211667268Y-55573946D01*
X210499574Y-56005260D01*
X210293398Y-56143022D01*
X210112179Y-56667583D01*
X204317437Y-56667583D01*
X204154233Y-56504095D01*
X203191242Y-56104226D01*
X202148532Y-56103316D01*
X201184845Y-56501503D01*
X200446895Y-57238167D01*
X200047026Y-58201158D01*
X200046116Y-59243868D01*
X200287632Y-59828382D01*
X198476348Y-62015370D01*
X195478400Y-62015370D01*
X195476134Y-62015821D01*
X195473865Y-62015379D01*
X195260197Y-62058773D01*
X195046339Y-62101312D01*
X195044417Y-62102596D01*
X195042153Y-62103056D01*
X194861378Y-62224899D01*
X194680055Y-62346055D01*
X194678771Y-62347977D01*
X194676855Y-62349268D01*
X194215681Y-62814162D01*
X194296630Y-62407200D01*
X194296630Y-61094253D01*
X194650355Y-60948097D01*
X195388305Y-60211433D01*
X195788174Y-59248442D01*
X195789084Y-58205732D01*
X195390897Y-57242045D01*
X194654233Y-56504095D01*
X193691242Y-56104226D01*
X192648532Y-56103316D01*
X191684845Y-56501503D01*
X190946895Y-57238167D01*
X190547026Y-58201158D01*
X190546116Y-59243868D01*
X190944303Y-60207555D01*
X191680967Y-60945505D01*
X192038570Y-61093995D01*
X192038570Y-61939540D01*
X179541655Y-74436455D01*
X179296912Y-74802739D01*
X179210970Y-75234800D01*
X179210970Y-80433233D01*
X179070000Y-80644209D01*
X178804820Y-80247340D01*
X178343805Y-79939299D01*
X177800000Y-79831130D01*
X177256195Y-79939299D01*
X176795180Y-80247340D01*
X176487139Y-80708355D01*
X176378970Y-81252160D01*
X176378970Y-81307840D01*
X176487139Y-81851645D01*
X176795180Y-82312660D01*
X177256195Y-82620701D01*
X177800000Y-82728870D01*
X178343805Y-82620701D01*
X178804820Y-82312660D01*
X179070000Y-81915791D01*
X179335180Y-82312660D01*
X179796195Y-82620701D01*
X180340000Y-82728870D01*
X180883805Y-82620701D01*
X181344820Y-82312660D01*
X181610000Y-81915791D01*
X181875180Y-82312660D01*
X182336195Y-82620701D01*
X182880000Y-82728870D01*
X183423805Y-82620701D01*
X183884820Y-82312660D01*
X183998554Y-82142445D01*
X184030108Y-82310140D01*
X184166120Y-82521509D01*
X184373651Y-82663309D01*
X184620000Y-82713196D01*
X186220000Y-82713196D01*
X186450140Y-82669892D01*
X186661509Y-82533880D01*
X186803309Y-82326349D01*
X186853196Y-82080000D01*
X186853196Y-81443494D01*
X187528345Y-80768345D01*
X187773088Y-80402061D01*
X187859030Y-79970000D01*
X187859030Y-77571914D01*
X188058651Y-77708309D01*
X188305000Y-77758196D01*
X190155000Y-77758196D01*
X190385140Y-77714892D01*
X190596509Y-77578880D01*
X190738309Y-77371349D01*
X190746879Y-77329030D01*
X194752867Y-77329030D01*
X194795554Y-77371792D01*
X195032019Y-77469981D01*
X194797600Y-77566841D01*
X194753394Y-77610970D01*
X191770000Y-77610970D01*
X191337938Y-77696912D01*
X191264011Y-77746309D01*
X190971655Y-77941655D01*
X190971653Y-77941658D01*
X188431655Y-80481655D01*
X188186912Y-80847939D01*
X188100970Y-81280000D01*
X188100970Y-85892341D01*
X186245673Y-87747637D01*
X185963805Y-87559299D01*
X185420000Y-87451130D01*
X184876195Y-87559299D01*
X184415180Y-87867340D01*
X184150000Y-88264209D01*
X183884820Y-87867340D01*
X183423805Y-87559299D01*
X182880000Y-87451130D01*
X182336195Y-87559299D01*
X181875180Y-87867340D01*
X181610000Y-88264209D01*
X181344820Y-87867340D01*
X180883805Y-87559299D01*
X180340000Y-87451130D01*
X179796195Y-87559299D01*
X179335180Y-87867340D01*
X179150641Y-88143521D01*
X178912654Y-87787347D01*
X178901854Y-87776546D01*
X178391364Y-87435448D01*
X177789200Y-87315670D01*
X174605532Y-87315670D01*
X174807502Y-86876862D01*
X174839087Y-86060329D01*
X174555795Y-85293863D01*
X174465847Y-85159246D01*
X174052985Y-85108811D01*
X172772596Y-86389200D01*
X172786739Y-86403343D01*
X172784943Y-86405139D01*
X172770800Y-86390996D01*
X171490411Y-87671385D01*
X171524323Y-87948991D01*
X171460903Y-88012301D01*
X171395702Y-88169321D01*
X171317048Y-88287036D01*
X171289670Y-88424676D01*
X171225038Y-88580326D01*
X171224890Y-88750346D01*
X171197270Y-88889200D01*
X167472452Y-88889200D01*
X167445041Y-88578062D01*
X166747910Y-88257226D01*
X165981067Y-88227593D01*
X165261256Y-88493673D01*
X165134959Y-88578062D01*
X165099731Y-88977935D01*
X162107903Y-88977935D01*
X162096000Y-88966012D01*
X161573900Y-88749217D01*
X161008580Y-88748724D01*
X160486103Y-88964607D01*
X160086012Y-89364000D01*
X159869217Y-89886100D01*
X159868724Y-90451420D01*
X153529030Y-90451420D01*
X153529030Y-89746767D01*
X153670000Y-89535791D01*
X153935180Y-89932660D01*
X154396195Y-90240701D01*
X154940000Y-90348870D01*
X155483805Y-90240701D01*
X155944820Y-89932660D01*
X156210000Y-89535791D01*
X156475180Y-89932660D01*
X156936195Y-90240701D01*
X157480000Y-90348870D01*
X158023805Y-90240701D01*
X158340592Y-90029030D01*
X158750000Y-90029030D01*
X159182061Y-89943088D01*
X159548345Y-89698345D01*
X160818345Y-88428345D01*
X161063088Y-88062061D01*
X161149030Y-87630000D01*
X161149030Y-86718071D01*
X170702513Y-86718071D01*
X170985805Y-87484537D01*
X171075753Y-87619154D01*
X171488615Y-87669589D01*
X172769004Y-86389200D01*
X171488615Y-85108811D01*
X171075753Y-85159246D01*
X170734098Y-85901538D01*
X170702513Y-86718071D01*
X161149030Y-86718071D01*
X161149030Y-85107015D01*
X171490411Y-85107015D01*
X172770800Y-86387404D01*
X174051189Y-85107015D01*
X174000754Y-84694153D01*
X173258462Y-84352498D01*
X172441929Y-84320913D01*
X171675463Y-84604205D01*
X171540846Y-84694153D01*
X171490411Y-85107015D01*
X161149030Y-85107015D01*
X161149030Y-84287660D01*
X165555252Y-79881438D01*
X165585554Y-79911792D01*
X165822019Y-80009981D01*
X165587600Y-80106841D01*
X165198208Y-80495554D01*
X164987211Y-81003691D01*
X164986731Y-81553895D01*
X165196841Y-82062400D01*
X165585554Y-82451792D01*
X166093691Y-82662789D01*
X166643895Y-82663269D01*
X167152400Y-82453159D01*
X167541792Y-82064446D01*
X167752789Y-81556309D01*
X167753269Y-81006105D01*
X167543159Y-80497600D01*
X167154446Y-80108208D01*
X166917981Y-80010019D01*
X167152400Y-79913159D01*
X167541792Y-79524446D01*
X167752789Y-79016309D01*
X167753269Y-78466105D01*
X167543159Y-77957600D01*
X167154446Y-77568208D01*
X166917981Y-77470019D01*
X167106644Y-77392065D01*
X171529731Y-77392065D01*
X171564959Y-77791938D01*
X172262090Y-78112774D01*
X173028933Y-78142407D01*
X173748744Y-77876327D01*
X173875041Y-77791938D01*
X173910269Y-77392065D01*
X172720000Y-76201796D01*
X171529731Y-77392065D01*
X167106644Y-77392065D01*
X167152400Y-77373159D01*
X167541792Y-76984446D01*
X167739242Y-76508933D01*
X170777593Y-76508933D01*
X171043673Y-77228744D01*
X171128062Y-77355041D01*
X171527935Y-77390269D01*
X172718204Y-76200000D01*
X172721796Y-76200000D01*
X173912065Y-77390269D01*
X174311938Y-77355041D01*
X174632774Y-76657910D01*
X174639594Y-76481420D01*
X176298724Y-76481420D01*
X176514607Y-77003897D01*
X176914000Y-77403988D01*
X177436100Y-77620783D01*
X178001420Y-77621276D01*
X178523897Y-77405393D01*
X178923988Y-77006000D01*
X179140783Y-76483900D01*
X179141276Y-75918580D01*
X178925393Y-75396103D01*
X178526000Y-74996012D01*
X178003900Y-74779217D01*
X177438580Y-74778724D01*
X176916103Y-74994607D01*
X176516012Y-75394000D01*
X176299217Y-75916100D01*
X176298724Y-76481420D01*
X174639594Y-76481420D01*
X174662407Y-75891067D01*
X174396327Y-75171256D01*
X174311938Y-75044959D01*
X173912065Y-75009731D01*
X172721796Y-76200000D01*
X172718204Y-76200000D01*
X171527935Y-75009731D01*
X171128062Y-75044959D01*
X170807226Y-75742090D01*
X170777593Y-76508933D01*
X167739242Y-76508933D01*
X167752789Y-76476309D01*
X167753269Y-75926105D01*
X167543159Y-75417600D01*
X167154446Y-75028208D01*
X167105624Y-75007935D01*
X171529731Y-75007935D01*
X172720000Y-76198204D01*
X173910269Y-75007935D01*
X173875041Y-74608062D01*
X173177910Y-74287226D01*
X172411067Y-74257593D01*
X171691256Y-74523673D01*
X171564959Y-74608062D01*
X171529731Y-75007935D01*
X167105624Y-75007935D01*
X166646309Y-74817211D01*
X166096105Y-74816731D01*
X165587600Y-75026841D01*
X165543394Y-75070970D01*
X161539805Y-75070970D01*
X161534892Y-75044860D01*
X161398880Y-74833491D01*
X161191349Y-74691691D01*
X160945000Y-74641804D01*
X159095000Y-74641804D01*
X158864860Y-74685108D01*
X158653491Y-74821120D01*
X158521246Y-75014667D01*
X158396899Y-74890103D01*
X157828874Y-74654238D01*
X157213825Y-74653702D01*
X156790456Y-74828634D01*
X163027660Y-68591430D01*
X169570400Y-68591430D01*
X170002461Y-68505488D01*
X170368745Y-68260745D01*
X174635259Y-63994230D01*
X181178000Y-63994230D01*
X181610061Y-63908288D01*
X181976345Y-63663545D01*
X184368905Y-61270985D01*
X185150355Y-60948097D01*
X185888305Y-60211433D01*
X186288174Y-59248442D01*
X186289084Y-58205732D01*
X185890897Y-57242045D01*
X185154233Y-56504095D01*
X184191242Y-56104226D01*
X183148532Y-56103316D01*
X182184845Y-56501503D01*
X181446895Y-57238167D01*
X181047026Y-58201158D01*
X181046116Y-59243868D01*
X181444303Y-60207555D01*
X181841282Y-60605228D01*
X180710340Y-61736170D01*
X175296630Y-61736170D01*
X175296630Y-61094253D01*
X175650355Y-60948097D01*
X176388305Y-60211433D01*
X176788174Y-59248442D01*
X176789084Y-58205732D01*
X176390897Y-57242045D01*
X175654233Y-56504095D01*
X174691242Y-56104226D01*
X173648532Y-56103316D01*
X172684845Y-56501503D01*
X171946895Y-57238167D01*
X171547026Y-58201158D01*
X171546116Y-59243868D01*
X171944303Y-60207555D01*
X172680967Y-60945505D01*
X173038570Y-61093995D01*
X173038570Y-62397541D01*
X169102740Y-66333370D01*
X162560000Y-66333370D01*
X162127938Y-66419312D01*
X161761655Y-66664055D01*
X154141655Y-74284055D01*
X153896912Y-74650339D01*
X153810970Y-75082400D01*
X153810970Y-80433233D01*
X153670000Y-80644209D01*
X153529030Y-80433233D01*
X153529030Y-74584860D01*
X162139145Y-65974744D01*
X162149241Y-65959635D01*
X162164025Y-65949064D01*
X162271259Y-65777022D01*
X162383888Y-65608461D01*
X162387434Y-65590636D01*
X162397046Y-65575214D01*
X162430276Y-65375253D01*
X162469831Y-65176400D01*
X162466285Y-65158573D01*
X162469264Y-65140648D01*
X162405724Y-63135068D01*
X163981682Y-61277991D01*
X164143958Y-61345374D01*
X165186668Y-61346284D01*
X166150355Y-60948097D01*
X166888305Y-60211433D01*
X167288174Y-59248442D01*
X167289084Y-58205732D01*
X166890897Y-57242045D01*
X166154233Y-56504095D01*
X165191242Y-56104226D01*
X164148532Y-56103316D01*
X163184845Y-56501503D01*
X162446895Y-57238167D01*
X162047026Y-58201158D01*
X162046116Y-59243868D01*
X162275406Y-59798794D01*
X161323358Y-60920668D01*
X158329145Y-57926455D01*
X157962861Y-57681712D01*
X157537613Y-57597125D01*
X157390897Y-57242045D01*
X156654233Y-56504095D01*
X155691242Y-56104226D01*
X154648532Y-56103316D01*
X153684845Y-56501503D01*
X152946895Y-57238167D01*
X152547026Y-58201158D01*
X152546116Y-59243868D01*
X152944303Y-60207555D01*
X153680967Y-60945505D01*
X154643958Y-61345374D01*
X155686668Y-61346284D01*
X156650355Y-60948097D01*
X157388305Y-60211433D01*
X157397822Y-60188512D01*
X160140058Y-62930748D01*
X160196860Y-64723651D01*
X151601655Y-73318855D01*
X151356912Y-73685139D01*
X151270970Y-74117200D01*
X151270970Y-80433233D01*
X151130000Y-80644209D01*
X150864820Y-80247340D01*
X150403805Y-79939299D01*
X149860000Y-79831130D01*
X149316195Y-79939299D01*
X148855180Y-80247340D01*
X148547139Y-80708355D01*
X148438970Y-81252160D01*
X148438970Y-81307840D01*
X148547139Y-81851645D01*
X148855180Y-82312660D01*
X149316195Y-82620701D01*
X149860000Y-82728870D01*
X150403805Y-82620701D01*
X150864820Y-82312660D01*
X151130000Y-81915791D01*
X151395180Y-82312660D01*
X151856195Y-82620701D01*
X152400000Y-82728870D01*
X152943805Y-82620701D01*
X153404820Y-82312660D01*
X153670000Y-81915791D01*
X153935180Y-82312660D01*
X154396195Y-82620701D01*
X154940000Y-82728870D01*
X155483805Y-82620701D01*
X155944820Y-82312660D01*
X156058554Y-82142445D01*
X156090108Y-82310140D01*
X156226120Y-82521509D01*
X156433651Y-82663309D01*
X156680000Y-82713196D01*
X158280000Y-82713196D01*
X158510140Y-82669892D01*
X158721509Y-82533880D01*
X158863309Y-82326349D01*
X158913196Y-82080000D01*
X158913196Y-80480000D01*
X158869892Y-80249860D01*
X158733880Y-80038491D01*
X158649030Y-79980515D01*
X158649030Y-77571914D01*
X158848651Y-77708309D01*
X159095000Y-77758196D01*
X160945000Y-77758196D01*
X161175140Y-77714892D01*
X161386509Y-77578880D01*
X161528309Y-77371349D01*
X161536879Y-77329030D01*
X165542867Y-77329030D01*
X165585554Y-77371792D01*
X165822019Y-77469981D01*
X165587600Y-77566841D01*
X165543394Y-77610970D01*
X165100000Y-77610970D01*
X164667939Y-77696912D01*
X164301655Y-77941655D01*
X159221655Y-83021655D01*
X158976912Y-83387939D01*
X158890970Y-83820000D01*
X158890970Y-87162340D01*
X158305673Y-87747637D01*
X158023805Y-87559299D01*
X157480000Y-87451130D01*
X156936195Y-87559299D01*
X156475180Y-87867340D01*
X156210000Y-88264209D01*
X155944820Y-87867340D01*
X155483805Y-87559299D01*
X154940000Y-87451130D01*
X154396195Y-87559299D01*
X153935180Y-87867340D01*
X153670000Y-88264209D01*
X153404820Y-87867340D01*
X152943805Y-87559299D01*
X152400000Y-87451130D01*
X151856195Y-87559299D01*
X151395180Y-87867340D01*
X151210641Y-88143521D01*
X150972654Y-87787347D01*
X150961854Y-87776546D01*
X150451364Y-87435448D01*
X149849200Y-87315670D01*
X146665532Y-87315670D01*
X146867502Y-86876862D01*
X146899087Y-86060329D01*
X146615795Y-85293863D01*
X146525847Y-85159246D01*
X146112985Y-85108811D01*
X144832596Y-86389200D01*
X144846739Y-86403343D01*
X144844943Y-86405139D01*
X144830800Y-86390996D01*
X143550411Y-87671385D01*
X143584323Y-87948991D01*
X143520903Y-88012301D01*
X143455702Y-88169321D01*
X143377048Y-88287036D01*
X143349670Y-88424676D01*
X143285038Y-88580326D01*
X143284890Y-88750346D01*
X143257270Y-88889200D01*
X139532452Y-88889200D01*
X139505041Y-88578062D01*
X138807910Y-88257226D01*
X138041067Y-88227593D01*
X137321256Y-88493673D01*
X137194959Y-88578062D01*
X137159731Y-88977935D01*
X134167903Y-88977935D01*
X134156000Y-88966012D01*
X133633900Y-88749217D01*
X133068580Y-88748724D01*
X132546103Y-88964607D01*
X132146012Y-89364000D01*
X131929217Y-89886100D01*
X131928724Y-90451420D01*
X124319030Y-90451420D01*
X124319030Y-89746767D01*
X124460000Y-89535791D01*
X124725180Y-89932660D01*
X125186195Y-90240701D01*
X125730000Y-90348870D01*
X126273805Y-90240701D01*
X126734820Y-89932660D01*
X127000000Y-89535791D01*
X127265180Y-89932660D01*
X127726195Y-90240701D01*
X128270000Y-90348870D01*
X128813805Y-90240701D01*
X129130592Y-90029030D01*
X129540000Y-90029030D01*
X129972061Y-89943088D01*
X130338345Y-89698345D01*
X132878342Y-87158347D01*
X132878345Y-87158345D01*
X133085978Y-86847600D01*
X133123088Y-86792062D01*
X133137805Y-86718071D01*
X142762513Y-86718071D01*
X143045805Y-87484537D01*
X143135753Y-87619154D01*
X143548615Y-87669589D01*
X144829004Y-86389200D01*
X143548615Y-85108811D01*
X143135753Y-85159246D01*
X142794098Y-85901538D01*
X142762513Y-86718071D01*
X133137805Y-86718071D01*
X133209030Y-86360000D01*
X133209030Y-85107015D01*
X143550411Y-85107015D01*
X144830800Y-86387404D01*
X146111189Y-85107015D01*
X146060754Y-84694153D01*
X145318462Y-84352498D01*
X144501929Y-84320913D01*
X143735463Y-84604205D01*
X143600846Y-84694153D01*
X143550411Y-85107015D01*
X133209030Y-85107015D01*
X133209030Y-81747660D01*
X135087659Y-79869030D01*
X137602867Y-79869030D01*
X137645554Y-79911792D01*
X137882019Y-80009981D01*
X137647600Y-80106841D01*
X137258208Y-80495554D01*
X137047211Y-81003691D01*
X137046731Y-81553895D01*
X137256841Y-82062400D01*
X137645554Y-82451792D01*
X138153691Y-82662789D01*
X138703895Y-82663269D01*
X139212400Y-82453159D01*
X139601792Y-82064446D01*
X139812789Y-81556309D01*
X139813269Y-81006105D01*
X139603159Y-80497600D01*
X139214446Y-80108208D01*
X138977981Y-80010019D01*
X139212400Y-79913159D01*
X139601792Y-79524446D01*
X139812789Y-79016309D01*
X139813269Y-78466105D01*
X139603159Y-77957600D01*
X139214446Y-77568208D01*
X138977981Y-77470019D01*
X139166644Y-77392065D01*
X143589731Y-77392065D01*
X143624959Y-77791938D01*
X144322090Y-78112774D01*
X145088933Y-78142407D01*
X145808744Y-77876327D01*
X145935041Y-77791938D01*
X145970269Y-77392065D01*
X144780000Y-76201796D01*
X143589731Y-77392065D01*
X139166644Y-77392065D01*
X139212400Y-77373159D01*
X139601792Y-76984446D01*
X139799242Y-76508933D01*
X142837593Y-76508933D01*
X143103673Y-77228744D01*
X143188062Y-77355041D01*
X143587935Y-77390269D01*
X144778204Y-76200000D01*
X144781796Y-76200000D01*
X145972065Y-77390269D01*
X146371938Y-77355041D01*
X146692774Y-76657910D01*
X146699594Y-76481420D01*
X148358724Y-76481420D01*
X148574607Y-77003897D01*
X148974000Y-77403988D01*
X149496100Y-77620783D01*
X150061420Y-77621276D01*
X150583897Y-77405393D01*
X150983988Y-77006000D01*
X151200783Y-76483900D01*
X151201276Y-75918580D01*
X150985393Y-75396103D01*
X150586000Y-74996012D01*
X150063900Y-74779217D01*
X149498580Y-74778724D01*
X148976103Y-74994607D01*
X148576012Y-75394000D01*
X148359217Y-75916100D01*
X148358724Y-76481420D01*
X146699594Y-76481420D01*
X146722407Y-75891067D01*
X146456327Y-75171256D01*
X146371938Y-75044959D01*
X145972065Y-75009731D01*
X144781796Y-76200000D01*
X144778204Y-76200000D01*
X143587935Y-75009731D01*
X143188062Y-75044959D01*
X142867226Y-75742090D01*
X142837593Y-76508933D01*
X139799242Y-76508933D01*
X139812789Y-76476309D01*
X139813269Y-75926105D01*
X139603159Y-75417600D01*
X139214446Y-75028208D01*
X139165624Y-75007935D01*
X143589731Y-75007935D01*
X144780000Y-76198204D01*
X145970269Y-75007935D01*
X145935041Y-74608062D01*
X145237910Y-74287226D01*
X144471067Y-74257593D01*
X143751256Y-74523673D01*
X143624959Y-74608062D01*
X143589731Y-75007935D01*
X139165624Y-75007935D01*
X138706309Y-74817211D01*
X138156105Y-74816731D01*
X137647600Y-75026841D01*
X137603394Y-75070970D01*
X133599805Y-75070970D01*
X133594892Y-75044860D01*
X133458880Y-74833491D01*
X133251349Y-74691691D01*
X133005000Y-74641804D01*
X131155000Y-74641804D01*
X130924860Y-74685108D01*
X130713491Y-74821120D01*
X130581246Y-75014667D01*
X130456899Y-74890103D01*
X129888874Y-74654238D01*
X129273825Y-74653702D01*
X128705388Y-74888575D01*
X128270103Y-75323101D01*
X128034238Y-75891126D01*
X128033702Y-76506175D01*
X128268575Y-77074612D01*
X128450970Y-77257326D01*
X128450970Y-79502340D01*
X128106506Y-79846804D01*
X127470000Y-79846804D01*
X127239860Y-79890108D01*
X127028491Y-80026120D01*
X126886691Y-80233651D01*
X126859030Y-80370245D01*
X126859030Y-67818005D01*
X126859031Y-67818000D01*
X126773088Y-67385939D01*
X126528345Y-67019655D01*
X123837430Y-64328740D01*
X123837430Y-61145053D01*
X124191155Y-60998897D01*
X124357524Y-60832817D01*
X130152979Y-60832817D01*
X130334198Y-61357378D01*
X131464867Y-61878078D01*
X132708732Y-61926454D01*
X133876426Y-61495140D01*
X134082602Y-61357378D01*
X134263821Y-60832817D01*
X132208400Y-58777396D01*
X130152979Y-60832817D01*
X124357524Y-60832817D01*
X124929105Y-60262233D01*
X125328974Y-59299242D01*
X125328994Y-59275932D01*
X129057546Y-59275932D01*
X129488860Y-60443626D01*
X129626622Y-60649802D01*
X130151183Y-60831021D01*
X132206604Y-58775600D01*
X132210196Y-58775600D01*
X134265617Y-60831021D01*
X134407465Y-60782017D01*
X143612179Y-60782017D01*
X143793398Y-61306578D01*
X144924067Y-61827278D01*
X146167932Y-61875654D01*
X147335626Y-61444340D01*
X147541802Y-61306578D01*
X147723021Y-60782017D01*
X145667600Y-58726596D01*
X143612179Y-60782017D01*
X134407465Y-60782017D01*
X134790178Y-60649802D01*
X135310878Y-59519133D01*
X135322312Y-59225132D01*
X142516746Y-59225132D01*
X142948060Y-60392826D01*
X143085822Y-60599002D01*
X143610383Y-60780221D01*
X145665804Y-58724800D01*
X145669396Y-58724800D01*
X147724817Y-60780221D01*
X148249378Y-60599002D01*
X148770078Y-59468333D01*
X148818454Y-58224468D01*
X148387140Y-57056774D01*
X148249378Y-56850598D01*
X147724817Y-56669379D01*
X145669396Y-58724800D01*
X145665804Y-58724800D01*
X143610383Y-56669379D01*
X143085822Y-56850598D01*
X142565122Y-57981267D01*
X142516746Y-59225132D01*
X135322312Y-59225132D01*
X135359254Y-58275268D01*
X134927940Y-57107574D01*
X134790178Y-56901398D01*
X134265617Y-56720179D01*
X132210196Y-58775600D01*
X132206604Y-58775600D01*
X130151183Y-56720179D01*
X129626622Y-56901398D01*
X129105922Y-58032067D01*
X129057546Y-59275932D01*
X125328994Y-59275932D01*
X125329884Y-58256532D01*
X124931697Y-57292845D01*
X124358237Y-56718383D01*
X130152979Y-56718383D01*
X132208400Y-58773804D01*
X134263821Y-56718383D01*
X134246272Y-56667583D01*
X143612179Y-56667583D01*
X145667600Y-58723004D01*
X147723021Y-56667583D01*
X147541802Y-56143022D01*
X146411133Y-55622322D01*
X145167268Y-55573946D01*
X143999574Y-56005260D01*
X143793398Y-56143022D01*
X143612179Y-56667583D01*
X134246272Y-56667583D01*
X134082602Y-56193822D01*
X132951933Y-55673122D01*
X131708068Y-55624746D01*
X130540374Y-56056060D01*
X130334198Y-56193822D01*
X130152979Y-56718383D01*
X124358237Y-56718383D01*
X124195033Y-56554895D01*
X123232042Y-56155026D01*
X122189332Y-56154116D01*
X121225645Y-56552303D01*
X120487695Y-57288967D01*
X120087826Y-58251958D01*
X120086916Y-59294668D01*
X120485103Y-60258355D01*
X121221767Y-60996305D01*
X121579370Y-61144795D01*
X121579370Y-64796400D01*
X121665312Y-65228461D01*
X121910055Y-65594745D01*
X124600970Y-68285660D01*
X124600970Y-80433233D01*
X124460000Y-80644209D01*
X124319030Y-80433233D01*
X124319030Y-68757200D01*
X124233088Y-68325139D01*
X123988345Y-67958855D01*
X115682201Y-59652711D01*
X115828974Y-59299242D01*
X115829884Y-58256532D01*
X115431697Y-57292845D01*
X114695033Y-56554895D01*
X113732042Y-56155026D01*
X112689332Y-56154116D01*
X111725645Y-56552303D01*
X110987695Y-57288967D01*
X110587826Y-58251958D01*
X110586916Y-59294668D01*
X106328977Y-59294668D01*
X106329884Y-58256532D01*
X105931697Y-57292845D01*
X105195033Y-56554895D01*
X104232042Y-56155026D01*
X103189332Y-56154116D01*
X102225645Y-56552303D01*
X101487695Y-57288967D01*
X101087826Y-58251958D01*
X101086916Y-59294668D01*
X101234781Y-59652529D01*
X100040340Y-60846970D01*
X95843347Y-60846970D01*
X96429105Y-60262233D01*
X96828974Y-59299242D01*
X96829884Y-58256532D01*
X96431697Y-57292845D01*
X95695033Y-56554895D01*
X94732042Y-56155026D01*
X93689332Y-56154116D01*
X92725645Y-56552303D01*
X91987695Y-57288967D01*
X91587826Y-58251958D01*
X91586916Y-59294668D01*
X91985103Y-60258355D01*
X92721767Y-60996305D01*
X93079370Y-61144795D01*
X93079370Y-68097200D01*
X93165312Y-68529261D01*
X93410055Y-68895545D01*
X96660970Y-72146460D01*
X96660970Y-80433233D01*
X96520000Y-80644209D01*
X96379030Y-80433233D01*
X96379030Y-73304405D01*
X96379031Y-73304400D01*
X96293088Y-72872339D01*
X96048345Y-72506055D01*
X85837430Y-62295140D01*
X85837430Y-61145053D01*
X86191155Y-60998897D01*
X86929105Y-60262233D01*
X87328974Y-59299242D01*
X87329884Y-58256532D01*
X86931697Y-57292845D01*
X86195033Y-56554895D01*
X85232042Y-56155026D01*
X84189332Y-56154116D01*
X83225645Y-56552303D01*
X82487695Y-57288967D01*
X82087826Y-58251958D01*
X82086916Y-59294668D01*
X82485103Y-60258355D01*
X83123404Y-60897770D01*
X78927260Y-60897770D01*
X77682201Y-59652711D01*
X77828974Y-59299242D01*
X77829884Y-58256532D01*
X77431697Y-57292845D01*
X76695033Y-56554895D01*
X75732042Y-56155026D01*
X74689332Y-56154116D01*
X73725645Y-56552303D01*
X72987695Y-57288967D01*
X72587826Y-58251958D01*
X72586916Y-59294668D01*
X68819607Y-59294668D01*
X68859254Y-58275268D01*
X68427940Y-57107574D01*
X68290178Y-56901398D01*
X67765617Y-56720179D01*
X65710196Y-58775600D01*
X65706604Y-58775600D01*
X63651183Y-56720179D01*
X63126622Y-56901398D01*
X62605922Y-58032067D01*
X62557546Y-59275932D01*
X60113697Y-59275932D01*
X60577167Y-58761630D01*
X61044001Y-58761630D01*
X61044001Y-58243595D01*
X62418465Y-56718383D01*
X63652979Y-56718383D01*
X65708400Y-58773804D01*
X67763821Y-56718383D01*
X67582602Y-56193822D01*
X66451933Y-55673122D01*
X65208068Y-55624746D01*
X64040374Y-56056060D01*
X63834198Y-56193822D01*
X63652979Y-56718383D01*
X62418465Y-56718383D01*
X67512757Y-51065362D01*
X217522239Y-50862304D01*
X220766203Y-54904783D01*
M02*
