M48
INCH,TZ
T1C0.030
T2C0.031
T3C0.032
T4C0.035
T5C0.083
%
G90
G05
T1
X79500Y-29000
X79500Y-33500
X79500Y-37000
T2
X34500Y-30000
X36469Y-30000
X36500Y-32000
X36500Y-35000
X37500Y-32000
X37500Y-35000
X38500Y-32000
X38500Y-35000
X39500Y-32000
X39500Y-35000
X41500Y-35500
X43469Y-35500
X45500Y-30000
X47469Y-30000
X47500Y-32000
X47500Y-35000
X48500Y-32000
X48500Y-35000
X49500Y-32000
X49500Y-35000
X50500Y-32000
X50500Y-35000
X52500Y-35500
X54469Y-35500
X57000Y-30000
X58969Y-30000
X59000Y-32000
X59000Y-35000
X60000Y-32000
X60000Y-35000
X61000Y-32000
X61000Y-35000
X62000Y-32000
X62000Y-35000
X63500Y-35500
X65469Y-35500
X68000Y-30000
X69969Y-30000
X70000Y-32000
X70000Y-35000
X71000Y-32000
X71000Y-35000
X72000Y-32000
X72000Y-35000
X73000Y-32000
X73000Y-35000
X74500Y-35500
X76469Y-35500
T3
X24500Y-27500
X24500Y-28500
X24500Y-29500
X27000Y-30500
X27000Y-31500
X27000Y-32500
X29500Y-33500
X29500Y-34500
X29500Y-35500
X32000Y-36500
X32000Y-37500
X32000Y-38500
X43000Y-30000
X43000Y-31000
X43000Y-32000
X54500Y-30000
X54500Y-31000
X54500Y-32000
X65500Y-30000
X65500Y-31000
X65500Y-32000
X77000Y-30000
X77000Y-31000
X77000Y-32000
T4
X34500Y-34011
X34500Y-34996
X34500Y-35980
X39516Y-30000
X40500Y-30000
X45500Y-34011
X45500Y-34996
X45500Y-35980
X51016Y-30000
X52000Y-30000
X57020Y-34011
X57020Y-34996
X57020Y-35980
X62016Y-30000
X63000Y-30000
X68020Y-34011
X68020Y-34996
X68020Y-35980
X73516Y-30000
X74500Y-30000
T5
X19500Y-27409
X19500Y-31150
X19500Y-34890
X19500Y-38630
X25829Y-15360
X25869Y-23140
X29570Y-15360
X29610Y-23140
X33310Y-15360
X33350Y-23140
X36528Y-41079
X37050Y-15360
X37090Y-23140
X40268Y-41079
X40790Y-15360
X40830Y-23140
X44008Y-41079
X44530Y-15360
X44570Y-23140
X47748Y-41079
X48270Y-15360
X48310Y-23140
X51488Y-41079
X52011Y-15360
X52051Y-23140
X55228Y-41079
X57349Y-23120
X57409Y-15360
X58969Y-41079
X61090Y-23120
X61150Y-15360
X62709Y-41079
X64830Y-23120
X64890Y-15360
X66449Y-41079
X68570Y-23120
X68630Y-15360
X70189Y-41079
X72310Y-23120
X72370Y-15360
X73929Y-41079
X76050Y-23120
X76110Y-15360
X77669Y-41079
X79790Y-23120
X79850Y-15360
X83531Y-23120
X83591Y-15360
X84500Y-29260
X84500Y-33000
X84500Y-36740
T0
M30
